{"glyphs":{"0":{"ha":556,"x_min":0,"x_max":0,"o":"m 504 417 b 528 347 519 397 528 374 b 504 278 528 321 519 297 b 528 208 519 258 528 235 b 417 97 528 146 479 97 b 385 101 406 97 394 99 b 389 69 388 92 389 81 b 278 -42 389 7 340 -42 b 167 69 215 -42 167 7 b 171 101 167 81 168 92 b 139 97 161 99 150 97 b 28 208 76 97 28 146 b 51 278 28 235 36 258 b 28 347 36 297 28 321 b 51 417 28 374 36 397 b 28 486 36 436 28 460 b 139 597 28 549 76 597 b 171 593 150 597 161 596 b 167 625 168 603 167 614 b 278 736 167 688 215 736 b 389 625 340 736 389 688 b 385 593 389 614 388 603 b 417 597 394 596 406 597 b 528 486 479 597 528 549 b 504 417 528 460 519 436 m 246 176 b 278 181 256 179 267 181 b 310 176 289 181 300 179 b 306 208 307 186 306 197 b 329 278 306 235 314 258 b 306 347 314 297 306 321 b 329 417 306 374 314 397 b 306 486 314 436 306 460 b 310 518 306 497 307 508 b 278 514 300 515 289 514 b 246 518 267 514 256 515 b 250 486 249 508 250 497 b 226 417 250 460 242 436 b 250 347 242 397 250 374 b 226 278 250 321 242 297 b 250 208 242 258 250 235 b 246 176 250 197 249 186 "},"1":{"ha":417,"x_min":0,"x_max":0,"o":"m 365 556 b 389 486 381 536 389 513 b 365 417 389 460 381 436 b 389 347 381 397 389 374 b 365 278 389 321 381 297 b 389 208 381 258 389 235 b 365 139 389 182 381 158 b 389 69 381 119 389 96 b 278 -42 389 7 340 -42 b 167 69 215 -42 167 7 b 190 139 167 96 175 119 b 167 208 175 158 167 182 b 190 278 167 235 175 258 b 167 347 175 297 167 321 b 171 379 167 358 168 369 b 139 375 161 376 150 375 b 28 486 76 375 28 424 b 139 597 28 549 76 597 b 171 593 150 597 161 596 b 167 625 168 603 167 614 b 278 736 167 688 215 736 b 389 625 340 736 389 688 b 365 556 389 599 381 575 "},"2":{"ha":556,"x_min":0,"x_max":0,"o":"m 417 181 b 528 69 479 181 528 132 b 417 -42 528 7 479 -42 b 347 -18 390 -42 367 -33 b 278 -42 328 -33 304 -42 b 208 -18 251 -42 228 -33 b 139 -42 189 -33 165 -42 b 28 69 76 -42 28 7 b 51 139 28 96 36 119 b 28 208 36 158 28 182 b 139 319 28 271 76 319 b 171 315 150 319 161 318 b 167 347 168 325 167 336 b 278 458 167 410 215 458 b 310 454 289 458 300 457 b 306 486 307 464 306 475 b 310 518 306 497 307 508 b 278 514 300 515 289 514 b 208 538 251 514 228 522 b 139 514 189 522 165 514 b 28 625 76 514 28 563 b 139 736 28 688 76 736 b 208 713 165 736 189 728 b 278 736 228 728 251 736 b 389 625 340 736 389 688 b 385 593 389 614 388 603 b 417 597 394 596 406 597 b 528 486 479 597 528 549 b 417 375 528 424 479 375 b 385 379 406 375 394 376 b 389 347 388 369 389 358 b 278 236 389 285 340 236 b 246 240 267 236 256 238 b 250 208 249 231 250 219 b 246 176 250 197 249 186 b 278 181 256 179 267 181 b 347 157 304 181 328 172 b 417 181 367 172 390 181 "},"3":{"ha":556,"x_min":0,"x_max":0,"o":"m 417 319 b 528 208 479 319 528 271 b 417 97 528 146 479 97 b 385 101 406 97 394 99 b 389 69 388 92 389 81 b 278 -42 389 7 340 -42 b 208 -18 251 -42 228 -33 b 139 -42 189 -33 165 -42 b 28 69 76 -42 28 7 b 139 181 28 132 76 181 b 208 157 165 181 189 172 b 278 181 228 172 251 181 b 310 176 289 181 300 179 b 306 208 307 186 306 197 b 310 240 306 219 307 231 b 278 236 300 238 289 236 b 167 347 215 236 167 285 b 278 458 167 410 215 458 b 310 454 289 458 300 457 b 306 486 307 464 306 475 b 310 518 306 497 307 508 b 278 514 300 515 289 514 b 208 538 251 514 228 522 b 139 514 189 522 165 514 b 28 625 76 514 28 563 b 139 736 28 688 76 736 b 208 713 165 736 189 728 b 278 736 228 728 251 736 b 389 625 340 736 389 688 b 385 593 389 614 388 603 b 417 597 394 596 406 597 b 528 486 479 597 528 549 b 417 375 528 424 479 375 b 385 379 406 375 394 376 b 389 347 388 369 389 358 b 385 315 389 336 388 325 b 417 319 394 318 406 319 "},"4":{"ha":556,"x_min":0,"x_max":0,"o":"m 504 556 b 528 486 519 536 528 513 b 504 417 528 460 519 436 b 528 347 519 397 528 374 b 504 278 528 321 519 297 b 528 208 519 258 528 235 b 504 139 528 182 519 158 b 528 69 519 119 528 96 b 417 -42 528 7 479 -42 b 306 69 354 -42 306 7 b 310 101 306 81 307 92 b 278 97 300 99 289 97 b 208 121 251 97 228 106 b 139 97 189 106 165 97 b 28 208 76 97 28 146 b 51 278 28 235 36 258 b 28 347 36 297 28 321 b 139 458 28 410 76 458 b 171 454 150 458 161 457 b 167 486 168 464 167 475 b 278 597 167 549 215 597 b 310 593 289 597 300 596 b 306 625 307 603 306 614 b 417 736 306 688 354 736 b 528 625 479 736 528 688 b 504 556 528 599 519 575 m 246 315 b 278 319 256 318 267 319 b 310 315 289 319 300 318 b 306 347 307 325 306 336 b 310 379 306 358 307 369 b 278 375 300 376 289 375 b 246 379 267 375 256 376 b 250 347 249 369 250 358 b 246 315 250 336 249 325 "},"5":{"ha":556,"x_min":0,"x_max":0,"o":"m 417 319 b 528 208 479 319 528 271 b 417 97 528 146 479 97 b 385 101 406 97 394 99 b 389 69 388 92 389 81 b 278 -42 389 7 340 -42 b 208 -18 251 -42 228 -33 b 139 -42 189 -33 165 -42 b 28 69 76 -42 28 7 b 139 181 28 132 76 181 b 208 157 165 181 189 172 b 278 181 228 172 251 181 b 310 176 289 181 300 179 b 306 208 307 186 306 197 b 310 240 306 219 307 231 b 278 236 300 238 289 236 b 208 260 251 236 228 244 b 139 236 189 244 165 236 b 28 347 76 236 28 285 b 51 417 28 374 36 397 b 28 486 36 436 28 460 b 51 556 28 513 36 536 b 28 625 36 575 28 599 b 139 736 28 688 76 736 b 208 713 165 736 189 728 b 278 736 228 728 251 736 b 347 713 304 736 328 728 b 417 736 367 728 390 736 b 528 625 479 736 528 688 b 417 514 528 563 479 514 b 347 538 390 514 367 522 b 278 514 328 522 304 514 b 246 518 267 514 256 515 b 250 486 249 508 250 497 b 246 454 250 475 249 464 b 278 458 256 457 267 458 b 389 347 340 458 389 410 b 385 315 389 336 388 325 b 417 319 394 318 406 319 "},"6":{"ha":556,"x_min":0,"x_max":0,"o":"m 417 319 b 528 208 479 319 528 271 b 417 97 528 146 479 97 b 385 101 406 97 394 99 b 389 69 388 92 389 81 b 278 -42 389 7 340 -42 b 167 69 215 -42 167 7 b 171 101 167 81 168 92 b 139 97 161 99 150 97 b 28 208 76 97 28 146 b 51 278 28 235 36 258 b 28 347 36 297 28 321 b 51 417 28 374 36 397 b 28 486 36 436 28 460 b 139 597 28 549 76 597 b 171 593 150 597 161 596 b 167 625 168 603 167 614 b 278 736 167 688 215 736 b 347 713 304 736 328 728 b 417 736 367 728 390 736 b 528 625 479 736 528 688 b 417 514 528 563 479 514 b 347 538 390 514 367 522 b 278 514 328 522 304 514 b 246 518 267 514 256 515 b 250 486 249 508 250 497 b 246 454 250 475 249 464 b 278 458 256 457 267 458 b 389 347 340 458 389 410 b 385 315 389 336 388 325 b 417 319 394 318 406 319 m 246 176 b 278 181 256 179 267 181 b 310 176 289 181 300 179 b 306 208 307 186 306 197 b 310 240 306 219 307 231 b 278 236 300 238 289 236 b 246 240 267 236 256 238 b 250 208 249 231 250 219 b 246 176 250 197 249 186 "},"7":{"ha":556,"x_min":0,"x_max":0,"o":"m 528 625 b 504 556 528 599 519 575 b 528 486 519 536 528 513 b 417 375 528 424 479 375 b 385 379 406 375 394 376 b 389 347 388 369 389 358 b 365 278 389 321 381 297 b 389 208 381 258 389 235 b 278 97 389 146 340 97 b 246 101 267 97 256 99 b 250 69 249 92 250 81 b 139 -42 250 7 201 -42 b 28 69 76 -42 28 7 b 139 181 28 132 76 181 b 171 176 150 181 161 179 b 167 208 168 186 167 197 b 190 278 167 235 175 258 b 167 347 175 297 167 321 b 278 458 167 410 215 458 b 310 454 289 458 300 457 b 306 486 307 464 306 475 b 310 518 306 497 307 508 b 278 514 300 515 289 514 b 208 538 251 514 228 522 b 139 514 189 522 165 514 b 28 625 76 514 28 563 b 139 736 28 688 76 736 b 208 713 165 736 189 728 b 278 736 228 728 251 736 b 347 713 304 736 328 728 b 417 736 367 728 390 736 b 528 625 479 736 528 688 "},"8":{"ha":556,"x_min":0,"x_max":0,"o":"m 417 319 b 528 208 479 319 528 271 b 417 97 528 146 479 97 b 385 101 406 97 394 99 b 389 69 388 92 389 81 b 278 -42 389 7 340 -42 b 167 69 215 -42 167 7 b 171 101 167 81 168 92 b 139 97 161 99 150 97 b 28 208 76 97 28 146 b 139 319 28 271 76 319 b 171 315 150 319 161 318 b 167 347 168 325 167 336 b 171 379 167 358 168 369 b 139 375 161 376 150 375 b 28 486 76 375 28 424 b 139 597 28 549 76 597 b 171 593 150 597 161 596 b 167 625 168 603 167 614 b 278 736 167 688 215 736 b 389 625 340 736 389 688 b 385 593 389 614 388 603 b 417 597 394 596 406 597 b 528 486 479 597 528 549 b 417 375 528 424 479 375 b 385 379 406 375 394 376 b 389 347 388 369 389 358 b 385 315 389 336 388 325 b 417 319 394 318 406 319 m 310 518 b 278 514 300 515 289 514 b 246 518 267 514 256 515 b 250 486 249 508 250 497 b 246 454 250 475 249 464 b 278 458 256 457 267 458 b 310 454 289 458 300 457 b 306 486 307 464 306 475 b 310 518 306 497 307 508 m 246 176 b 278 181 256 179 267 181 b 310 176 289 181 300 179 b 306 208 307 186 306 197 b 310 240 306 219 307 231 b 278 236 300 238 289 236 b 246 240 267 236 256 238 b 250 208 249 231 250 219 b 246 176 250 197 249 186 "},"9":{"ha":556,"x_min":0,"x_max":0,"o":"m 504 417 b 528 347 519 397 528 374 b 504 278 528 321 519 297 b 528 208 519 258 528 235 b 417 97 528 146 479 97 b 385 101 406 97 394 99 b 389 69 388 92 389 81 b 278 -42 389 7 340 -42 b 208 -18 251 -42 228 -33 b 139 -42 189 -33 165 -42 b 28 69 76 -42 28 7 b 139 181 28 132 76 181 b 208 157 165 181 189 172 b 278 181 228 172 251 181 b 310 176 289 181 300 179 b 306 208 307 186 306 197 b 310 240 306 219 307 231 b 278 236 300 238 289 236 b 167 347 215 236 167 285 b 171 379 167 358 168 369 b 139 375 161 376 150 375 b 28 486 76 375 28 424 b 139 597 28 549 76 597 b 171 593 150 597 161 596 b 167 625 168 603 167 614 b 278 736 167 688 215 736 b 389 625 340 736 389 688 b 385 593 389 614 388 603 b 417 597 394 596 406 597 b 528 486 479 597 528 549 b 504 417 528 460 519 436 m 246 454 b 278 458 256 457 267 458 b 310 454 289 458 300 457 b 306 486 307 464 306 475 b 310 518 306 497 307 508 b 278 514 300 515 289 514 b 246 518 267 514 256 515 b 250 486 249 508 250 497 b 246 454 250 475 249 464 "}," ":{"ha":278,"x_min":0,"x_max":0,"o":""},"A":{"ha":556,"x_min":0,"x_max":0,"o":"m 504 417 b 528 347 519 397 528 374 b 504 278 528 321 519 297 b 528 208 519 258 528 235 b 504 139 528 182 519 158 b 528 69 519 119 528 96 b 417 -42 528 7 479 -42 b 306 69 354 -42 306 7 b 329 139 306 96 314 119 b 306 208 314 158 306 182 b 310 240 306 219 307 231 b 278 236 300 238 289 236 b 246 240 267 236 256 238 b 250 208 249 231 250 219 b 226 139 250 182 242 158 b 250 69 242 119 250 96 b 139 -42 250 7 201 -42 b 28 69 76 -42 28 7 b 51 139 28 96 36 119 b 28 208 36 158 28 182 b 51 278 28 235 36 258 b 28 347 36 297 28 321 b 51 417 28 374 36 397 b 28 486 36 436 28 460 b 139 597 28 549 76 597 b 171 593 150 597 161 596 b 167 625 168 603 167 614 b 278 736 167 688 215 736 b 389 625 340 736 389 688 b 385 593 389 614 388 603 b 417 597 394 596 406 597 b 528 486 479 597 528 549 b 504 417 528 460 519 436 m 246 454 b 278 458 256 457 267 458 b 310 454 289 458 300 457 b 306 486 307 464 306 475 b 310 518 306 497 307 508 b 278 514 300 515 289 514 b 246 518 267 514 256 515 b 250 486 249 508 250 497 b 246 454 250 475 249 464 "},"Á":{"ha":556,"x_min":0,"x_max":0,"o":"m 278 792 b 167 903 215 792 167 840 b 278 1014 167 965 215 1014 b 310 1010 289 1014 300 1013 b 306 1042 307 1019 306 1031 b 417 1153 306 1104 354 1153 b 528 1042 479 1153 528 1104 b 417 931 528 979 479 931 b 385 935 406 931 394 932 b 389 903 388 925 389 914 b 278 792 389 840 340 792 m 417 597 b 528 486 479 597 528 549 b 504 417 528 460 519 436 b 528 347 519 397 528 374 b 504 278 528 321 519 297 b 528 208 519 258 528 235 b 504 139 528 182 519 158 b 528 69 519 119 528 96 b 417 -42 528 7 479 -42 b 306 69 354 -42 306 7 b 329 139 306 96 314 119 b 306 208 314 158 306 182 b 310 240 306 219 307 231 b 278 236 300 238 289 236 b 246 240 267 236 256 238 b 250 208 249 231 250 219 b 226 139 250 182 242 158 b 250 69 242 119 250 96 b 139 -42 250 7 201 -42 b 28 69 76 -42 28 7 b 51 139 28 96 36 119 b 28 208 36 158 28 182 b 51 278 28 235 36 258 b 28 347 36 297 28 321 b 51 417 28 374 36 397 b 28 486 36 436 28 460 b 139 597 28 549 76 597 b 171 593 150 597 161 596 b 167 625 168 603 167 614 b 278 736 167 688 215 736 b 389 625 340 736 389 688 b 385 593 389 614 388 603 b 417 597 394 596 406 597 m 246 454 b 278 458 256 457 267 458 b 310 454 289 458 300 457 b 306 486 307 464 306 475 b 310 518 306 497 307 508 b 278 514 300 515 289 514 b 246 518 267 514 256 515 b 250 486 249 508 250 497 b 246 454 250 475 249 464 "},"Ă":{"ha":556,"x_min":0,"x_max":0,"o":"m 528 1042 b 504 972 528 1015 519 992 b 528 903 519 953 528 929 b 417 792 528 840 479 792 b 347 815 390 792 367 800 b 278 792 328 800 304 792 b 208 815 251 792 228 800 b 139 792 189 800 165 792 b 28 903 76 792 28 840 b 51 972 28 929 36 953 b 28 1042 36 992 28 1015 b 139 1153 28 1104 76 1153 b 250 1042 201 1153 250 1104 b 246 1010 250 1031 249 1019 b 278 1014 256 1013 267 1014 b 310 1010 289 1014 300 1013 b 306 1042 307 1019 306 1031 b 417 1153 306 1104 354 1153 b 528 1042 479 1153 528 1104 m 417 597 b 528 486 479 597 528 549 b 504 417 528 460 519 436 b 528 347 519 397 528 374 b 504 278 528 321 519 297 b 528 208 519 258 528 235 b 504 139 528 182 519 158 b 528 69 519 119 528 96 b 417 -42 528 7 479 -42 b 306 69 354 -42 306 7 b 329 139 306 96 314 119 b 306 208 314 158 306 182 b 310 240 306 219 307 231 b 278 236 300 238 289 236 b 246 240 267 236 256 238 b 250 208 249 231 250 219 b 226 139 250 182 242 158 b 250 69 242 119 250 96 b 139 -42 250 7 201 -42 b 28 69 76 -42 28 7 b 51 139 28 96 36 119 b 28 208 36 158 28 182 b 51 278 28 235 36 258 b 28 347 36 297 28 321 b 51 417 28 374 36 397 b 28 486 36 436 28 460 b 139 597 28 549 76 597 b 171 593 150 597 161 596 b 167 625 168 603 167 614 b 278 736 167 688 215 736 b 389 625 340 736 389 688 b 385 593 389 614 388 603 b 417 597 394 596 406 597 m 246 454 b 278 458 256 457 267 458 b 310 454 289 458 300 457 b 306 486 307 464 306 475 b 310 518 306 497 307 508 b 278 514 300 515 289 514 b 246 518 267 514 256 515 b 250 486 249 508 250 497 b 246 454 250 475 249 464 "},"Â":{"ha":556,"x_min":0,"x_max":0,"o":"m 139 792 b 28 903 76 792 28 840 b 139 1014 28 965 76 1014 b 171 1010 150 1014 161 1013 b 167 1042 168 1019 167 1031 b 278 1153 167 1104 215 1153 b 389 1042 340 1153 389 1104 b 385 1010 389 1031 388 1019 b 417 1014 394 1013 406 1014 b 528 903 479 1014 528 965 b 417 792 528 840 479 792 b 306 903 354 792 306 840 b 310 935 306 914 307 925 b 278 931 300 932 289 931 b 246 935 267 931 256 932 b 250 903 249 925 250 914 b 139 792 250 840 201 792 m 417 597 b 528 486 479 597 528 549 b 504 417 528 460 519 436 b 528 347 519 397 528 374 b 504 278 528 321 519 297 b 528 208 519 258 528 235 b 504 139 528 182 519 158 b 528 69 519 119 528 96 b 417 -42 528 7 479 -42 b 306 69 354 -42 306 7 b 329 139 306 96 314 119 b 306 208 314 158 306 182 b 310 240 306 219 307 231 b 278 236 300 238 289 236 b 246 240 267 236 256 238 b 250 208 249 231 250 219 b 226 139 250 182 242 158 b 250 69 242 119 250 96 b 139 -42 250 7 201 -42 b 28 69 76 -42 28 7 b 51 139 28 96 36 119 b 28 208 36 158 28 182 b 51 278 28 235 36 258 b 28 347 36 297 28 321 b 51 417 28 374 36 397 b 28 486 36 436 28 460 b 139 597 28 549 76 597 b 171 593 150 597 161 596 b 167 625 168 603 167 614 b 278 736 167 688 215 736 b 389 625 340 736 389 688 b 385 593 389 614 388 603 b 417 597 394 596 406 597 m 246 454 b 278 458 256 457 267 458 b 310 454 289 458 300 457 b 306 486 307 464 306 475 b 310 518 306 497 307 508 b 278 514 300 515 289 514 b 246 518 267 514 256 515 b 250 486 249 508 250 497 b 246 454 250 475 249 464 "},"Ä":{"ha":556,"x_min":0,"x_max":0,"o":"m 139 792 b 28 903 76 792 28 840 b 139 1014 28 965 76 1014 b 250 903 201 1014 250 965 b 139 792 250 840 201 792 m 417 792 b 306 903 354 792 306 840 b 417 1014 306 965 354 1014 b 528 903 479 1014 528 965 b 417 792 528 840 479 792 m 417 597 b 528 486 479 597 528 549 b 504 417 528 460 519 436 b 528 347 519 397 528 374 b 504 278 528 321 519 297 b 528 208 519 258 528 235 b 504 139 528 182 519 158 b 528 69 519 119 528 96 b 417 -42 528 7 479 -42 b 306 69 354 -42 306 7 b 329 139 306 96 314 119 b 306 208 314 158 306 182 b 310 240 306 219 307 231 b 278 236 300 238 289 236 b 246 240 267 236 256 238 b 250 208 249 231 250 219 b 226 139 250 182 242 158 b 250 69 242 119 250 96 b 139 -42 250 7 201 -42 b 28 69 76 -42 28 7 b 51 139 28 96 36 119 b 28 208 36 158 28 182 b 51 278 28 235 36 258 b 28 347 36 297 28 321 b 51 417 28 374 36 397 b 28 486 36 436 28 460 b 139 597 28 549 76 597 b 171 593 150 597 161 596 b 167 625 168 603 167 614 b 278 736 167 688 215 736 b 389 625 340 736 389 688 b 385 593 389 614 388 603 b 417 597 394 596 406 597 m 246 454 b 278 458 256 457 267 458 b 310 454 289 458 300 457 b 306 486 307 464 306 475 b 310 518 306 497 307 508 b 278 514 300 515 289 514 b 246 518 267 514 256 515 b 250 486 249 508 250 497 b 246 454 250 475 249 464 "},"À":{"ha":556,"x_min":0,"x_max":0,"o":"m 139 931 b 28 1042 76 931 28 979 b 139 1153 28 1104 76 1153 b 250 1042 201 1153 250 1104 b 246 1010 250 1031 249 1019 b 278 1014 256 1013 267 1014 b 389 903 340 1014 389 965 b 278 792 389 840 340 792 b 167 903 215 792 167 840 b 171 935 167 914 168 925 b 139 931 161 932 150 931 m 504 417 b 528 347 519 397 528 374 b 504 278 528 321 519 297 b 528 208 519 258 528 235 b 504 139 528 182 519 158 b 528 69 519 119 528 96 b 417 -42 528 7 479 -42 b 306 69 354 -42 306 7 b 329 139 306 96 314 119 b 306 208 314 158 306 182 b 310 240 306 219 307 231 b 278 236 300 238 289 236 b 246 240 267 236 256 238 b 250 208 249 231 250 219 b 226 139 250 182 242 158 b 250 69 242 119 250 96 b 139 -42 250 7 201 -42 b 28 69 76 -42 28 7 b 51 139 28 96 36 119 b 28 208 36 158 28 182 b 51 278 28 235 36 258 b 28 347 36 297 28 321 b 51 417 28 374 36 397 b 28 486 36 436 28 460 b 139 597 28 549 76 597 b 171 593 150 597 161 596 b 167 625 168 603 167 614 b 278 736 167 688 215 736 b 389 625 340 736 389 688 b 385 593 389 614 388 603 b 417 597 394 596 406 597 b 528 486 479 597 528 549 b 504 417 528 460 519 436 m 246 454 b 278 458 256 457 267 458 b 310 454 289 458 300 457 b 306 486 307 464 306 475 b 310 518 306 497 307 508 b 278 514 300 515 289 514 b 246 518 267 514 256 515 b 250 486 249 508 250 497 b 246 454 250 475 249 464 "},"Ā":{"ha":556,"x_min":0,"x_max":0,"o":"m 139 792 b 28 903 76 792 28 840 b 139 1014 28 965 76 1014 b 208 990 165 1014 189 1006 b 278 1014 228 1006 251 1014 b 347 990 304 1014 328 1006 b 417 1014 367 1006 390 1014 b 528 903 479 1014 528 965 b 417 792 528 840 479 792 b 347 815 390 792 367 800 b 278 792 328 800 304 792 b 208 815 251 792 228 800 b 139 792 189 800 165 792 m 417 597 b 528 486 479 597 528 549 b 504 417 528 460 519 436 b 528 347 519 397 528 374 b 504 278 528 321 519 297 b 528 208 519 258 528 235 b 504 139 528 182 519 158 b 528 69 519 119 528 96 b 417 -42 528 7 479 -42 b 306 69 354 -42 306 7 b 329 139 306 96 314 119 b 306 208 314 158 306 182 b 310 240 306 219 307 231 b 278 236 300 238 289 236 b 246 240 267 236 256 238 b 250 208 249 231 250 219 b 226 139 250 182 242 158 b 250 69 242 119 250 96 b 139 -42 250 7 201 -42 b 28 69 76 -42 28 7 b 51 139 28 96 36 119 b 28 208 36 158 28 182 b 51 278 28 235 36 258 b 28 347 36 297 28 321 b 51 417 28 374 36 397 b 28 486 36 436 28 460 b 139 597 28 549 76 597 b 171 593 150 597 161 596 b 167 625 168 603 167 614 b 278 736 167 688 215 736 b 389 625 340 736 389 688 b 385 593 389 614 388 603 b 417 597 394 596 406 597 m 246 454 b 278 458 256 457 267 458 b 310 454 289 458 300 457 b 306 486 307 464 306 475 b 310 518 306 497 307 508 b 278 514 300 515 289 514 b 246 518 267 514 256 515 b 250 486 249 508 250 497 b 246 454 250 475 249 464 "},"Ą":{"ha":556,"x_min":0,"x_max":0,"o":"m 504 417 b 528 347 519 397 528 374 b 504 278 528 321 519 297 b 528 208 519 258 528 235 b 504 139 528 182 519 158 b 528 69 519 119 528 96 b 417 -42 528 7 479 -42 b 385 -37 406 -42 394 -40 b 389 -69 388 -47 389 -58 b 385 -101 389 -81 388 -92 b 417 -97 394 -99 406 -97 b 528 -208 479 -97 528 -146 b 417 -319 528 -271 479 -319 b 347 -296 390 -319 367 -311 b 278 -319 328 -311 304 -319 b 167 -208 215 -319 167 -271 b 190 -139 167 -182 175 -158 b 167 -69 175 -119 167 -96 b 171 -37 167 -58 168 -47 b 139 -42 161 -40 150 -42 b 28 69 76 -42 28 7 b 51 139 28 96 36 119 b 28 208 36 158 28 182 b 51 278 28 235 36 258 b 28 347 36 297 28 321 b 51 417 28 374 36 397 b 28 486 36 436 28 460 b 139 597 28 549 76 597 b 171 593 150 597 161 596 b 167 625 168 603 167 614 b 278 736 167 688 215 736 b 389 625 340 736 389 688 b 385 593 389 614 388 603 b 417 597 394 596 406 597 b 528 486 479 597 528 549 b 504 417 528 460 519 436 m 310 518 b 278 514 300 515 289 514 b 246 518 267 514 256 515 b 250 486 249 508 250 497 b 246 454 250 475 249 464 b 278 458 256 457 267 458 b 310 454 289 458 300 457 b 306 486 307 464 306 475 b 310 518 306 497 307 508 m 246 38 b 278 42 256 40 267 42 b 310 38 289 42 300 40 b 306 69 307 47 306 58 b 329 139 306 96 314 119 b 306 208 314 158 306 182 b 310 240 306 219 307 231 b 278 236 300 238 289 236 b 246 240 267 236 256 238 b 250 208 249 231 250 219 b 226 139 250 182 242 158 b 250 69 242 119 250 96 b 246 38 250 58 249 47 "},"Å":{"ha":556,"x_min":0,"x_max":0,"o":"m 417 597 b 528 486 479 597 528 549 b 504 417 528 460 519 436 b 528 347 519 397 528 374 b 504 278 528 321 519 297 b 528 208 519 258 528 235 b 504 139 528 182 519 158 b 528 69 519 119 528 96 b 417 -42 528 7 479 -42 b 306 69 354 -42 306 7 b 329 139 306 96 314 119 b 306 208 314 158 306 182 b 310 240 306 219 307 231 b 278 236 300 238 289 236 b 246 240 267 236 256 238 b 250 208 249 231 250 219 b 226 139 250 182 242 158 b 250 69 242 119 250 96 b 139 -42 250 7 201 -42 b 28 69 76 -42 28 7 b 51 139 28 96 36 119 b 28 208 36 158 28 182 b 51 278 28 235 36 258 b 28 347 36 297 28 321 b 51 417 28 374 36 397 b 28 486 36 436 28 460 b 139 597 28 549 76 597 b 171 593 150 597 161 596 b 167 625 168 603 167 614 b 171 657 167 636 168 647 b 139 653 161 654 150 653 b 28 764 76 653 28 701 b 139 875 28 826 76 875 b 171 871 150 875 161 874 b 167 903 168 881 167 892 b 278 1014 167 965 215 1014 b 389 903 340 1014 389 965 b 385 871 389 892 388 881 b 417 875 394 874 406 875 b 528 764 479 875 528 826 b 417 653 528 701 479 653 b 385 657 406 653 394 654 b 389 625 388 647 389 636 b 385 593 389 614 388 603 b 417 597 394 596 406 597 m 310 796 b 278 792 300 793 289 792 b 246 796 267 792 256 793 b 250 764 249 786 250 775 b 246 732 250 753 249 742 b 278 736 256 735 267 736 b 310 732 289 736 300 735 b 306 764 307 742 306 753 b 310 796 306 775 307 786 m 246 454 b 278 458 256 457 267 458 b 310 454 289 458 300 457 b 306 486 307 464 306 475 b 310 518 306 497 307 508 b 278 514 300 515 289 514 b 246 518 267 514 256 515 b 250 486 249 508 250 497 b 246 454 250 475 249 464 "},"Ã":{"ha":556,"x_min":0,"x_max":0,"o":"m 556 1153 b 667 1042 618 1153 667 1104 b 556 931 667 979 618 931 b 524 935 544 931 533 932 b 528 903 526 925 528 914 b 417 792 528 840 479 792 b 306 903 354 792 306 840 b 310 935 306 914 307 925 b 278 931 300 932 289 931 b 246 935 267 931 256 932 b 250 903 249 925 250 914 b 139 792 250 840 201 792 b 28 903 76 792 28 840 b 139 1014 28 965 76 1014 b 171 1010 150 1014 161 1013 b 167 1042 168 1019 167 1031 b 278 1153 167 1104 215 1153 b 389 1042 340 1153 389 1104 b 385 1010 389 1031 388 1019 b 417 1014 394 1013 406 1014 b 449 1010 428 1014 439 1013 b 444 1042 446 1019 444 1031 b 556 1153 444 1104 493 1153 m 417 597 b 528 486 479 597 528 549 b 504 417 528 460 519 436 b 528 347 519 397 528 374 b 504 278 528 321 519 297 b 528 208 519 258 528 235 b 504 139 528 182 519 158 b 528 69 519 119 528 96 b 417 -42 528 7 479 -42 b 306 69 354 -42 306 7 b 329 139 306 96 314 119 b 306 208 314 158 306 182 b 310 240 306 219 307 231 b 278 236 300 238 289 236 b 246 240 267 236 256 238 b 250 208 249 231 250 219 b 226 139 250 182 242 158 b 250 69 242 119 250 96 b 139 -42 250 7 201 -42 b 28 69 76 -42 28 7 b 51 139 28 96 36 119 b 28 208 36 158 28 182 b 51 278 28 235 36 258 b 28 347 36 297 28 321 b 51 417 28 374 36 397 b 28 486 36 436 28 460 b 139 597 28 549 76 597 b 171 593 150 597 161 596 b 167 625 168 603 167 614 b 278 736 167 688 215 736 b 389 625 340 736 389 688 b 385 593 389 614 388 603 b 417 597 394 596 406 597 m 246 454 b 278 458 256 457 267 458 b 310 454 289 458 300 457 b 306 486 307 464 306 475 b 310 518 306 497 307 508 b 278 514 300 515 289 514 b 246 518 267 514 256 515 b 250 486 249 508 250 497 b 246 454 250 475 249 464 "},"Æ":{"ha":694,"x_min":0,"x_max":0,"o":"m 667 347 b 556 236 667 285 618 236 b 524 240 544 236 533 238 b 528 208 526 231 528 219 b 524 176 528 197 526 186 b 556 181 533 179 544 181 b 667 69 618 181 667 132 b 556 -42 667 7 618 -42 b 486 -18 529 -42 506 -33 b 417 -42 467 -33 443 -42 b 306 69 354 -42 306 7 b 329 139 306 96 314 119 b 306 208 314 158 306 182 b 310 240 306 219 307 231 b 278 236 300 238 289 236 b 246 240 267 236 256 238 b 250 208 249 231 250 219 b 226 139 250 182 242 158 b 250 69 242 119 250 96 b 139 -42 250 7 201 -42 b 28 69 76 -42 28 7 b 51 139 28 96 36 119 b 28 208 36 158 28 182 b 51 278 28 235 36 258 b 28 347 36 297 28 321 b 51 417 28 374 36 397 b 28 486 36 436 28 460 b 139 597 28 549 76 597 b 171 593 150 597 161 596 b 167 625 168 603 167 614 b 278 736 167 688 215 736 b 347 713 304 736 328 728 b 417 736 367 728 390 736 b 486 713 443 736 467 728 b 556 736 506 728 529 736 b 667 625 618 736 667 688 b 556 514 667 563 618 514 b 524 518 544 514 533 515 b 528 486 526 508 528 497 b 524 454 528 475 526 464 b 556 458 533 457 544 458 b 667 347 618 458 667 410 m 246 454 b 278 458 256 457 267 458 b 310 454 289 458 300 457 b 306 486 307 464 306 475 b 310 518 306 497 307 508 b 278 514 300 515 289 514 b 246 518 267 514 256 515 b 250 486 249 508 250 497 b 246 454 250 475 249 464 "},"B":{"ha":556,"x_min":0,"x_max":0,"o":"m 417 319 b 528 208 479 319 528 271 b 417 97 528 146 479 97 b 385 101 406 97 394 99 b 389 69 388 92 389 81 b 278 -42 389 7 340 -42 b 208 -18 251 -42 228 -33 b 139 -42 189 -33 165 -42 b 28 69 76 -42 28 7 b 51 139 28 96 36 119 b 28 208 36 158 28 182 b 51 278 28 235 36 258 b 28 347 36 297 28 321 b 51 417 28 374 36 397 b 28 486 36 436 28 460 b 51 556 28 513 36 536 b 28 625 36 575 28 599 b 139 736 28 688 76 736 b 208 713 165 736 189 728 b 278 736 228 728 251 736 b 389 625 340 736 389 688 b 385 593 389 614 388 603 b 417 597 394 596 406 597 b 528 486 479 597 528 549 b 417 375 528 424 479 375 b 385 379 406 375 394 376 b 389 347 388 369 389 358 b 385 315 389 336 388 325 b 417 319 394 318 406 319 m 310 518 b 278 514 300 515 289 514 b 246 518 267 514 256 515 b 250 486 249 508 250 497 b 246 454 250 475 249 464 b 278 458 256 457 267 458 b 310 454 289 458 300 457 b 306 486 307 464 306 475 b 310 518 306 497 307 508 m 246 176 b 278 181 256 179 267 181 b 310 176 289 181 300 179 b 306 208 307 186 306 197 b 310 240 306 219 307 231 b 278 236 300 238 289 236 b 246 240 267 236 256 238 b 250 208 249 231 250 219 b 246 176 250 197 249 186 "},"C":{"ha":556,"x_min":0,"x_max":0,"o":"m 417 319 b 528 208 479 319 528 271 b 417 97 528 146 479 97 b 385 101 406 97 394 99 b 389 69 388 92 389 81 b 278 -42 389 7 340 -42 b 167 69 215 -42 167 7 b 171 101 167 81 168 92 b 139 97 161 99 150 97 b 28 208 76 97 28 146 b 51 278 28 235 36 258 b 28 347 36 297 28 321 b 51 417 28 374 36 397 b 28 486 36 436 28 460 b 139 597 28 549 76 597 b 171 593 150 597 161 596 b 167 625 168 603 167 614 b 278 736 167 688 215 736 b 389 625 340 736 389 688 b 385 593 389 614 388 603 b 417 597 394 596 406 597 b 528 486 479 597 528 549 b 417 375 528 424 479 375 b 306 486 354 375 306 424 b 310 518 306 497 307 508 b 278 514 300 515 289 514 b 246 518 267 514 256 515 b 250 486 249 508 250 497 b 226 417 250 460 242 436 b 250 347 242 397 250 374 b 226 278 250 321 242 297 b 250 208 242 258 250 235 b 246 176 250 197 249 186 b 278 181 256 179 267 181 b 310 176 289 181 300 179 b 306 208 307 186 306 197 b 417 319 306 271 354 319 "},"Ć":{"ha":556,"x_min":0,"x_max":0,"o":"m 278 792 b 167 903 215 792 167 840 b 278 1014 167 965 215 1014 b 310 1010 289 1014 300 1013 b 306 1042 307 1019 306 1031 b 417 1153 306 1104 354 1153 b 528 1042 479 1153 528 1104 b 417 931 528 979 479 931 b 385 935 406 931 394 932 b 389 903 388 925 389 914 b 278 792 389 840 340 792 m 417 375 b 306 486 354 375 306 424 b 310 518 306 497 307 508 b 278 514 300 515 289 514 b 246 518 267 514 256 515 b 250 486 249 508 250 497 b 226 417 250 460 242 436 b 250 347 242 397 250 374 b 226 278 250 321 242 297 b 250 208 242 258 250 235 b 246 176 250 197 249 186 b 278 181 256 179 267 181 b 310 176 289 181 300 179 b 306 208 307 186 306 197 b 417 319 306 271 354 319 b 528 208 479 319 528 271 b 417 97 528 146 479 97 b 385 101 406 97 394 99 b 389 69 388 92 389 81 b 278 -42 389 7 340 -42 b 167 69 215 -42 167 7 b 171 101 167 81 168 92 b 139 97 161 99 150 97 b 28 208 76 97 28 146 b 51 278 28 235 36 258 b 28 347 36 297 28 321 b 51 417 28 374 36 397 b 28 486 36 436 28 460 b 139 597 28 549 76 597 b 171 593 150 597 161 596 b 167 625 168 603 167 614 b 278 736 167 688 215 736 b 389 625 340 736 389 688 b 385 593 389 614 388 603 b 417 597 394 596 406 597 b 528 486 479 597 528 549 b 417 375 528 424 479 375 "},"Č":{"ha":556,"x_min":0,"x_max":0,"o":"m 139 931 b 28 1042 76 931 28 979 b 139 1153 28 1104 76 1153 b 250 1042 201 1153 250 1104 b 246 1010 250 1031 249 1019 b 278 1014 256 1013 267 1014 b 310 1010 289 1014 300 1013 b 306 1042 307 1019 306 1031 b 417 1153 306 1104 354 1153 b 528 1042 479 1153 528 1104 b 417 931 528 979 479 931 b 385 935 406 931 394 932 b 389 903 388 925 389 914 b 278 792 389 840 340 792 b 167 903 215 792 167 840 b 171 935 167 914 168 925 b 139 931 161 932 150 931 m 417 375 b 306 486 354 375 306 424 b 310 518 306 497 307 508 b 278 514 300 515 289 514 b 246 518 267 514 256 515 b 250 486 249 508 250 497 b 226 417 250 460 242 436 b 250 347 242 397 250 374 b 226 278 250 321 242 297 b 250 208 242 258 250 235 b 246 176 250 197 249 186 b 278 181 256 179 267 181 b 310 176 289 181 300 179 b 306 208 307 186 306 197 b 417 319 306 271 354 319 b 528 208 479 319 528 271 b 417 97 528 146 479 97 b 385 101 406 97 394 99 b 389 69 388 92 389 81 b 278 -42 389 7 340 -42 b 167 69 215 -42 167 7 b 171 101 167 81 168 92 b 139 97 161 99 150 97 b 28 208 76 97 28 146 b 51 278 28 235 36 258 b 28 347 36 297 28 321 b 51 417 28 374 36 397 b 28 486 36 436 28 460 b 139 597 28 549 76 597 b 171 593 150 597 161 596 b 167 625 168 603 167 614 b 278 736 167 688 215 736 b 389 625 340 736 389 688 b 385 593 389 614 388 603 b 417 597 394 596 406 597 b 528 486 479 597 528 549 b 417 375 528 424 479 375 "},"Ç":{"ha":556,"x_min":0,"x_max":0,"o":"m 417 319 b 528 208 479 319 528 271 b 417 97 528 146 479 97 b 385 101 406 97 394 99 b 389 69 388 92 389 81 b 365 0 389 43 381 19 b 389 -69 381 -19 389 -43 b 278 -181 389 -132 340 -181 b 208 -157 251 -181 228 -172 b 139 -181 189 -172 165 -181 b 28 -69 76 -181 28 -132 b 139 42 28 -7 76 42 b 171 38 150 42 161 40 b 167 69 168 47 167 58 b 171 101 167 81 168 92 b 139 97 161 99 150 97 b 28 208 76 97 28 146 b 51 278 28 235 36 258 b 28 347 36 297 28 321 b 51 417 28 374 36 397 b 28 486 36 436 28 460 b 139 597 28 549 76 597 b 171 593 150 597 161 596 b 167 625 168 603 167 614 b 278 736 167 688 215 736 b 389 625 340 736 389 688 b 385 593 389 614 388 603 b 417 597 394 596 406 597 b 528 486 479 597 528 549 b 417 375 528 424 479 375 b 306 486 354 375 306 424 b 310 518 306 497 307 508 b 278 514 300 515 289 514 b 246 518 267 514 256 515 b 250 486 249 508 250 497 b 226 417 250 460 242 436 b 250 347 242 397 250 374 b 226 278 250 321 242 297 b 250 208 242 258 250 235 b 246 176 250 197 249 186 b 278 181 256 179 267 181 b 310 176 289 181 300 179 b 306 208 307 186 306 197 b 417 319 306 271 354 319 "},"Ċ":{"ha":556,"x_min":0,"x_max":0,"o":"m 278 792 b 167 903 215 792 167 840 b 278 1014 167 965 215 1014 b 389 903 340 1014 389 965 b 278 792 389 840 340 792 m 417 319 b 528 208 479 319 528 271 b 417 97 528 146 479 97 b 385 101 406 97 394 99 b 389 69 388 92 389 81 b 278 -42 389 7 340 -42 b 167 69 215 -42 167 7 b 171 101 167 81 168 92 b 139 97 161 99 150 97 b 28 208 76 97 28 146 b 51 278 28 235 36 258 b 28 347 36 297 28 321 b 51 417 28 374 36 397 b 28 486 36 436 28 460 b 139 597 28 549 76 597 b 171 593 150 597 161 596 b 167 625 168 603 167 614 b 278 736 167 688 215 736 b 389 625 340 736 389 688 b 385 593 389 614 388 603 b 417 597 394 596 406 597 b 528 486 479 597 528 549 b 417 375 528 424 479 375 b 306 486 354 375 306 424 b 310 518 306 497 307 508 b 278 514 300 515 289 514 b 246 518 267 514 256 515 b 250 486 249 508 250 497 b 226 417 250 460 242 436 b 250 347 242 397 250 374 b 226 278 250 321 242 297 b 250 208 242 258 250 235 b 246 176 250 197 249 186 b 278 181 256 179 267 181 b 310 176 289 181 300 179 b 306 208 307 186 306 197 b 417 319 306 271 354 319 "},"D":{"ha":556,"x_min":0,"x_max":0,"o":"m 504 417 b 528 347 519 397 528 374 b 504 278 528 321 519 297 b 528 208 519 258 528 235 b 417 97 528 146 479 97 b 385 101 406 97 394 99 b 389 69 388 92 389 81 b 278 -42 389 7 340 -42 b 208 -18 251 -42 228 -33 b 139 -42 189 -33 165 -42 b 28 69 76 -42 28 7 b 51 139 28 96 36 119 b 28 208 36 158 28 182 b 51 278 28 235 36 258 b 28 347 36 297 28 321 b 51 417 28 374 36 397 b 28 486 36 436 28 460 b 51 556 28 513 36 536 b 28 625 36 575 28 599 b 139 736 28 688 76 736 b 208 713 165 736 189 728 b 278 736 228 728 251 736 b 389 625 340 736 389 688 b 385 593 389 614 388 603 b 417 597 394 596 406 597 b 528 486 479 597 528 549 b 504 417 528 460 519 436 m 246 176 b 278 181 256 179 267 181 b 310 176 289 181 300 179 b 306 208 307 186 306 197 b 329 278 306 235 314 258 b 306 347 314 297 306 321 b 329 417 306 374 314 397 b 306 486 314 436 306 460 b 310 518 306 497 307 508 b 278 514 300 515 289 514 b 246 518 267 514 256 515 b 250 486 249 508 250 497 b 226 417 250 460 242 436 b 250 347 242 397 250 374 b 226 278 250 321 242 297 b 250 208 242 258 250 235 b 246 176 250 197 249 186 "},"Ð":{"ha":694,"x_min":0,"x_max":0,"o":"m 643 417 b 667 347 658 397 667 374 b 643 278 667 321 658 297 b 667 208 658 258 667 235 b 556 97 667 146 618 97 b 524 101 544 97 533 99 b 528 69 526 92 528 81 b 417 -42 528 7 479 -42 b 347 -18 390 -42 367 -33 b 278 -42 328 -33 304 -42 b 167 69 215 -42 167 7 b 190 139 167 96 175 119 b 167 208 175 158 167 182 b 171 240 167 219 168 231 b 139 236 161 238 150 236 b 28 347 76 236 28 285 b 139 458 28 410 76 458 b 171 454 150 458 161 457 b 167 486 168 464 167 475 b 190 556 167 513 175 536 b 167 625 175 575 167 599 b 278 736 167 688 215 736 b 347 713 304 736 328 728 b 417 736 367 728 390 736 b 528 625 479 736 528 688 b 524 593 528 614 526 603 b 556 597 533 596 544 597 b 667 486 618 597 667 549 b 643 417 667 460 658 436 m 385 176 b 417 181 394 179 406 181 b 449 176 428 181 439 179 b 444 208 446 186 444 197 b 468 278 444 235 453 258 b 444 347 453 297 444 321 b 468 417 444 374 453 397 b 444 486 453 436 444 460 b 449 518 444 497 446 508 b 417 514 439 515 428 514 b 385 518 406 514 394 515 b 389 486 388 508 389 497 b 365 417 389 460 381 436 b 389 347 381 397 389 374 b 365 278 389 321 381 297 b 389 208 381 258 389 235 b 385 176 389 197 388 186 "},"Ď":{"ha":556,"x_min":0,"x_max":0,"o":"m 139 931 b 28 1042 76 931 28 979 b 139 1153 28 1104 76 1153 b 250 1042 201 1153 250 1104 b 246 1010 250 1031 249 1019 b 278 1014 256 1013 267 1014 b 310 1010 289 1014 300 1013 b 306 1042 307 1019 306 1031 b 417 1153 306 1104 354 1153 b 528 1042 479 1153 528 1104 b 417 931 528 979 479 931 b 385 935 406 931 394 932 b 389 903 388 925 389 914 b 278 792 389 840 340 792 b 167 903 215 792 167 840 b 171 935 167 914 168 925 b 139 931 161 932 150 931 m 417 597 b 528 486 479 597 528 549 b 504 417 528 460 519 436 b 528 347 519 397 528 374 b 504 278 528 321 519 297 b 528 208 519 258 528 235 b 417 97 528 146 479 97 b 385 101 406 97 394 99 b 389 69 388 92 389 81 b 278 -42 389 7 340 -42 b 208 -18 251 -42 228 -33 b 139 -42 189 -33 165 -42 b 28 69 76 -42 28 7 b 51 139 28 96 36 119 b 28 208 36 158 28 182 b 51 278 28 235 36 258 b 28 347 36 297 28 321 b 51 417 28 374 36 397 b 28 486 36 436 28 460 b 51 556 28 513 36 536 b 28 625 36 575 28 599 b 139 736 28 688 76 736 b 208 713 165 736 189 728 b 278 736 228 728 251 736 b 389 625 340 736 389 688 b 385 593 389 614 388 603 b 417 597 394 596 406 597 m 246 176 b 278 181 256 179 267 181 b 310 176 289 181 300 179 b 306 208 307 186 306 197 b 329 278 306 235 314 258 b 306 347 314 297 306 321 b 329 417 306 374 314 397 b 306 486 314 436 306 460 b 310 518 306 497 307 508 b 278 514 300 515 289 514 b 246 518 267 514 256 515 b 250 486 249 508 250 497 b 226 417 250 460 242 436 b 250 347 242 397 250 374 b 226 278 250 321 242 297 b 250 208 242 258 250 235 b 246 176 250 197 249 186 "},"Đ":{"ha":694,"x_min":0,"x_max":0,"o":"m 643 417 b 667 347 658 397 667 374 b 643 278 667 321 658 297 b 667 208 658 258 667 235 b 556 97 667 146 618 97 b 524 101 544 97 533 99 b 528 69 526 92 528 81 b 417 -42 528 7 479 -42 b 347 -18 390 -42 367 -33 b 278 -42 328 -33 304 -42 b 167 69 215 -42 167 7 b 190 139 167 96 175 119 b 167 208 175 158 167 182 b 171 240 167 219 168 231 b 139 236 161 238 150 236 b 28 347 76 236 28 285 b 139 458 28 410 76 458 b 171 454 150 458 161 457 b 167 486 168 464 167 475 b 190 556 167 513 175 536 b 167 625 175 575 167 599 b 278 736 167 688 215 736 b 347 713 304 736 328 728 b 417 736 367 728 390 736 b 528 625 479 736 528 688 b 524 593 528 614 526 603 b 556 597 533 596 544 597 b 667 486 618 597 667 549 b 643 417 667 460 658 436 m 385 176 b 417 181 394 179 406 181 b 449 176 428 181 439 179 b 444 208 446 186 444 197 b 468 278 444 235 453 258 b 444 347 453 297 444 321 b 468 417 444 374 453 397 b 444 486 453 436 444 460 b 449 518 444 497 446 508 b 417 514 439 515 428 514 b 385 518 406 514 394 515 b 389 486 388 508 389 497 b 365 417 389 460 381 436 b 389 347 381 397 389 374 b 365 278 389 321 381 297 b 389 208 381 258 389 235 b 385 176 389 197 388 186 "},"E":{"ha":417,"x_min":0,"x_max":0,"o":"m 389 347 b 278 236 389 285 340 236 b 246 240 267 236 256 238 b 250 208 249 231 250 219 b 246 176 250 197 249 186 b 278 181 256 179 267 181 b 389 69 340 181 389 132 b 278 -42 389 7 340 -42 b 208 -18 251 -42 228 -33 b 139 -42 189 -33 165 -42 b 28 69 76 -42 28 7 b 51 139 28 96 36 119 b 28 208 36 158 28 182 b 51 278 28 235 36 258 b 28 347 36 297 28 321 b 51 417 28 374 36 397 b 28 486 36 436 28 460 b 51 556 28 513 36 536 b 28 625 36 575 28 599 b 139 736 28 688 76 736 b 208 713 165 736 189 728 b 278 736 228 728 251 736 b 389 625 340 736 389 688 b 278 514 389 563 340 514 b 246 518 267 514 256 515 b 250 486 249 508 250 497 b 246 454 250 475 249 464 b 278 458 256 457 267 458 b 389 347 340 458 389 410 "},"É":{"ha":417,"x_min":0,"x_max":0,"o":"m 139 792 b 28 903 76 792 28 840 b 139 1014 28 965 76 1014 b 171 1010 150 1014 161 1013 b 167 1042 168 1019 167 1031 b 278 1153 167 1104 215 1153 b 389 1042 340 1153 389 1104 b 278 931 389 979 340 931 b 246 935 267 931 256 932 b 250 903 249 925 250 914 b 139 792 250 840 201 792 m 389 625 b 278 514 389 563 340 514 b 246 518 267 514 256 515 b 250 486 249 508 250 497 b 246 454 250 475 249 464 b 278 458 256 457 267 458 b 389 347 340 458 389 410 b 278 236 389 285 340 236 b 246 240 267 236 256 238 b 250 208 249 231 250 219 b 246 176 250 197 249 186 b 278 181 256 179 267 181 b 389 69 340 181 389 132 b 278 -42 389 7 340 -42 b 208 -18 251 -42 228 -33 b 139 -42 189 -33 165 -42 b 28 69 76 -42 28 7 b 51 139 28 96 36 119 b 28 208 36 158 28 182 b 51 278 28 235 36 258 b 28 347 36 297 28 321 b 51 417 28 374 36 397 b 28 486 36 436 28 460 b 51 556 28 513 36 536 b 28 625 36 575 28 599 b 139 736 28 688 76 736 b 208 713 165 736 189 728 b 278 736 228 728 251 736 b 389 625 340 736 389 688 "},"Ě":{"ha":417,"x_min":0,"x_max":0,"o":"m 28 903 b 32 935 28 914 29 925 b 0 931 22 932 11 931 b -111 1042 -62 931 -111 979 b 0 1153 -111 1104 -62 1153 b 111 1042 63 1153 111 1104 b 107 1010 111 1031 110 1019 b 139 1014 117 1013 128 1014 b 171 1010 150 1014 161 1013 b 167 1042 168 1019 167 1031 b 278 1153 167 1104 215 1153 b 389 1042 340 1153 389 1104 b 278 931 389 979 340 931 b 246 935 267 931 256 932 b 250 903 249 925 250 914 b 139 792 250 840 201 792 b 28 903 76 792 28 840 m 389 625 b 278 514 389 563 340 514 b 246 518 267 514 256 515 b 250 486 249 508 250 497 b 246 454 250 475 249 464 b 278 458 256 457 267 458 b 389 347 340 458 389 410 b 278 236 389 285 340 236 b 246 240 267 236 256 238 b 250 208 249 231 250 219 b 246 176 250 197 249 186 b 278 181 256 179 267 181 b 389 69 340 181 389 132 b 278 -42 389 7 340 -42 b 208 -18 251 -42 228 -33 b 139 -42 189 -33 165 -42 b 28 69 76 -42 28 7 b 51 139 28 96 36 119 b 28 208 36 158 28 182 b 51 278 28 235 36 258 b 28 347 36 297 28 321 b 51 417 28 374 36 397 b 28 486 36 436 28 460 b 51 556 28 513 36 536 b 28 625 36 575 28 599 b 139 736 28 688 76 736 b 208 713 165 736 189 728 b 278 736 228 728 251 736 b 389 625 340 736 389 688 "},"Ê":{"ha":417,"x_min":0,"x_max":0,"o":"m 417 1014 b 528 903 479 1014 528 965 b 417 792 528 840 479 792 b 306 903 354 792 306 840 b 310 935 306 914 307 925 b 278 931 300 932 289 931 b 246 935 267 931 256 932 b 250 903 249 925 250 914 b 139 792 250 840 201 792 b 28 903 76 792 28 840 b 139 1014 28 965 76 1014 b 171 1010 150 1014 161 1013 b 167 1042 168 1019 167 1031 b 278 1153 167 1104 215 1153 b 389 1042 340 1153 389 1104 b 385 1010 389 1031 388 1019 b 417 1014 394 1013 406 1014 m 389 625 b 278 514 389 563 340 514 b 246 518 267 514 256 515 b 250 486 249 508 250 497 b 246 454 250 475 249 464 b 278 458 256 457 267 458 b 389 347 340 458 389 410 b 278 236 389 285 340 236 b 246 240 267 236 256 238 b 250 208 249 231 250 219 b 246 176 250 197 249 186 b 278 181 256 179 267 181 b 389 69 340 181 389 132 b 278 -42 389 7 340 -42 b 208 -18 251 -42 228 -33 b 139 -42 189 -33 165 -42 b 28 69 76 -42 28 7 b 51 139 28 96 36 119 b 28 208 36 158 28 182 b 51 278 28 235 36 258 b 28 347 36 297 28 321 b 51 417 28 374 36 397 b 28 486 36 436 28 460 b 51 556 28 513 36 536 b 28 625 36 575 28 599 b 139 736 28 688 76 736 b 208 713 165 736 189 728 b 278 736 228 728 251 736 b 389 625 340 736 389 688 "},"Ë":{"ha":417,"x_min":0,"x_max":0,"o":"m 139 792 b 28 903 76 792 28 840 b 139 1014 28 965 76 1014 b 250 903 201 1014 250 965 b 139 792 250 840 201 792 m 417 1014 b 528 903 479 1014 528 965 b 417 792 528 840 479 792 b 306 903 354 792 306 840 b 417 1014 306 965 354 1014 m 389 625 b 278 514 389 563 340 514 b 246 518 267 514 256 515 b 250 486 249 508 250 497 b 246 454 250 475 249 464 b 278 458 256 457 267 458 b 389 347 340 458 389 410 b 278 236 389 285 340 236 b 246 240 267 236 256 238 b 250 208 249 231 250 219 b 246 176 250 197 249 186 b 278 181 256 179 267 181 b 389 69 340 181 389 132 b 278 -42 389 7 340 -42 b 208 -18 251 -42 228 -33 b 139 -42 189 -33 165 -42 b 28 69 76 -42 28 7 b 51 139 28 96 36 119 b 28 208 36 158 28 182 b 51 278 28 235 36 258 b 28 347 36 297 28 321 b 51 417 28 374 36 397 b 28 486 36 436 28 460 b 51 556 28 513 36 536 b 28 625 36 575 28 599 b 139 736 28 688 76 736 b 208 713 165 736 189 728 b 278 736 228 728 251 736 b 389 625 340 736 389 688 "},"Ė":{"ha":417,"x_min":0,"x_max":0,"o":"m 139 792 b 28 903 76 792 28 840 b 139 1014 28 965 76 1014 b 250 903 201 1014 250 965 b 139 792 250 840 201 792 m 389 347 b 278 236 389 285 340 236 b 246 240 267 236 256 238 b 250 208 249 231 250 219 b 246 176 250 197 249 186 b 278 181 256 179 267 181 b 389 69 340 181 389 132 b 278 -42 389 7 340 -42 b 208 -18 251 -42 228 -33 b 139 -42 189 -33 165 -42 b 28 69 76 -42 28 7 b 51 139 28 96 36 119 b 28 208 36 158 28 182 b 51 278 28 235 36 258 b 28 347 36 297 28 321 b 51 417 28 374 36 397 b 28 486 36 436 28 460 b 51 556 28 513 36 536 b 28 625 36 575 28 599 b 139 736 28 688 76 736 b 208 713 165 736 189 728 b 278 736 228 728 251 736 b 389 625 340 736 389 688 b 278 514 389 563 340 514 b 246 518 267 514 256 515 b 250 486 249 508 250 497 b 246 454 250 475 249 464 b 278 458 256 457 267 458 b 389 347 340 458 389 410 "},"È":{"ha":417,"x_min":0,"x_max":0,"o":"m 139 931 b 28 1042 76 931 28 979 b 139 1153 28 1104 76 1153 b 250 1042 201 1153 250 1104 b 246 1010 250 1031 249 1019 b 278 1014 256 1013 267 1014 b 389 903 340 1014 389 965 b 278 792 389 840 340 792 b 167 903 215 792 167 840 b 171 935 167 914 168 925 b 139 931 161 932 150 931 m 389 625 b 278 514 389 563 340 514 b 246 518 267 514 256 515 b 250 486 249 508 250 497 b 246 454 250 475 249 464 b 278 458 256 457 267 458 b 389 347 340 458 389 410 b 278 236 389 285 340 236 b 246 240 267 236 256 238 b 250 208 249 231 250 219 b 246 176 250 197 249 186 b 278 181 256 179 267 181 b 389 69 340 181 389 132 b 278 -42 389 7 340 -42 b 208 -18 251 -42 228 -33 b 139 -42 189 -33 165 -42 b 28 69 76 -42 28 7 b 51 139 28 96 36 119 b 28 208 36 158 28 182 b 51 278 28 235 36 258 b 28 347 36 297 28 321 b 51 417 28 374 36 397 b 28 486 36 436 28 460 b 51 556 28 513 36 536 b 28 625 36 575 28 599 b 139 736 28 688 76 736 b 208 713 165 736 189 728 b 278 736 228 728 251 736 b 389 625 340 736 389 688 "},"Ē":{"ha":417,"x_min":0,"x_max":0,"o":"m 417 1014 b 528 903 479 1014 528 965 b 417 792 528 840 479 792 b 347 815 390 792 367 800 b 278 792 328 800 304 792 b 208 815 251 792 228 800 b 139 792 189 800 165 792 b 28 903 76 792 28 840 b 139 1014 28 965 76 1014 b 208 990 165 1014 189 1006 b 278 1014 228 1006 251 1014 b 347 990 304 1014 328 1006 b 417 1014 367 1006 390 1014 m 389 625 b 278 514 389 563 340 514 b 246 518 267 514 256 515 b 250 486 249 508 250 497 b 246 454 250 475 249 464 b 278 458 256 457 267 458 b 389 347 340 458 389 410 b 278 236 389 285 340 236 b 246 240 267 236 256 238 b 250 208 249 231 250 219 b 246 176 250 197 249 186 b 278 181 256 179 267 181 b 389 69 340 181 389 132 b 278 -42 389 7 340 -42 b 208 -18 251 -42 228 -33 b 139 -42 189 -33 165 -42 b 28 69 76 -42 28 7 b 51 139 28 96 36 119 b 28 208 36 158 28 182 b 51 278 28 235 36 258 b 28 347 36 297 28 321 b 51 417 28 374 36 397 b 28 486 36 436 28 460 b 51 556 28 513 36 536 b 28 625 36 575 28 599 b 139 736 28 688 76 736 b 208 713 165 736 189 728 b 278 736 228 728 251 736 b 389 625 340 736 389 688 "},"Ę":{"ha":417,"x_min":0,"x_max":0,"o":"m 417 -97 b 528 -208 479 -97 528 -146 b 417 -319 528 -271 479 -319 b 347 -296 390 -319 367 -311 b 278 -319 328 -311 304 -319 b 167 -208 215 -319 167 -271 b 190 -139 167 -182 175 -158 b 167 -69 175 -119 167 -96 b 171 -37 167 -58 168 -47 b 139 -42 161 -40 150 -42 b 28 69 76 -42 28 7 b 51 139 28 96 36 119 b 28 208 36 158 28 182 b 51 278 28 235 36 258 b 28 347 36 297 28 321 b 51 417 28 374 36 397 b 28 486 36 436 28 460 b 51 556 28 513 36 536 b 28 625 36 575 28 599 b 139 736 28 688 76 736 b 208 713 165 736 189 728 b 278 736 228 728 251 736 b 389 625 340 736 389 688 b 278 514 389 563 340 514 b 246 518 267 514 256 515 b 250 486 249 508 250 497 b 246 454 250 475 249 464 b 278 458 256 457 267 458 b 389 347 340 458 389 410 b 278 236 389 285 340 236 b 246 240 267 236 256 238 b 250 208 249 231 250 219 b 246 176 250 197 249 186 b 278 181 256 179 267 181 b 389 69 340 181 389 132 b 365 0 389 43 381 19 b 389 -69 381 -19 389 -43 b 385 -101 389 -81 388 -92 b 417 -97 394 -99 406 -97 "},"F":{"ha":417,"x_min":0,"x_max":0,"o":"m 278 458 b 389 347 340 458 389 410 b 278 236 389 285 340 236 b 246 240 267 236 256 238 b 250 208 249 231 250 219 b 226 139 250 182 242 158 b 250 69 242 119 250 96 b 139 -42 250 7 201 -42 b 28 69 76 -42 28 7 b 51 139 28 96 36 119 b 28 208 36 158 28 182 b 51 278 28 235 36 258 b 28 347 36 297 28 321 b 51 417 28 374 36 397 b 28 486 36 436 28 460 b 51 556 28 513 36 536 b 28 625 36 575 28 599 b 139 736 28 688 76 736 b 208 713 165 736 189 728 b 278 736 228 728 251 736 b 389 625 340 736 389 688 b 278 514 389 563 340 514 b 246 518 267 514 256 515 b 250 486 249 508 250 497 b 246 454 250 475 249 464 b 278 458 256 457 267 458 "},"G":{"ha":556,"x_min":0,"x_max":0,"o":"m 417 458 b 528 347 479 458 528 410 b 504 278 528 321 519 297 b 528 208 519 258 528 235 b 504 139 528 182 519 158 b 528 69 519 119 528 96 b 417 -42 528 7 479 -42 b 347 -18 390 -42 367 -33 b 278 -42 328 -33 304 -42 b 167 69 215 -42 167 7 b 171 101 167 81 168 92 b 139 97 161 99 150 97 b 28 208 76 97 28 146 b 51 278 28 235 36 258 b 28 347 36 297 28 321 b 51 417 28 374 36 397 b 28 486 36 436 28 460 b 139 597 28 549 76 597 b 171 593 150 597 161 596 b 167 625 168 603 167 614 b 278 736 167 688 215 736 b 347 713 304 736 328 728 b 417 736 367 728 390 736 b 528 625 479 736 528 688 b 417 514 528 563 479 514 b 347 538 390 514 367 522 b 278 514 328 522 304 514 b 246 518 267 514 256 515 b 250 486 249 508 250 497 b 226 417 250 460 242 436 b 250 347 242 397 250 374 b 226 278 250 321 242 297 b 250 208 242 258 250 235 b 246 176 250 197 249 186 b 278 181 256 179 267 181 b 310 176 289 181 300 179 b 306 208 307 186 306 197 b 329 278 306 235 314 258 b 306 347 314 297 306 321 b 417 458 306 410 354 458 "},"Ğ":{"ha":556,"x_min":0,"x_max":0,"o":"m 528 1042 b 504 972 528 1015 519 992 b 528 903 519 953 528 929 b 417 792 528 840 479 792 b 347 815 390 792 367 800 b 278 792 328 800 304 792 b 208 815 251 792 228 800 b 139 792 189 800 165 792 b 28 903 76 792 28 840 b 51 972 28 929 36 953 b 28 1042 36 992 28 1015 b 139 1153 28 1104 76 1153 b 250 1042 201 1153 250 1104 b 246 1010 250 1031 249 1019 b 278 1014 256 1013 267 1014 b 310 1010 289 1014 300 1013 b 306 1042 307 1019 306 1031 b 417 1153 306 1104 354 1153 b 528 1042 479 1153 528 1104 m 347 538 b 278 514 328 522 304 514 b 246 518 267 514 256 515 b 250 486 249 508 250 497 b 226 417 250 460 242 436 b 250 347 242 397 250 374 b 226 278 250 321 242 297 b 250 208 242 258 250 235 b 246 176 250 197 249 186 b 278 181 256 179 267 181 b 310 176 289 181 300 179 b 306 208 307 186 306 197 b 329 278 306 235 314 258 b 306 347 314 297 306 321 b 417 458 306 410 354 458 b 528 347 479 458 528 410 b 504 278 528 321 519 297 b 528 208 519 258 528 235 b 504 139 528 182 519 158 b 528 69 519 119 528 96 b 417 -42 528 7 479 -42 b 347 -18 390 -42 367 -33 b 278 -42 328 -33 304 -42 b 167 69 215 -42 167 7 b 171 101 167 81 168 92 b 139 97 161 99 150 97 b 28 208 76 97 28 146 b 51 278 28 235 36 258 b 28 347 36 297 28 321 b 51 417 28 374 36 397 b 28 486 36 436 28 460 b 139 597 28 549 76 597 b 171 593 150 597 161 596 b 167 625 168 603 167 614 b 278 736 167 688 215 736 b 347 713 304 736 328 728 b 417 736 367 728 390 736 b 528 625 479 736 528 688 b 417 514 528 563 479 514 b 347 538 390 514 367 522 "},"Ģ":{"ha":556,"x_min":0,"x_max":0,"o":"m 417 458 b 528 347 479 458 528 410 b 504 278 528 321 519 297 b 528 208 519 258 528 235 b 504 139 528 182 519 158 b 528 69 519 119 528 96 b 417 -42 528 7 479 -42 b 347 -18 390 -42 367 -33 b 278 -42 328 -33 304 -42 b 167 69 215 -42 167 7 b 171 101 167 81 168 92 b 139 97 161 99 150 97 b 28 208 76 97 28 146 b 51 278 28 235 36 258 b 28 347 36 297 28 321 b 51 417 28 374 36 397 b 28 486 36 436 28 460 b 139 597 28 549 76 597 b 171 593 150 597 161 596 b 167 625 168 603 167 614 b 278 736 167 688 215 736 b 347 713 304 736 328 728 b 417 736 367 728 390 736 b 528 625 479 736 528 688 b 417 514 528 563 479 514 b 347 538 390 514 367 522 b 278 514 328 522 304 514 b 246 518 267 514 256 515 b 250 486 249 508 250 497 b 226 417 250 460 242 436 b 250 347 242 397 250 374 b 226 278 250 321 242 297 b 250 208 242 258 250 235 b 246 176 250 197 249 186 b 278 181 256 179 267 181 b 310 176 289 181 300 179 b 306 208 307 186 306 197 b 329 278 306 235 314 258 b 306 347 314 297 306 321 b 417 458 306 410 354 458 m 417 -97 b 528 -208 479 -97 528 -146 b 504 -278 528 -235 519 -258 b 528 -347 519 -297 528 -321 b 417 -458 528 -410 479 -458 b 385 -454 406 -458 394 -457 b 389 -486 388 -464 389 -475 b 278 -597 389 -549 340 -597 b 167 -486 215 -597 167 -549 b 278 -375 167 -424 215 -375 b 310 -379 289 -375 300 -376 b 306 -347 307 -369 306 -358 b 310 -315 306 -336 307 -325 b 278 -319 300 -318 289 -319 b 167 -208 215 -319 167 -271 b 278 -97 167 -146 215 -97 b 347 -121 304 -97 328 -106 b 417 -97 367 -106 390 -97 "},"Ġ":{"ha":556,"x_min":0,"x_max":0,"o":"m 278 792 b 167 903 215 792 167 840 b 278 1014 167 965 215 1014 b 389 903 340 1014 389 965 b 278 792 389 840 340 792 m 417 458 b 528 347 479 458 528 410 b 504 278 528 321 519 297 b 528 208 519 258 528 235 b 504 139 528 182 519 158 b 528 69 519 119 528 96 b 417 -42 528 7 479 -42 b 347 -18 390 -42 367 -33 b 278 -42 328 -33 304 -42 b 167 69 215 -42 167 7 b 171 101 167 81 168 92 b 139 97 161 99 150 97 b 28 208 76 97 28 146 b 51 278 28 235 36 258 b 28 347 36 297 28 321 b 51 417 28 374 36 397 b 28 486 36 436 28 460 b 139 597 28 549 76 597 b 171 593 150 597 161 596 b 167 625 168 603 167 614 b 278 736 167 688 215 736 b 347 713 304 736 328 728 b 417 736 367 728 390 736 b 528 625 479 736 528 688 b 417 514 528 563 479 514 b 347 538 390 514 367 522 b 278 514 328 522 304 514 b 246 518 267 514 256 515 b 250 486 249 508 250 497 b 226 417 250 460 242 436 b 250 347 242 397 250 374 b 226 278 250 321 242 297 b 250 208 242 258 250 235 b 246 176 250 197 249 186 b 278 181 256 179 267 181 b 310 176 289 181 300 179 b 306 208 307 186 306 197 b 329 278 306 235 314 258 b 306 347 314 297 306 321 b 417 458 306 410 354 458 "},"H":{"ha":556,"x_min":0,"x_max":0,"o":"m 504 556 b 528 486 519 536 528 513 b 504 417 528 460 519 436 b 528 347 519 397 528 374 b 504 278 528 321 519 297 b 528 208 519 258 528 235 b 504 139 528 182 519 158 b 528 69 519 119 528 96 b 417 -42 528 7 479 -42 b 306 69 354 -42 306 7 b 329 139 306 96 314 119 b 306 208 314 158 306 182 b 310 240 306 219 307 231 b 278 236 300 238 289 236 b 246 240 267 236 256 238 b 250 208 249 231 250 219 b 226 139 250 182 242 158 b 250 69 242 119 250 96 b 139 -42 250 7 201 -42 b 28 69 76 -42 28 7 b 51 139 28 96 36 119 b 28 208 36 158 28 182 b 51 278 28 235 36 258 b 28 347 36 297 28 321 b 51 417 28 374 36 397 b 28 486 36 436 28 460 b 51 556 28 513 36 536 b 28 625 36 575 28 599 b 139 736 28 688 76 736 b 250 625 201 736 250 688 b 226 556 250 599 242 575 b 250 486 242 536 250 513 b 246 454 250 475 249 464 b 278 458 256 457 267 458 b 310 454 289 458 300 457 b 306 486 307 464 306 475 b 329 556 306 513 314 536 b 306 625 314 575 306 599 b 417 736 306 688 354 736 b 528 625 479 736 528 688 b 504 556 528 599 519 575 "},"Ħ":{"ha":972,"x_min":0,"x_max":0,"o":"m 833 597 b 944 486 896 597 944 549 b 833 375 944 424 896 375 b 801 379 822 375 811 376 b 806 347 804 369 806 358 b 782 278 806 321 797 297 b 806 208 797 258 806 235 b 782 139 806 182 797 158 b 806 69 797 119 806 96 b 694 -42 806 7 757 -42 b 583 69 632 -42 583 7 b 588 101 583 81 585 92 b 556 97 578 99 567 97 b 486 121 529 97 506 106 b 417 97 467 106 443 97 b 385 101 406 97 394 99 b 389 69 388 92 389 81 b 278 -42 389 7 340 -42 b 167 69 215 -42 167 7 b 190 139 167 96 175 119 b 167 208 175 158 167 182 b 190 278 167 235 175 258 b 167 347 175 297 167 321 b 171 379 167 358 168 369 b 139 375 161 376 150 375 b 28 486 76 375 28 424 b 139 597 28 549 76 597 b 171 593 150 597 161 596 b 167 625 168 603 167 614 b 278 736 167 688 215 736 b 389 625 340 736 389 688 b 385 593 389 614 388 603 b 417 597 394 596 406 597 b 486 574 443 597 467 589 b 556 597 506 589 529 597 b 588 593 567 597 578 596 b 583 625 585 603 583 614 b 694 736 583 688 632 736 b 806 625 757 736 806 688 b 801 593 806 614 804 603 b 833 597 811 596 822 597 m 486 296 b 556 319 506 311 529 319 b 588 315 567 319 578 318 b 583 347 585 325 583 336 b 588 379 583 358 585 369 b 556 375 578 376 567 375 b 486 399 529 375 506 383 b 417 375 467 383 443 375 b 385 379 406 375 394 376 b 389 347 388 369 389 358 b 385 315 389 336 388 325 b 417 319 394 318 406 319 b 486 296 443 319 467 311 "},"I":{"ha":278,"x_min":0,"x_max":0,"o":"m 226 556 b 250 486 242 536 250 513 b 226 417 250 460 242 436 b 250 347 242 397 250 374 b 226 278 250 321 242 297 b 250 208 242 258 250 235 b 226 139 250 182 242 158 b 250 69 242 119 250 96 b 139 -42 250 7 201 -42 b 28 69 76 -42 28 7 b 51 139 28 96 36 119 b 28 208 36 158 28 182 b 51 278 28 235 36 258 b 28 347 36 297 28 321 b 51 417 28 374 36 397 b 28 486 36 436 28 460 b 51 556 28 513 36 536 b 28 625 36 575 28 599 b 139 736 28 688 76 736 b 250 625 201 736 250 688 b 226 556 250 599 242 575 "},"Í":{"ha":278,"x_min":0,"x_max":0,"o":"m 278 1153 b 389 1042 340 1153 389 1104 b 278 931 389 979 340 931 b 246 935 267 931 256 932 b 250 903 249 925 250 914 b 139 792 250 840 201 792 b 28 903 76 792 28 840 b 139 1014 28 965 76 1014 b 171 1010 150 1014 161 1013 b 167 1042 168 1019 167 1031 b 278 1153 167 1104 215 1153 m 139 736 b 250 625 201 736 250 688 b 226 556 250 599 242 575 b 250 486 242 536 250 513 b 226 417 250 460 242 436 b 250 347 242 397 250 374 b 226 278 250 321 242 297 b 250 208 242 258 250 235 b 226 139 250 182 242 158 b 250 69 242 119 250 96 b 139 -42 250 7 201 -42 b 28 69 76 -42 28 7 b 51 139 28 96 36 119 b 28 208 36 158 28 182 b 51 278 28 235 36 258 b 28 347 36 297 28 321 b 51 417 28 374 36 397 b 28 486 36 436 28 460 b 51 556 28 513 36 536 b 28 625 36 575 28 599 b 139 736 28 688 76 736 "},"Î":{"ha":278,"x_min":0,"x_max":0,"o":"m 278 1014 b 389 903 340 1014 389 965 b 278 792 389 840 340 792 b 167 903 215 792 167 840 b 171 935 167 914 168 925 b 139 931 161 932 150 931 b 107 935 128 931 117 932 b 111 903 110 925 111 914 b 0 792 111 840 63 792 b -111 903 -62 792 -111 840 b 0 1014 -111 965 -62 1014 b 32 1010 11 1014 22 1013 b 28 1042 29 1019 28 1031 b 139 1153 28 1104 76 1153 b 250 1042 201 1153 250 1104 b 246 1010 250 1031 249 1019 b 278 1014 256 1013 267 1014 m 139 736 b 250 625 201 736 250 688 b 226 556 250 599 242 575 b 250 486 242 536 250 513 b 226 417 250 460 242 436 b 250 347 242 397 250 374 b 226 278 250 321 242 297 b 250 208 242 258 250 235 b 226 139 250 182 242 158 b 250 69 242 119 250 96 b 139 -42 250 7 201 -42 b 28 69 76 -42 28 7 b 51 139 28 96 36 119 b 28 208 36 158 28 182 b 51 278 28 235 36 258 b 28 347 36 297 28 321 b 51 417 28 374 36 397 b 28 486 36 436 28 460 b 51 556 28 513 36 536 b 28 625 36 575 28 599 b 139 736 28 688 76 736 "},"Ï":{"ha":278,"x_min":0,"x_max":0,"o":"m 111 903 b 0 792 111 840 63 792 b -111 903 -62 792 -111 840 b 0 1014 -111 965 -62 1014 b 111 903 63 1014 111 965 m 278 1014 b 389 903 340 1014 389 965 b 278 792 389 840 340 792 b 167 903 215 792 167 840 b 278 1014 167 965 215 1014 m 139 736 b 250 625 201 736 250 688 b 226 556 250 599 242 575 b 250 486 242 536 250 513 b 226 417 250 460 242 436 b 250 347 242 397 250 374 b 226 278 250 321 242 297 b 250 208 242 258 250 235 b 226 139 250 182 242 158 b 250 69 242 119 250 96 b 139 -42 250 7 201 -42 b 28 69 76 -42 28 7 b 51 139 28 96 36 119 b 28 208 36 158 28 182 b 51 278 28 235 36 258 b 28 347 36 297 28 321 b 51 417 28 374 36 397 b 28 486 36 436 28 460 b 51 556 28 513 36 536 b 28 625 36 575 28 599 b 139 736 28 688 76 736 "},"İ":{"ha":278,"x_min":0,"x_max":0,"o":"m 139 792 b 28 903 76 792 28 840 b 139 1014 28 965 76 1014 b 250 903 201 1014 250 965 b 139 792 250 840 201 792 m 139 736 b 250 625 201 736 250 688 b 226 556 250 599 242 575 b 250 486 242 536 250 513 b 226 417 250 460 242 436 b 250 347 242 397 250 374 b 226 278 250 321 242 297 b 250 208 242 258 250 235 b 226 139 250 182 242 158 b 250 69 242 119 250 96 b 139 -42 250 7 201 -42 b 28 69 76 -42 28 7 b 51 139 28 96 36 119 b 28 208 36 158 28 182 b 51 278 28 235 36 258 b 28 347 36 297 28 321 b 51 417 28 374 36 397 b 28 486 36 436 28 460 b 51 556 28 513 36 536 b 28 625 36 575 28 599 b 139 736 28 688 76 736 "},"Ì":{"ha":278,"x_min":0,"x_max":0,"o":"m 28 903 b 32 935 28 914 29 925 b 0 931 22 932 11 931 b -111 1042 -62 931 -111 979 b 0 1153 -111 1104 -62 1153 b 111 1042 63 1153 111 1104 b 107 1010 111 1031 110 1019 b 139 1014 117 1013 128 1014 b 250 903 201 1014 250 965 b 139 792 250 840 201 792 b 28 903 76 792 28 840 m 139 736 b 250 625 201 736 250 688 b 226 556 250 599 242 575 b 250 486 242 536 250 513 b 226 417 250 460 242 436 b 250 347 242 397 250 374 b 226 278 250 321 242 297 b 250 208 242 258 250 235 b 226 139 250 182 242 158 b 250 69 242 119 250 96 b 139 -42 250 7 201 -42 b 28 69 76 -42 28 7 b 51 139 28 96 36 119 b 28 208 36 158 28 182 b 51 278 28 235 36 258 b 28 347 36 297 28 321 b 51 417 28 374 36 397 b 28 486 36 436 28 460 b 51 556 28 513 36 536 b 28 625 36 575 28 599 b 139 736 28 688 76 736 "},"Ī":{"ha":278,"x_min":0,"x_max":0,"o":"m 278 1014 b 389 903 340 1014 389 965 b 278 792 389 840 340 792 b 208 815 251 792 228 800 b 139 792 189 800 165 792 b 69 815 113 792 89 800 b 0 792 50 800 26 792 b -111 903 -62 792 -111 840 b 0 1014 -111 965 -62 1014 b 69 990 26 1014 50 1006 b 139 1014 89 1006 113 1014 b 208 990 165 1014 189 1006 b 278 1014 228 1006 251 1014 m 139 736 b 250 625 201 736 250 688 b 226 556 250 599 242 575 b 250 486 242 536 250 513 b 226 417 250 460 242 436 b 250 347 242 397 250 374 b 226 278 250 321 242 297 b 250 208 242 258 250 235 b 226 139 250 182 242 158 b 250 69 242 119 250 96 b 139 -42 250 7 201 -42 b 28 69 76 -42 28 7 b 51 139 28 96 36 119 b 28 208 36 158 28 182 b 51 278 28 235 36 258 b 28 347 36 297 28 321 b 51 417 28 374 36 397 b 28 486 36 436 28 460 b 51 556 28 513 36 536 b 28 625 36 575 28 599 b 139 736 28 688 76 736 "},"Į":{"ha":278,"x_min":0,"x_max":0,"o":"m 226 556 b 250 486 242 536 250 513 b 226 417 250 460 242 436 b 250 347 242 397 250 374 b 226 278 250 321 242 297 b 250 208 242 258 250 235 b 226 139 250 182 242 158 b 250 69 242 119 250 96 b 139 -42 250 7 201 -42 b 107 -37 128 -42 117 -40 b 111 -69 110 -47 111 -58 b 107 -101 111 -81 110 -92 b 139 -97 117 -99 128 -97 b 250 -208 201 -97 250 -146 b 139 -319 250 -271 201 -319 b 69 -296 113 -319 89 -311 b 0 -319 50 -311 26 -319 b -111 -208 -62 -319 -111 -271 b -87 -139 -111 -182 -103 -158 b -111 -69 -103 -119 -111 -96 b 0 42 -111 -7 -62 42 b 32 38 11 42 22 40 b 28 69 29 47 28 58 b 51 139 28 96 36 119 b 28 208 36 158 28 182 b 51 278 28 235 36 258 b 28 347 36 297 28 321 b 51 417 28 374 36 397 b 28 486 36 436 28 460 b 51 556 28 513 36 536 b 28 625 36 575 28 599 b 139 736 28 688 76 736 b 250 625 201 736 250 688 b 226 556 250 599 242 575 "},"J":{"ha":556,"x_min":0,"x_max":0,"o":"m 504 556 b 528 486 519 536 528 513 b 504 417 528 460 519 436 b 528 347 519 397 528 374 b 504 278 528 321 519 297 b 528 208 519 258 528 235 b 417 97 528 146 479 97 b 385 101 406 97 394 99 b 389 69 388 92 389 81 b 278 -42 389 7 340 -42 b 167 69 215 -42 167 7 b 171 101 167 81 168 92 b 139 97 161 99 150 97 b 28 208 76 97 28 146 b 51 278 28 235 36 258 b 28 347 36 297 28 321 b 139 458 28 410 76 458 b 250 347 201 458 250 410 b 226 278 250 321 242 297 b 250 208 242 258 250 235 b 246 176 250 197 249 186 b 278 181 256 179 267 181 b 310 176 289 181 300 179 b 306 208 307 186 306 197 b 329 278 306 235 314 258 b 306 347 314 297 306 321 b 329 417 306 374 314 397 b 306 486 314 436 306 460 b 329 556 306 513 314 536 b 306 625 314 575 306 599 b 417 736 306 688 354 736 b 528 625 479 736 528 688 b 504 556 528 599 519 575 "},"K":{"ha":556,"x_min":0,"x_max":0,"o":"m 417 181 b 528 69 479 181 528 132 b 417 -42 528 7 479 -42 b 306 69 354 -42 306 7 b 310 101 306 81 307 92 b 278 97 300 99 289 97 b 246 101 267 97 256 99 b 250 69 249 92 250 81 b 139 -42 250 7 201 -42 b 28 69 76 -42 28 7 b 51 139 28 96 36 119 b 28 208 36 158 28 182 b 51 278 28 235 36 258 b 28 347 36 297 28 321 b 51 417 28 374 36 397 b 28 486 36 436 28 460 b 51 556 28 513 36 536 b 28 625 36 575 28 599 b 139 736 28 688 76 736 b 250 625 201 736 250 688 b 246 593 250 614 249 603 b 278 597 256 596 267 597 b 310 593 289 597 300 596 b 306 625 307 603 306 614 b 417 736 306 688 354 736 b 528 625 479 736 528 688 b 417 514 528 563 479 514 b 385 518 406 514 394 515 b 389 486 388 508 389 497 b 278 375 389 424 340 375 b 246 379 267 375 256 376 b 250 347 249 369 250 358 b 246 315 250 336 249 325 b 278 319 256 318 267 319 b 389 208 340 319 389 271 b 385 176 389 197 388 186 b 417 181 394 179 406 181 "},"Ķ":{"ha":556,"x_min":0,"x_max":0,"o":"m 417 181 b 528 69 479 181 528 132 b 417 -42 528 7 479 -42 b 306 69 354 -42 306 7 b 310 101 306 81 307 92 b 278 97 300 99 289 97 b 246 101 267 97 256 99 b 250 69 249 92 250 81 b 139 -42 250 7 201 -42 b 28 69 76 -42 28 7 b 51 139 28 96 36 119 b 28 208 36 158 28 182 b 51 278 28 235 36 258 b 28 347 36 297 28 321 b 51 417 28 374 36 397 b 28 486 36 436 28 460 b 51 556 28 513 36 536 b 28 625 36 575 28 599 b 139 736 28 688 76 736 b 250 625 201 736 250 688 b 246 593 250 614 249 603 b 278 597 256 596 267 597 b 310 593 289 597 300 596 b 306 625 307 603 306 614 b 417 736 306 688 354 736 b 528 625 479 736 528 688 b 417 514 528 563 479 514 b 385 518 406 514 394 515 b 389 486 388 508 389 497 b 278 375 389 424 340 375 b 246 379 267 375 256 376 b 250 347 249 369 250 358 b 246 315 250 336 249 325 b 278 319 256 318 267 319 b 389 208 340 319 389 271 b 385 176 389 197 388 186 b 417 181 394 179 406 181 m 278 -97 b 389 -208 340 -97 389 -146 b 365 -278 389 -235 381 -258 b 389 -347 381 -297 389 -321 b 278 -458 389 -410 340 -458 b 246 -454 267 -458 256 -457 b 250 -486 249 -464 250 -475 b 139 -597 250 -549 201 -597 b 28 -486 76 -597 28 -549 b 139 -375 28 -424 76 -375 b 171 -379 150 -375 161 -376 b 167 -347 168 -369 167 -358 b 171 -315 167 -336 168 -325 b 139 -319 161 -318 150 -319 b 28 -208 76 -319 28 -271 b 139 -97 28 -146 76 -97 b 208 -121 165 -97 189 -106 b 278 -97 228 -106 251 -97 "},"L":{"ha":417,"x_min":0,"x_max":0,"o":"m 278 181 b 389 69 340 181 389 132 b 278 -42 389 7 340 -42 b 208 -18 251 -42 228 -33 b 139 -42 189 -33 165 -42 b 28 69 76 -42 28 7 b 51 139 28 96 36 119 b 28 208 36 158 28 182 b 51 278 28 235 36 258 b 28 347 36 297 28 321 b 51 417 28 374 36 397 b 28 486 36 436 28 460 b 51 556 28 513 36 536 b 28 625 36 575 28 599 b 139 736 28 688 76 736 b 250 625 201 736 250 688 b 226 556 250 599 242 575 b 250 486 242 536 250 513 b 226 417 250 460 242 436 b 250 347 242 397 250 374 b 226 278 250 321 242 297 b 250 208 242 258 250 235 b 246 176 250 197 249 186 b 278 181 256 179 267 181 "},"Ĺ":{"ha":417,"x_min":0,"x_max":0,"o":"m 139 792 b 28 903 76 792 28 840 b 139 1014 28 965 76 1014 b 171 1010 150 1014 161 1013 b 167 1042 168 1019 167 1031 b 278 1153 167 1104 215 1153 b 389 1042 340 1153 389 1104 b 278 931 389 979 340 931 b 246 935 267 931 256 932 b 250 903 249 925 250 914 b 139 792 250 840 201 792 m 278 181 b 389 69 340 181 389 132 b 278 -42 389 7 340 -42 b 208 -18 251 -42 228 -33 b 139 -42 189 -33 165 -42 b 28 69 76 -42 28 7 b 51 139 28 96 36 119 b 28 208 36 158 28 182 b 51 278 28 235 36 258 b 28 347 36 297 28 321 b 51 417 28 374 36 397 b 28 486 36 436 28 460 b 51 556 28 513 36 536 b 28 625 36 575 28 599 b 139 736 28 688 76 736 b 250 625 201 736 250 688 b 226 556 250 599 242 575 b 250 486 242 536 250 513 b 226 417 250 460 242 436 b 250 347 242 397 250 374 b 226 278 250 321 242 297 b 250 208 242 258 250 235 b 246 176 250 197 249 186 b 278 181 256 179 267 181 "},"Ľ":{"ha":694,"x_min":0,"x_max":0,"o":"m 278 181 b 389 69 340 181 389 132 b 278 -42 389 7 340 -42 b 208 -18 251 -42 228 -33 b 139 -42 189 -33 165 -42 b 28 69 76 -42 28 7 b 51 139 28 96 36 119 b 28 208 36 158 28 182 b 51 278 28 235 36 258 b 28 347 36 297 28 321 b 51 417 28 374 36 397 b 28 486 36 436 28 460 b 51 556 28 513 36 536 b 28 625 36 575 28 599 b 139 736 28 688 76 736 b 250 625 201 736 250 688 b 226 556 250 599 242 575 b 250 486 242 536 250 513 b 226 417 250 460 242 436 b 250 347 242 397 250 374 b 226 278 250 321 242 297 b 250 208 242 258 250 235 b 246 176 250 197 249 186 b 278 181 256 179 267 181 m 667 625 b 643 556 667 599 658 575 b 667 486 658 536 667 513 b 556 375 667 424 618 375 b 524 379 544 375 533 376 b 528 347 526 369 528 358 b 417 236 528 285 479 236 b 306 347 354 236 306 285 b 417 458 306 410 354 458 b 449 454 428 458 439 457 b 444 486 446 464 444 475 b 449 518 444 497 446 508 b 417 514 439 515 428 514 b 306 625 354 514 306 563 b 417 736 306 688 354 736 b 486 713 443 736 467 728 b 556 736 506 728 529 736 b 667 625 618 736 667 688 "},"Ļ":{"ha":417,"x_min":0,"x_max":0,"o":"m 139 -42 b 28 69 76 -42 28 7 b 51 139 28 96 36 119 b 28 208 36 158 28 182 b 51 278 28 235 36 258 b 28 347 36 297 28 321 b 51 417 28 374 36 397 b 28 486 36 436 28 460 b 51 556 28 513 36 536 b 28 625 36 575 28 599 b 139 736 28 688 76 736 b 250 625 201 736 250 688 b 226 556 250 599 242 575 b 250 486 242 536 250 513 b 226 417 250 460 242 436 b 250 347 242 397 250 374 b 226 278 250 321 242 297 b 250 208 242 258 250 235 b 246 176 250 197 249 186 b 278 181 256 179 267 181 b 389 69 340 181 389 132 b 278 -42 389 7 340 -42 b 208 -18 251 -42 228 -33 b 139 -42 189 -33 165 -42 m 278 -97 b 389 -208 340 -97 389 -146 b 365 -278 389 -235 381 -258 b 389 -347 381 -297 389 -321 b 278 -458 389 -410 340 -458 b 246 -454 267 -458 256 -457 b 250 -486 249 -464 250 -475 b 139 -597 250 -549 201 -597 b 28 -486 76 -597 28 -549 b 139 -375 28 -424 76 -375 b 171 -379 150 -375 161 -376 b 167 -347 168 -369 167 -358 b 171 -315 167 -336 168 -325 b 139 -319 161 -318 150 -319 b 28 -208 76 -319 28 -271 b 139 -97 28 -146 76 -97 b 208 -121 165 -97 189 -106 b 278 -97 228 -106 251 -97 "},"Ł":{"ha":556,"x_min":0,"x_max":0,"o":"m 417 181 b 528 69 479 181 528 132 b 417 -42 528 7 479 -42 b 347 -18 390 -42 367 -33 b 278 -42 328 -33 304 -42 b 167 69 215 -42 167 7 b 190 139 167 96 175 119 b 167 208 175 158 167 182 b 171 240 167 219 168 231 b 139 236 161 238 150 236 b 28 347 76 236 28 285 b 139 458 28 410 76 458 b 171 454 150 458 161 457 b 167 486 168 464 167 475 b 190 556 167 513 175 536 b 167 625 175 575 167 599 b 278 736 167 688 215 736 b 389 625 340 736 389 688 b 385 593 389 614 388 603 b 417 597 394 596 406 597 b 528 486 479 597 528 549 b 417 375 528 424 479 375 b 385 379 406 375 394 376 b 389 347 388 369 389 358 b 365 278 389 321 381 297 b 389 208 381 258 389 235 b 385 176 389 197 388 186 b 417 181 394 179 406 181 "},"M":{"ha":833,"x_min":0,"x_max":0,"o":"m 782 556 b 806 486 797 536 806 513 b 782 417 806 460 797 436 b 806 347 797 397 806 374 b 782 278 806 321 797 297 b 806 208 797 258 806 235 b 782 139 806 182 797 158 b 806 69 797 119 806 96 b 694 -42 806 7 757 -42 b 583 69 632 -42 583 7 b 607 139 583 96 592 119 b 583 208 592 158 583 182 b 607 278 583 235 592 258 b 583 347 592 297 583 321 b 588 379 583 358 585 369 b 556 375 578 376 567 375 b 524 379 544 375 533 376 b 528 347 526 369 528 358 b 417 236 528 285 479 236 b 306 347 354 236 306 285 b 310 379 306 358 307 369 b 278 375 300 376 289 375 b 246 379 267 375 256 376 b 250 347 249 369 250 358 b 226 278 250 321 242 297 b 250 208 242 258 250 235 b 226 139 250 182 242 158 b 250 69 242 119 250 96 b 139 -42 250 7 201 -42 b 28 69 76 -42 28 7 b 51 139 28 96 36 119 b 28 208 36 158 28 182 b 51 278 28 235 36 258 b 28 347 36 297 28 321 b 51 417 28 374 36 397 b 28 486 36 436 28 460 b 51 556 28 513 36 536 b 28 625 36 575 28 599 b 139 736 28 688 76 736 b 250 625 201 736 250 688 b 246 593 250 614 249 603 b 278 597 256 596 267 597 b 389 486 340 597 389 549 b 385 454 389 475 388 464 b 417 458 394 457 406 458 b 449 454 428 458 439 457 b 444 486 446 464 444 475 b 556 597 444 549 493 597 b 588 593 567 597 578 596 b 583 625 585 603 583 614 b 694 736 583 688 632 736 b 806 625 757 736 806 688 b 782 556 806 599 797 575 "},"N":{"ha":556,"x_min":0,"x_max":0,"o":"m 504 417 b 528 347 519 397 528 374 b 504 278 528 321 519 297 b 528 208 519 258 528 235 b 504 139 528 182 519 158 b 528 69 519 119 528 96 b 417 -42 528 7 479 -42 b 306 69 354 -42 306 7 b 329 139 306 96 314 119 b 306 208 314 158 306 182 b 329 278 306 235 314 258 b 306 347 314 297 306 321 b 329 417 306 374 314 397 b 306 486 314 436 306 460 b 310 518 306 497 307 508 b 278 514 300 515 289 514 b 246 518 267 514 256 515 b 250 486 249 508 250 497 b 226 417 250 460 242 436 b 250 347 242 397 250 374 b 226 278 250 321 242 297 b 250 208 242 258 250 235 b 226 139 250 182 242 158 b 250 69 242 119 250 96 b 139 -42 250 7 201 -42 b 28 69 76 -42 28 7 b 51 139 28 96 36 119 b 28 208 36 158 28 182 b 51 278 28 235 36 258 b 28 347 36 297 28 321 b 51 417 28 374 36 397 b 28 486 36 436 28 460 b 51 556 28 513 36 536 b 28 625 36 575 28 599 b 139 736 28 688 76 736 b 208 713 165 736 189 728 b 278 736 228 728 251 736 b 389 625 340 736 389 688 b 385 593 389 614 388 603 b 417 597 394 596 406 597 b 528 486 479 597 528 549 b 504 417 528 460 519 436 "},"Ń":{"ha":556,"x_min":0,"x_max":0,"o":"m 278 792 b 167 903 215 792 167 840 b 278 1014 167 965 215 1014 b 310 1010 289 1014 300 1013 b 306 1042 307 1019 306 1031 b 417 1153 306 1104 354 1153 b 528 1042 479 1153 528 1104 b 417 931 528 979 479 931 b 385 935 406 931 394 932 b 389 903 388 925 389 914 b 278 792 389 840 340 792 m 417 597 b 528 486 479 597 528 549 b 504 417 528 460 519 436 b 528 347 519 397 528 374 b 504 278 528 321 519 297 b 528 208 519 258 528 235 b 504 139 528 182 519 158 b 528 69 519 119 528 96 b 417 -42 528 7 479 -42 b 306 69 354 -42 306 7 b 329 139 306 96 314 119 b 306 208 314 158 306 182 b 329 278 306 235 314 258 b 306 347 314 297 306 321 b 329 417 306 374 314 397 b 306 486 314 436 306 460 b 310 518 306 497 307 508 b 278 514 300 515 289 514 b 246 518 267 514 256 515 b 250 486 249 508 250 497 b 226 417 250 460 242 436 b 250 347 242 397 250 374 b 226 278 250 321 242 297 b 250 208 242 258 250 235 b 226 139 250 182 242 158 b 250 69 242 119 250 96 b 139 -42 250 7 201 -42 b 28 69 76 -42 28 7 b 51 139 28 96 36 119 b 28 208 36 158 28 182 b 51 278 28 235 36 258 b 28 347 36 297 28 321 b 51 417 28 374 36 397 b 28 486 36 436 28 460 b 51 556 28 513 36 536 b 28 625 36 575 28 599 b 139 736 28 688 76 736 b 208 713 165 736 189 728 b 278 736 228 728 251 736 b 389 625 340 736 389 688 b 385 593 389 614 388 603 b 417 597 394 596 406 597 "},"Ň":{"ha":556,"x_min":0,"x_max":0,"o":"m 139 931 b 28 1042 76 931 28 979 b 139 1153 28 1104 76 1153 b 250 1042 201 1153 250 1104 b 246 1010 250 1031 249 1019 b 278 1014 256 1013 267 1014 b 310 1010 289 1014 300 1013 b 306 1042 307 1019 306 1031 b 417 1153 306 1104 354 1153 b 528 1042 479 1153 528 1104 b 417 931 528 979 479 931 b 385 935 406 931 394 932 b 389 903 388 925 389 914 b 278 792 389 840 340 792 b 167 903 215 792 167 840 b 171 935 167 914 168 925 b 139 931 161 932 150 931 m 417 597 b 528 486 479 597 528 549 b 504 417 528 460 519 436 b 528 347 519 397 528 374 b 504 278 528 321 519 297 b 528 208 519 258 528 235 b 504 139 528 182 519 158 b 528 69 519 119 528 96 b 417 -42 528 7 479 -42 b 306 69 354 -42 306 7 b 329 139 306 96 314 119 b 306 208 314 158 306 182 b 329 278 306 235 314 258 b 306 347 314 297 306 321 b 329 417 306 374 314 397 b 306 486 314 436 306 460 b 310 518 306 497 307 508 b 278 514 300 515 289 514 b 246 518 267 514 256 515 b 250 486 249 508 250 497 b 226 417 250 460 242 436 b 250 347 242 397 250 374 b 226 278 250 321 242 297 b 250 208 242 258 250 235 b 226 139 250 182 242 158 b 250 69 242 119 250 96 b 139 -42 250 7 201 -42 b 28 69 76 -42 28 7 b 51 139 28 96 36 119 b 28 208 36 158 28 182 b 51 278 28 235 36 258 b 28 347 36 297 28 321 b 51 417 28 374 36 397 b 28 486 36 436 28 460 b 51 556 28 513 36 536 b 28 625 36 575 28 599 b 139 736 28 688 76 736 b 208 713 165 736 189 728 b 278 736 228 728 251 736 b 389 625 340 736 389 688 b 385 593 389 614 388 603 b 417 597 394 596 406 597 "},"Ņ":{"ha":556,"x_min":0,"x_max":0,"o":"m 504 417 b 528 347 519 397 528 374 b 504 278 528 321 519 297 b 528 208 519 258 528 235 b 504 139 528 182 519 158 b 528 69 519 119 528 96 b 417 -42 528 7 479 -42 b 306 69 354 -42 306 7 b 329 139 306 96 314 119 b 306 208 314 158 306 182 b 329 278 306 235 314 258 b 306 347 314 297 306 321 b 329 417 306 374 314 397 b 306 486 314 436 306 460 b 310 518 306 497 307 508 b 278 514 300 515 289 514 b 246 518 267 514 256 515 b 250 486 249 508 250 497 b 226 417 250 460 242 436 b 250 347 242 397 250 374 b 226 278 250 321 242 297 b 250 208 242 258 250 235 b 226 139 250 182 242 158 b 250 69 242 119 250 96 b 139 -42 250 7 201 -42 b 28 69 76 -42 28 7 b 51 139 28 96 36 119 b 28 208 36 158 28 182 b 51 278 28 235 36 258 b 28 347 36 297 28 321 b 51 417 28 374 36 397 b 28 486 36 436 28 460 b 51 556 28 513 36 536 b 28 625 36 575 28 599 b 139 736 28 688 76 736 b 208 713 165 736 189 728 b 278 736 228 728 251 736 b 389 625 340 736 389 688 b 385 593 389 614 388 603 b 417 597 394 596 406 597 b 528 486 479 597 528 549 b 504 417 528 460 519 436 m 278 -97 b 389 -208 340 -97 389 -146 b 365 -278 389 -235 381 -258 b 389 -347 381 -297 389 -321 b 278 -458 389 -410 340 -458 b 246 -454 267 -458 256 -457 b 250 -486 249 -464 250 -475 b 139 -597 250 -549 201 -597 b 28 -486 76 -597 28 -549 b 139 -375 28 -424 76 -375 b 171 -379 150 -375 161 -376 b 167 -347 168 -369 167 -358 b 171 -315 167 -336 168 -325 b 139 -319 161 -318 150 -319 b 28 -208 76 -319 28 -271 b 139 -97 28 -146 76 -97 b 208 -121 165 -97 189 -106 b 278 -97 228 -106 251 -97 "},"Ŋ":{"ha":556,"x_min":0,"x_max":0,"o":"m 504 417 b 528 347 519 397 528 374 b 504 278 528 321 519 297 b 528 208 519 258 528 235 b 504 139 528 182 519 158 b 528 69 519 119 528 96 b 504 0 528 43 519 19 b 528 -69 519 -19 528 -43 b 504 -139 528 -96 519 -119 b 528 -208 519 -158 528 -182 b 417 -319 528 -271 479 -319 b 347 -296 390 -319 367 -311 b 278 -319 328 -311 304 -319 b 167 -208 215 -319 167 -271 b 278 -97 167 -146 215 -97 b 310 -101 289 -97 300 -99 b 306 -69 307 -92 306 -81 b 329 0 306 -43 314 -19 b 306 69 314 19 306 43 b 329 139 306 96 314 119 b 306 208 314 158 306 182 b 329 278 306 235 314 258 b 306 347 314 297 306 321 b 329 417 306 374 314 397 b 306 486 314 436 306 460 b 310 518 306 497 307 508 b 278 514 300 515 289 514 b 246 518 267 514 256 515 b 250 486 249 508 250 497 b 226 417 250 460 242 436 b 250 347 242 397 250 374 b 226 278 250 321 242 297 b 250 208 242 258 250 235 b 226 139 250 182 242 158 b 250 69 242 119 250 96 b 139 -42 250 7 201 -42 b 28 69 76 -42 28 7 b 51 139 28 96 36 119 b 28 208 36 158 28 182 b 51 278 28 235 36 258 b 28 347 36 297 28 321 b 51 417 28 374 36 397 b 28 486 36 436 28 460 b 51 556 28 513 36 536 b 28 625 36 575 28 599 b 139 736 28 688 76 736 b 208 713 165 736 189 728 b 278 736 228 728 251 736 b 389 625 340 736 389 688 b 385 593 389 614 388 603 b 417 597 394 596 406 597 b 528 486 479 597 528 549 b 504 417 528 460 519 436 "},"Ñ":{"ha":556,"x_min":0,"x_max":0,"o":"m 556 1153 b 667 1042 618 1153 667 1104 b 556 931 667 979 618 931 b 524 935 544 931 533 932 b 528 903 526 925 528 914 b 417 792 528 840 479 792 b 306 903 354 792 306 840 b 310 935 306 914 307 925 b 278 931 300 932 289 931 b 246 935 267 931 256 932 b 250 903 249 925 250 914 b 139 792 250 840 201 792 b 28 903 76 792 28 840 b 139 1014 28 965 76 1014 b 171 1010 150 1014 161 1013 b 167 1042 168 1019 167 1031 b 278 1153 167 1104 215 1153 b 389 1042 340 1153 389 1104 b 385 1010 389 1031 388 1019 b 417 1014 394 1013 406 1014 b 449 1010 428 1014 439 1013 b 444 1042 446 1019 444 1031 b 556 1153 444 1104 493 1153 m 417 597 b 528 486 479 597 528 549 b 504 417 528 460 519 436 b 528 347 519 397 528 374 b 504 278 528 321 519 297 b 528 208 519 258 528 235 b 504 139 528 182 519 158 b 528 69 519 119 528 96 b 417 -42 528 7 479 -42 b 306 69 354 -42 306 7 b 329 139 306 96 314 119 b 306 208 314 158 306 182 b 329 278 306 235 314 258 b 306 347 314 297 306 321 b 329 417 306 374 314 397 b 306 486 314 436 306 460 b 310 518 306 497 307 508 b 278 514 300 515 289 514 b 246 518 267 514 256 515 b 250 486 249 508 250 497 b 226 417 250 460 242 436 b 250 347 242 397 250 374 b 226 278 250 321 242 297 b 250 208 242 258 250 235 b 226 139 250 182 242 158 b 250 69 242 119 250 96 b 139 -42 250 7 201 -42 b 28 69 76 -42 28 7 b 51 139 28 96 36 119 b 28 208 36 158 28 182 b 51 278 28 235 36 258 b 28 347 36 297 28 321 b 51 417 28 374 36 397 b 28 486 36 436 28 460 b 51 556 28 513 36 536 b 28 625 36 575 28 599 b 139 736 28 688 76 736 b 208 713 165 736 189 728 b 278 736 228 728 251 736 b 389 625 340 736 389 688 b 385 593 389 614 388 603 b 417 597 394 596 406 597 "},"O":{"ha":556,"x_min":0,"x_max":0,"o":"m 504 417 b 528 347 519 397 528 374 b 504 278 528 321 519 297 b 528 208 519 258 528 235 b 417 97 528 146 479 97 b 385 101 406 97 394 99 b 389 69 388 92 389 81 b 278 -42 389 7 340 -42 b 167 69 215 -42 167 7 b 171 101 167 81 168 92 b 139 97 161 99 150 97 b 28 208 76 97 28 146 b 51 278 28 235 36 258 b 28 347 36 297 28 321 b 51 417 28 374 36 397 b 28 486 36 436 28 460 b 139 597 28 549 76 597 b 171 593 150 597 161 596 b 167 625 168 603 167 614 b 278 736 167 688 215 736 b 389 625 340 736 389 688 b 385 593 389 614 388 603 b 417 597 394 596 406 597 b 528 486 479 597 528 549 b 504 417 528 460 519 436 m 246 176 b 278 181 256 179 267 181 b 310 176 289 181 300 179 b 306 208 307 186 306 197 b 329 278 306 235 314 258 b 306 347 314 297 306 321 b 329 417 306 374 314 397 b 306 486 314 436 306 460 b 310 518 306 497 307 508 b 278 514 300 515 289 514 b 246 518 267 514 256 515 b 250 486 249 508 250 497 b 226 417 250 460 242 436 b 250 347 242 397 250 374 b 226 278 250 321 242 297 b 250 208 242 258 250 235 b 246 176 250 197 249 186 "},"Ó":{"ha":556,"x_min":0,"x_max":0,"o":"m 278 792 b 167 903 215 792 167 840 b 278 1014 167 965 215 1014 b 310 1010 289 1014 300 1013 b 306 1042 307 1019 306 1031 b 417 1153 306 1104 354 1153 b 528 1042 479 1153 528 1104 b 417 931 528 979 479 931 b 385 935 406 931 394 932 b 389 903 388 925 389 914 b 278 792 389 840 340 792 m 417 597 b 528 486 479 597 528 549 b 504 417 528 460 519 436 b 528 347 519 397 528 374 b 504 278 528 321 519 297 b 528 208 519 258 528 235 b 417 97 528 146 479 97 b 385 101 406 97 394 99 b 389 69 388 92 389 81 b 278 -42 389 7 340 -42 b 167 69 215 -42 167 7 b 171 101 167 81 168 92 b 139 97 161 99 150 97 b 28 208 76 97 28 146 b 51 278 28 235 36 258 b 28 347 36 297 28 321 b 51 417 28 374 36 397 b 28 486 36 436 28 460 b 139 597 28 549 76 597 b 171 593 150 597 161 596 b 167 625 168 603 167 614 b 278 736 167 688 215 736 b 389 625 340 736 389 688 b 385 593 389 614 388 603 b 417 597 394 596 406 597 m 246 176 b 278 181 256 179 267 181 b 310 176 289 181 300 179 b 306 208 307 186 306 197 b 329 278 306 235 314 258 b 306 347 314 297 306 321 b 329 417 306 374 314 397 b 306 486 314 436 306 460 b 310 518 306 497 307 508 b 278 514 300 515 289 514 b 246 518 267 514 256 515 b 250 486 249 508 250 497 b 226 417 250 460 242 436 b 250 347 242 397 250 374 b 226 278 250 321 242 297 b 250 208 242 258 250 235 b 246 176 250 197 249 186 "},"Ô":{"ha":556,"x_min":0,"x_max":0,"o":"m 139 792 b 28 903 76 792 28 840 b 139 1014 28 965 76 1014 b 171 1010 150 1014 161 1013 b 167 1042 168 1019 167 1031 b 278 1153 167 1104 215 1153 b 389 1042 340 1153 389 1104 b 385 1010 389 1031 388 1019 b 417 1014 394 1013 406 1014 b 528 903 479 1014 528 965 b 417 792 528 840 479 792 b 306 903 354 792 306 840 b 310 935 306 914 307 925 b 278 931 300 932 289 931 b 246 935 267 931 256 932 b 250 903 249 925 250 914 b 139 792 250 840 201 792 m 417 597 b 528 486 479 597 528 549 b 504 417 528 460 519 436 b 528 347 519 397 528 374 b 504 278 528 321 519 297 b 528 208 519 258 528 235 b 417 97 528 146 479 97 b 385 101 406 97 394 99 b 389 69 388 92 389 81 b 278 -42 389 7 340 -42 b 167 69 215 -42 167 7 b 171 101 167 81 168 92 b 139 97 161 99 150 97 b 28 208 76 97 28 146 b 51 278 28 235 36 258 b 28 347 36 297 28 321 b 51 417 28 374 36 397 b 28 486 36 436 28 460 b 139 597 28 549 76 597 b 171 593 150 597 161 596 b 167 625 168 603 167 614 b 278 736 167 688 215 736 b 389 625 340 736 389 688 b 385 593 389 614 388 603 b 417 597 394 596 406 597 m 246 176 b 278 181 256 179 267 181 b 310 176 289 181 300 179 b 306 208 307 186 306 197 b 329 278 306 235 314 258 b 306 347 314 297 306 321 b 329 417 306 374 314 397 b 306 486 314 436 306 460 b 310 518 306 497 307 508 b 278 514 300 515 289 514 b 246 518 267 514 256 515 b 250 486 249 508 250 497 b 226 417 250 460 242 436 b 250 347 242 397 250 374 b 226 278 250 321 242 297 b 250 208 242 258 250 235 b 246 176 250 197 249 186 "},"Ö":{"ha":556,"x_min":0,"x_max":0,"o":"m 139 792 b 28 903 76 792 28 840 b 139 1014 28 965 76 1014 b 250 903 201 1014 250 965 b 139 792 250 840 201 792 m 417 792 b 306 903 354 792 306 840 b 417 1014 306 965 354 1014 b 528 903 479 1014 528 965 b 417 792 528 840 479 792 m 417 597 b 528 486 479 597 528 549 b 504 417 528 460 519 436 b 528 347 519 397 528 374 b 504 278 528 321 519 297 b 528 208 519 258 528 235 b 417 97 528 146 479 97 b 385 101 406 97 394 99 b 389 69 388 92 389 81 b 278 -42 389 7 340 -42 b 167 69 215 -42 167 7 b 171 101 167 81 168 92 b 139 97 161 99 150 97 b 28 208 76 97 28 146 b 51 278 28 235 36 258 b 28 347 36 297 28 321 b 51 417 28 374 36 397 b 28 486 36 436 28 460 b 139 597 28 549 76 597 b 171 593 150 597 161 596 b 167 625 168 603 167 614 b 278 736 167 688 215 736 b 389 625 340 736 389 688 b 385 593 389 614 388 603 b 417 597 394 596 406 597 m 246 176 b 278 181 256 179 267 181 b 310 176 289 181 300 179 b 306 208 307 186 306 197 b 329 278 306 235 314 258 b 306 347 314 297 306 321 b 329 417 306 374 314 397 b 306 486 314 436 306 460 b 310 518 306 497 307 508 b 278 514 300 515 289 514 b 246 518 267 514 256 515 b 250 486 249 508 250 497 b 226 417 250 460 242 436 b 250 347 242 397 250 374 b 226 278 250 321 242 297 b 250 208 242 258 250 235 b 246 176 250 197 249 186 "},"Ò":{"ha":556,"x_min":0,"x_max":0,"o":"m 139 931 b 28 1042 76 931 28 979 b 139 1153 28 1104 76 1153 b 250 1042 201 1153 250 1104 b 246 1010 250 1031 249 1019 b 278 1014 256 1013 267 1014 b 389 903 340 1014 389 965 b 278 792 389 840 340 792 b 167 903 215 792 167 840 b 171 935 167 914 168 925 b 139 931 161 932 150 931 m 504 417 b 528 347 519 397 528 374 b 504 278 528 321 519 297 b 528 208 519 258 528 235 b 417 97 528 146 479 97 b 385 101 406 97 394 99 b 389 69 388 92 389 81 b 278 -42 389 7 340 -42 b 167 69 215 -42 167 7 b 171 101 167 81 168 92 b 139 97 161 99 150 97 b 28 208 76 97 28 146 b 51 278 28 235 36 258 b 28 347 36 297 28 321 b 51 417 28 374 36 397 b 28 486 36 436 28 460 b 139 597 28 549 76 597 b 171 593 150 597 161 596 b 167 625 168 603 167 614 b 278 736 167 688 215 736 b 389 625 340 736 389 688 b 385 593 389 614 388 603 b 417 597 394 596 406 597 b 528 486 479 597 528 549 b 504 417 528 460 519 436 m 246 176 b 278 181 256 179 267 181 b 310 176 289 181 300 179 b 306 208 307 186 306 197 b 329 278 306 235 314 258 b 306 347 314 297 306 321 b 329 417 306 374 314 397 b 306 486 314 436 306 460 b 310 518 306 497 307 508 b 278 514 300 515 289 514 b 246 518 267 514 256 515 b 250 486 249 508 250 497 b 226 417 250 460 242 436 b 250 347 242 397 250 374 b 226 278 250 321 242 297 b 250 208 242 258 250 235 b 246 176 250 197 249 186 "},"Ő":{"ha":556,"x_min":0,"x_max":0,"o":"m 556 1153 b 667 1042 618 1153 667 1104 b 556 931 667 979 618 931 b 524 935 544 931 533 932 b 528 903 526 925 528 914 b 417 792 528 840 479 792 b 306 903 354 792 306 840 b 310 935 306 914 307 925 b 278 931 300 932 289 931 b 246 935 267 931 256 932 b 250 903 249 925 250 914 b 139 792 250 840 201 792 b 28 903 76 792 28 840 b 139 1014 28 965 76 1014 b 171 1010 150 1014 161 1013 b 167 1042 168 1019 167 1031 b 278 1153 167 1104 215 1153 b 389 1042 340 1153 389 1104 b 385 1010 389 1031 388 1019 b 417 1014 394 1013 406 1014 b 449 1010 428 1014 439 1013 b 444 1042 446 1019 444 1031 b 556 1153 444 1104 493 1153 m 417 597 b 528 486 479 597 528 549 b 504 417 528 460 519 436 b 528 347 519 397 528 374 b 504 278 528 321 519 297 b 528 208 519 258 528 235 b 417 97 528 146 479 97 b 385 101 406 97 394 99 b 389 69 388 92 389 81 b 278 -42 389 7 340 -42 b 167 69 215 -42 167 7 b 171 101 167 81 168 92 b 139 97 161 99 150 97 b 28 208 76 97 28 146 b 51 278 28 235 36 258 b 28 347 36 297 28 321 b 51 417 28 374 36 397 b 28 486 36 436 28 460 b 139 597 28 549 76 597 b 171 593 150 597 161 596 b 167 625 168 603 167 614 b 278 736 167 688 215 736 b 389 625 340 736 389 688 b 385 593 389 614 388 603 b 417 597 394 596 406 597 m 246 176 b 278 181 256 179 267 181 b 310 176 289 181 300 179 b 306 208 307 186 306 197 b 329 278 306 235 314 258 b 306 347 314 297 306 321 b 329 417 306 374 314 397 b 306 486 314 436 306 460 b 310 518 306 497 307 508 b 278 514 300 515 289 514 b 246 518 267 514 256 515 b 250 486 249 508 250 497 b 226 417 250 460 242 436 b 250 347 242 397 250 374 b 226 278 250 321 242 297 b 250 208 242 258 250 235 b 246 176 250 197 249 186 "},"Ō":{"ha":556,"x_min":0,"x_max":0,"o":"m 139 792 b 28 903 76 792 28 840 b 139 1014 28 965 76 1014 b 208 990 165 1014 189 1006 b 278 1014 228 1006 251 1014 b 347 990 304 1014 328 1006 b 417 1014 367 1006 390 1014 b 528 903 479 1014 528 965 b 417 792 528 840 479 792 b 347 815 390 792 367 800 b 278 792 328 800 304 792 b 208 815 251 792 228 800 b 139 792 189 800 165 792 m 417 597 b 528 486 479 597 528 549 b 504 417 528 460 519 436 b 528 347 519 397 528 374 b 504 278 528 321 519 297 b 528 208 519 258 528 235 b 417 97 528 146 479 97 b 385 101 406 97 394 99 b 389 69 388 92 389 81 b 278 -42 389 7 340 -42 b 167 69 215 -42 167 7 b 171 101 167 81 168 92 b 139 97 161 99 150 97 b 28 208 76 97 28 146 b 51 278 28 235 36 258 b 28 347 36 297 28 321 b 51 417 28 374 36 397 b 28 486 36 436 28 460 b 139 597 28 549 76 597 b 171 593 150 597 161 596 b 167 625 168 603 167 614 b 278 736 167 688 215 736 b 389 625 340 736 389 688 b 385 593 389 614 388 603 b 417 597 394 596 406 597 m 246 176 b 278 181 256 179 267 181 b 310 176 289 181 300 179 b 306 208 307 186 306 197 b 329 278 306 235 314 258 b 306 347 314 297 306 321 b 329 417 306 374 314 397 b 306 486 314 436 306 460 b 310 518 306 497 307 508 b 278 514 300 515 289 514 b 246 518 267 514 256 515 b 250 486 249 508 250 497 b 226 417 250 460 242 436 b 250 347 242 397 250 374 b 226 278 250 321 242 297 b 250 208 242 258 250 235 b 246 176 250 197 249 186 "},"Ø":{"ha":833,"x_min":0,"x_max":0,"o":"m 694 458 b 806 347 757 458 806 410 b 782 278 806 321 797 297 b 806 208 797 258 806 235 b 694 97 806 146 757 97 b 663 101 683 97 672 99 b 667 69 665 92 667 81 b 556 -42 667 7 618 -42 b 486 -18 529 -42 506 -33 b 417 -42 467 -33 443 -42 b 306 69 354 -42 306 7 b 310 101 306 81 307 92 b 278 97 300 99 289 97 b 246 101 267 97 256 99 b 250 69 249 92 250 81 b 139 -42 250 7 201 -42 b 28 69 76 -42 28 7 b 139 181 28 132 76 181 b 171 176 150 181 161 179 b 167 208 168 186 167 197 b 171 240 167 219 168 231 b 139 236 161 238 150 236 b 28 347 76 236 28 285 b 51 417 28 374 36 397 b 28 486 36 436 28 460 b 139 597 28 549 76 597 b 171 593 150 597 161 596 b 167 625 168 603 167 614 b 278 736 167 688 215 736 b 347 713 304 736 328 728 b 417 736 367 728 390 736 b 528 625 479 736 528 688 b 524 593 528 614 526 603 b 556 597 533 596 544 597 b 588 593 567 597 578 596 b 583 625 585 603 583 614 b 694 736 583 688 632 736 b 806 625 757 736 806 688 b 694 514 806 563 757 514 b 663 518 683 514 672 515 b 667 486 665 508 667 497 b 663 454 667 475 665 464 b 694 458 672 457 683 458 m 246 315 b 278 319 256 318 267 319 b 310 315 289 319 300 318 b 306 347 307 325 306 336 b 417 458 306 410 354 458 b 449 454 428 458 439 457 b 444 486 446 464 444 475 b 449 518 444 497 446 508 b 417 514 439 515 428 514 b 347 538 390 514 367 522 b 278 514 328 522 304 514 b 246 518 267 514 256 515 b 250 486 249 508 250 497 b 226 417 250 460 242 436 b 250 347 242 397 250 374 b 246 315 250 336 249 325 m 486 157 b 556 181 506 172 529 181 b 588 176 567 181 578 179 b 583 208 585 186 583 197 b 607 278 583 235 592 258 b 583 347 592 297 583 321 b 588 379 583 358 585 369 b 556 375 578 376 567 375 b 524 379 544 375 533 376 b 528 347 526 369 528 358 b 417 236 528 285 479 236 b 385 240 406 236 394 238 b 389 208 388 231 389 219 b 385 176 389 197 388 186 b 417 181 394 179 406 181 b 486 157 443 181 467 172 "},"Õ":{"ha":556,"x_min":0,"x_max":0,"o":"m 556 1153 b 667 1042 618 1153 667 1104 b 556 931 667 979 618 931 b 524 935 544 931 533 932 b 528 903 526 925 528 914 b 417 792 528 840 479 792 b 306 903 354 792 306 840 b 310 935 306 914 307 925 b 278 931 300 932 289 931 b 246 935 267 931 256 932 b 250 903 249 925 250 914 b 139 792 250 840 201 792 b 28 903 76 792 28 840 b 139 1014 28 965 76 1014 b 171 1010 150 1014 161 1013 b 167 1042 168 1019 167 1031 b 278 1153 167 1104 215 1153 b 389 1042 340 1153 389 1104 b 385 1010 389 1031 388 1019 b 417 1014 394 1013 406 1014 b 449 1010 428 1014 439 1013 b 444 1042 446 1019 444 1031 b 556 1153 444 1104 493 1153 m 417 597 b 528 486 479 597 528 549 b 504 417 528 460 519 436 b 528 347 519 397 528 374 b 504 278 528 321 519 297 b 528 208 519 258 528 235 b 417 97 528 146 479 97 b 385 101 406 97 394 99 b 389 69 388 92 389 81 b 278 -42 389 7 340 -42 b 167 69 215 -42 167 7 b 171 101 167 81 168 92 b 139 97 161 99 150 97 b 28 208 76 97 28 146 b 51 278 28 235 36 258 b 28 347 36 297 28 321 b 51 417 28 374 36 397 b 28 486 36 436 28 460 b 139 597 28 549 76 597 b 171 593 150 597 161 596 b 167 625 168 603 167 614 b 278 736 167 688 215 736 b 389 625 340 736 389 688 b 385 593 389 614 388 603 b 417 597 394 596 406 597 m 246 176 b 278 181 256 179 267 181 b 310 176 289 181 300 179 b 306 208 307 186 306 197 b 329 278 306 235 314 258 b 306 347 314 297 306 321 b 329 417 306 374 314 397 b 306 486 314 436 306 460 b 310 518 306 497 307 508 b 278 514 300 515 289 514 b 246 518 267 514 256 515 b 250 486 249 508 250 497 b 226 417 250 460 242 436 b 250 347 242 397 250 374 b 226 278 250 321 242 297 b 250 208 242 258 250 235 b 246 176 250 197 249 186 "},"Œ":{"ha":694,"x_min":0,"x_max":0,"o":"m 667 347 b 556 236 667 285 618 236 b 524 240 544 236 533 238 b 528 208 526 231 528 219 b 524 176 528 197 526 186 b 556 181 533 179 544 181 b 667 69 618 181 667 132 b 556 -42 667 7 618 -42 b 486 -18 529 -42 506 -33 b 417 -42 467 -33 443 -42 b 347 -18 390 -42 367 -33 b 278 -42 328 -33 304 -42 b 167 69 215 -42 167 7 b 171 101 167 81 168 92 b 139 97 161 99 150 97 b 28 208 76 97 28 146 b 51 278 28 235 36 258 b 28 347 36 297 28 321 b 51 417 28 374 36 397 b 28 486 36 436 28 460 b 139 597 28 549 76 597 b 171 593 150 597 161 596 b 167 625 168 603 167 614 b 278 736 167 688 215 736 b 347 713 304 736 328 728 b 417 736 367 728 390 736 b 486 713 443 736 467 728 b 556 736 506 728 529 736 b 667 625 618 736 667 688 b 556 514 667 563 618 514 b 524 518 544 514 533 515 b 528 486 526 508 528 497 b 524 454 528 475 526 464 b 556 458 533 457 544 458 b 667 347 618 458 667 410 m 246 176 b 278 181 256 179 267 181 b 310 176 289 181 300 179 b 306 208 307 186 306 197 b 329 278 306 235 314 258 b 306 347 314 297 306 321 b 329 417 306 374 314 397 b 306 486 314 436 306 460 b 310 518 306 497 307 508 b 278 514 300 515 289 514 b 246 518 267 514 256 515 b 250 486 249 508 250 497 b 226 417 250 460 242 436 b 250 347 242 397 250 374 b 226 278 250 321 242 297 b 250 208 242 258 250 235 b 246 176 250 197 249 186 "},"P":{"ha":556,"x_min":0,"x_max":0,"o":"m 417 597 b 528 486 479 597 528 549 b 417 375 528 424 479 375 b 385 379 406 375 394 376 b 389 347 388 369 389 358 b 278 236 389 285 340 236 b 246 240 267 236 256 238 b 250 208 249 231 250 219 b 226 139 250 182 242 158 b 250 69 242 119 250 96 b 139 -42 250 7 201 -42 b 28 69 76 -42 28 7 b 51 139 28 96 36 119 b 28 208 36 158 28 182 b 51 278 28 235 36 258 b 28 347 36 297 28 321 b 51 417 28 374 36 397 b 28 486 36 436 28 460 b 51 556 28 513 36 536 b 28 625 36 575 28 599 b 139 736 28 688 76 736 b 208 713 165 736 189 728 b 278 736 228 728 251 736 b 389 625 340 736 389 688 b 385 593 389 614 388 603 b 417 597 394 596 406 597 m 246 454 b 278 458 256 457 267 458 b 310 454 289 458 300 457 b 306 486 307 464 306 475 b 310 518 306 497 307 508 b 278 514 300 515 289 514 b 246 518 267 514 256 515 b 250 486 249 508 250 497 b 246 454 250 475 249 464 "},"Þ":{"ha":556,"x_min":0,"x_max":0,"o":"m 417 458 b 528 347 479 458 528 410 b 417 236 528 285 479 236 b 385 240 406 236 394 238 b 389 208 388 231 389 219 b 278 97 389 146 340 97 b 246 101 267 97 256 99 b 250 69 249 92 250 81 b 139 -42 250 7 201 -42 b 28 69 76 -42 28 7 b 51 139 28 96 36 119 b 28 208 36 158 28 182 b 51 278 28 235 36 258 b 28 347 36 297 28 321 b 51 417 28 374 36 397 b 28 486 36 436 28 460 b 51 556 28 513 36 536 b 28 625 36 575 28 599 b 139 736 28 688 76 736 b 250 625 201 736 250 688 b 246 593 250 614 249 603 b 278 597 256 596 267 597 b 389 486 340 597 389 549 b 385 454 389 475 388 464 b 417 458 394 457 406 458 m 246 315 b 278 319 256 318 267 319 b 310 315 289 319 300 318 b 306 347 307 325 306 336 b 310 379 306 358 307 369 b 278 375 300 376 289 375 b 246 379 267 375 256 376 b 250 347 249 369 250 358 b 246 315 250 336 249 325 "},"Q":{"ha":556,"x_min":0,"x_max":0,"o":"m 528 347 b 417 236 528 285 479 236 b 385 240 406 236 394 238 b 389 208 388 231 389 219 b 385 176 389 197 388 186 b 417 181 394 179 406 181 b 528 69 479 181 528 132 b 417 -42 528 7 479 -42 b 347 -18 390 -42 367 -33 b 278 -42 328 -33 304 -42 b 167 69 215 -42 167 7 b 171 101 167 81 168 92 b 139 97 161 99 150 97 b 28 208 76 97 28 146 b 51 278 28 235 36 258 b 28 347 36 297 28 321 b 51 417 28 374 36 397 b 28 486 36 436 28 460 b 139 597 28 549 76 597 b 171 593 150 597 161 596 b 167 625 168 603 167 614 b 278 736 167 688 215 736 b 389 625 340 736 389 688 b 385 593 389 614 388 603 b 417 597 394 596 406 597 b 528 486 479 597 528 549 b 504 417 528 460 519 436 b 528 347 519 397 528 374 m 310 518 b 278 514 300 515 289 514 b 246 518 267 514 256 515 b 250 486 249 508 250 497 b 226 417 250 460 242 436 b 250 347 242 397 250 374 b 246 315 250 336 249 325 b 278 319 256 318 267 319 b 310 315 289 319 300 318 b 306 347 307 325 306 336 b 329 417 306 374 314 397 b 306 486 314 436 306 460 b 310 518 306 497 307 508 "},"R":{"ha":556,"x_min":0,"x_max":0,"o":"m 417 319 b 528 208 479 319 528 271 b 504 139 528 182 519 158 b 528 69 519 119 528 96 b 417 -42 528 7 479 -42 b 306 69 354 -42 306 7 b 329 139 306 96 314 119 b 306 208 314 158 306 182 b 310 240 306 219 307 231 b 278 236 300 238 289 236 b 246 240 267 236 256 238 b 250 208 249 231 250 219 b 226 139 250 182 242 158 b 250 69 242 119 250 96 b 139 -42 250 7 201 -42 b 28 69 76 -42 28 7 b 51 139 28 96 36 119 b 28 208 36 158 28 182 b 51 278 28 235 36 258 b 28 347 36 297 28 321 b 51 417 28 374 36 397 b 28 486 36 436 28 460 b 51 556 28 513 36 536 b 28 625 36 575 28 599 b 139 736 28 688 76 736 b 208 713 165 736 189 728 b 278 736 228 728 251 736 b 389 625 340 736 389 688 b 385 593 389 614 388 603 b 417 597 394 596 406 597 b 528 486 479 597 528 549 b 417 375 528 424 479 375 b 385 379 406 375 394 376 b 389 347 388 369 389 358 b 385 315 389 336 388 325 b 417 319 394 318 406 319 m 246 454 b 278 458 256 457 267 458 b 310 454 289 458 300 457 b 306 486 307 464 306 475 b 310 518 306 497 307 508 b 278 514 300 515 289 514 b 246 518 267 514 256 515 b 250 486 249 508 250 497 b 246 454 250 475 249 464 "},"Ŕ":{"ha":556,"x_min":0,"x_max":0,"o":"m 278 792 b 167 903 215 792 167 840 b 278 1014 167 965 215 1014 b 310 1010 289 1014 300 1013 b 306 1042 307 1019 306 1031 b 417 1153 306 1104 354 1153 b 528 1042 479 1153 528 1104 b 417 931 528 979 479 931 b 385 935 406 931 394 932 b 389 903 388 925 389 914 b 278 792 389 840 340 792 m 528 486 b 417 375 528 424 479 375 b 385 379 406 375 394 376 b 389 347 388 369 389 358 b 385 315 389 336 388 325 b 417 319 394 318 406 319 b 528 208 479 319 528 271 b 504 139 528 182 519 158 b 528 69 519 119 528 96 b 417 -42 528 7 479 -42 b 306 69 354 -42 306 7 b 329 139 306 96 314 119 b 306 208 314 158 306 182 b 310 240 306 219 307 231 b 278 236 300 238 289 236 b 246 240 267 236 256 238 b 250 208 249 231 250 219 b 226 139 250 182 242 158 b 250 69 242 119 250 96 b 139 -42 250 7 201 -42 b 28 69 76 -42 28 7 b 51 139 28 96 36 119 b 28 208 36 158 28 182 b 51 278 28 235 36 258 b 28 347 36 297 28 321 b 51 417 28 374 36 397 b 28 486 36 436 28 460 b 51 556 28 513 36 536 b 28 625 36 575 28 599 b 139 736 28 688 76 736 b 208 713 165 736 189 728 b 278 736 228 728 251 736 b 389 625 340 736 389 688 b 385 593 389 614 388 603 b 417 597 394 596 406 597 b 528 486 479 597 528 549 m 246 454 b 278 458 256 457 267 458 b 310 454 289 458 300 457 b 306 486 307 464 306 475 b 310 518 306 497 307 508 b 278 514 300 515 289 514 b 246 518 267 514 256 515 b 250 486 249 508 250 497 b 246 454 250 475 249 464 "},"Ř":{"ha":556,"x_min":0,"x_max":0,"o":"m 139 931 b 28 1042 76 931 28 979 b 139 1153 28 1104 76 1153 b 250 1042 201 1153 250 1104 b 246 1010 250 1031 249 1019 b 278 1014 256 1013 267 1014 b 310 1010 289 1014 300 1013 b 306 1042 307 1019 306 1031 b 417 1153 306 1104 354 1153 b 528 1042 479 1153 528 1104 b 417 931 528 979 479 931 b 385 935 406 931 394 932 b 389 903 388 925 389 914 b 278 792 389 840 340 792 b 167 903 215 792 167 840 b 171 935 167 914 168 925 b 139 931 161 932 150 931 m 528 486 b 417 375 528 424 479 375 b 385 379 406 375 394 376 b 389 347 388 369 389 358 b 385 315 389 336 388 325 b 417 319 394 318 406 319 b 528 208 479 319 528 271 b 504 139 528 182 519 158 b 528 69 519 119 528 96 b 417 -42 528 7 479 -42 b 306 69 354 -42 306 7 b 329 139 306 96 314 119 b 306 208 314 158 306 182 b 310 240 306 219 307 231 b 278 236 300 238 289 236 b 246 240 267 236 256 238 b 250 208 249 231 250 219 b 226 139 250 182 242 158 b 250 69 242 119 250 96 b 139 -42 250 7 201 -42 b 28 69 76 -42 28 7 b 51 139 28 96 36 119 b 28 208 36 158 28 182 b 51 278 28 235 36 258 b 28 347 36 297 28 321 b 51 417 28 374 36 397 b 28 486 36 436 28 460 b 51 556 28 513 36 536 b 28 625 36 575 28 599 b 139 736 28 688 76 736 b 208 713 165 736 189 728 b 278 736 228 728 251 736 b 389 625 340 736 389 688 b 385 593 389 614 388 603 b 417 597 394 596 406 597 b 528 486 479 597 528 549 m 246 454 b 278 458 256 457 267 458 b 310 454 289 458 300 457 b 306 486 307 464 306 475 b 310 518 306 497 307 508 b 278 514 300 515 289 514 b 246 518 267 514 256 515 b 250 486 249 508 250 497 b 246 454 250 475 249 464 "},"Ŗ":{"ha":556,"x_min":0,"x_max":0,"o":"m 417 319 b 528 208 479 319 528 271 b 504 139 528 182 519 158 b 528 69 519 119 528 96 b 417 -42 528 7 479 -42 b 306 69 354 -42 306 7 b 329 139 306 96 314 119 b 306 208 314 158 306 182 b 310 240 306 219 307 231 b 278 236 300 238 289 236 b 246 240 267 236 256 238 b 250 208 249 231 250 219 b 226 139 250 182 242 158 b 250 69 242 119 250 96 b 139 -42 250 7 201 -42 b 28 69 76 -42 28 7 b 51 139 28 96 36 119 b 28 208 36 158 28 182 b 51 278 28 235 36 258 b 28 347 36 297 28 321 b 51 417 28 374 36 397 b 28 486 36 436 28 460 b 51 556 28 513 36 536 b 28 625 36 575 28 599 b 139 736 28 688 76 736 b 208 713 165 736 189 728 b 278 736 228 728 251 736 b 389 625 340 736 389 688 b 385 593 389 614 388 603 b 417 597 394 596 406 597 b 528 486 479 597 528 549 b 417 375 528 424 479 375 b 385 379 406 375 394 376 b 389 347 388 369 389 358 b 385 315 389 336 388 325 b 417 319 394 318 406 319 m 246 454 b 278 458 256 457 267 458 b 310 454 289 458 300 457 b 306 486 307 464 306 475 b 310 518 306 497 307 508 b 278 514 300 515 289 514 b 246 518 267 514 256 515 b 250 486 249 508 250 497 b 246 454 250 475 249 464 m 278 -97 b 389 -208 340 -97 389 -146 b 365 -278 389 -235 381 -258 b 389 -347 381 -297 389 -321 b 278 -458 389 -410 340 -458 b 246 -454 267 -458 256 -457 b 250 -486 249 -464 250 -475 b 139 -597 250 -549 201 -597 b 28 -486 76 -597 28 -549 b 139 -375 28 -424 76 -375 b 171 -379 150 -375 161 -376 b 167 -347 168 -369 167 -358 b 171 -315 167 -336 168 -325 b 139 -319 161 -318 150 -319 b 28 -208 76 -319 28 -271 b 139 -97 28 -146 76 -97 b 208 -121 165 -97 189 -106 b 278 -97 228 -106 251 -97 "},"S":{"ha":556,"x_min":0,"x_max":0,"o":"m 417 319 b 528 208 479 319 528 271 b 417 97 528 146 479 97 b 385 101 406 97 394 99 b 389 69 388 92 389 81 b 278 -42 389 7 340 -42 b 208 -18 251 -42 228 -33 b 139 -42 189 -33 165 -42 b 28 69 76 -42 28 7 b 139 181 28 132 76 181 b 208 157 165 181 189 172 b 278 181 228 172 251 181 b 310 176 289 181 300 179 b 306 208 307 186 306 197 b 310 240 306 219 307 231 b 278 236 300 238 289 236 b 167 347 215 236 167 285 b 171 379 167 358 168 369 b 139 375 161 376 150 375 b 28 486 76 375 28 424 b 139 597 28 549 76 597 b 171 593 150 597 161 596 b 167 625 168 603 167 614 b 278 736 167 688 215 736 b 347 713 304 736 328 728 b 417 736 367 728 390 736 b 528 625 479 736 528 688 b 417 514 528 563 479 514 b 347 538 390 514 367 522 b 278 514 328 522 304 514 b 246 518 267 514 256 515 b 250 486 249 508 250 497 b 246 454 250 475 249 464 b 278 458 256 457 267 458 b 389 347 340 458 389 410 b 385 315 389 336 388 325 b 417 319 394 318 406 319 "},"Ś":{"ha":556,"x_min":0,"x_max":0,"o":"m 278 792 b 167 903 215 792 167 840 b 278 1014 167 965 215 1014 b 310 1010 289 1014 300 1013 b 306 1042 307 1019 306 1031 b 417 1153 306 1104 354 1153 b 528 1042 479 1153 528 1104 b 417 931 528 979 479 931 b 385 935 406 931 394 932 b 389 903 388 925 389 914 b 278 792 389 840 340 792 m 347 538 b 278 514 328 522 304 514 b 246 518 267 514 256 515 b 250 486 249 508 250 497 b 246 454 250 475 249 464 b 278 458 256 457 267 458 b 389 347 340 458 389 410 b 385 315 389 336 388 325 b 417 319 394 318 406 319 b 528 208 479 319 528 271 b 417 97 528 146 479 97 b 385 101 406 97 394 99 b 389 69 388 92 389 81 b 278 -42 389 7 340 -42 b 208 -18 251 -42 228 -33 b 139 -42 189 -33 165 -42 b 28 69 76 -42 28 7 b 139 181 28 132 76 181 b 208 157 165 181 189 172 b 278 181 228 172 251 181 b 310 176 289 181 300 179 b 306 208 307 186 306 197 b 310 240 306 219 307 231 b 278 236 300 238 289 236 b 167 347 215 236 167 285 b 171 379 167 358 168 369 b 139 375 161 376 150 375 b 28 486 76 375 28 424 b 139 597 28 549 76 597 b 171 593 150 597 161 596 b 167 625 168 603 167 614 b 278 736 167 688 215 736 b 347 713 304 736 328 728 b 417 736 367 728 390 736 b 528 625 479 736 528 688 b 417 514 528 563 479 514 b 347 538 390 514 367 522 "},"Š":{"ha":556,"x_min":0,"x_max":0,"o":"m 139 931 b 28 1042 76 931 28 979 b 139 1153 28 1104 76 1153 b 250 1042 201 1153 250 1104 b 246 1010 250 1031 249 1019 b 278 1014 256 1013 267 1014 b 310 1010 289 1014 300 1013 b 306 1042 307 1019 306 1031 b 417 1153 306 1104 354 1153 b 528 1042 479 1153 528 1104 b 417 931 528 979 479 931 b 385 935 406 931 394 932 b 389 903 388 925 389 914 b 278 792 389 840 340 792 b 167 903 215 792 167 840 b 171 935 167 914 168 925 b 139 931 161 932 150 931 m 347 538 b 278 514 328 522 304 514 b 246 518 267 514 256 515 b 250 486 249 508 250 497 b 246 454 250 475 249 464 b 278 458 256 457 267 458 b 389 347 340 458 389 410 b 385 315 389 336 388 325 b 417 319 394 318 406 319 b 528 208 479 319 528 271 b 417 97 528 146 479 97 b 385 101 406 97 394 99 b 389 69 388 92 389 81 b 278 -42 389 7 340 -42 b 208 -18 251 -42 228 -33 b 139 -42 189 -33 165 -42 b 28 69 76 -42 28 7 b 139 181 28 132 76 181 b 208 157 165 181 189 172 b 278 181 228 172 251 181 b 310 176 289 181 300 179 b 306 208 307 186 306 197 b 310 240 306 219 307 231 b 278 236 300 238 289 236 b 167 347 215 236 167 285 b 171 379 167 358 168 369 b 139 375 161 376 150 375 b 28 486 76 375 28 424 b 139 597 28 549 76 597 b 171 593 150 597 161 596 b 167 625 168 603 167 614 b 278 736 167 688 215 736 b 347 713 304 736 328 728 b 417 736 367 728 390 736 b 528 625 479 736 528 688 b 417 514 528 563 479 514 b 347 538 390 514 367 522 "},"Ş":{"ha":556,"x_min":0,"x_max":0,"o":"m 417 319 b 528 208 479 319 528 271 b 417 97 528 146 479 97 b 385 101 406 97 394 99 b 389 69 388 92 389 81 b 365 0 389 43 381 19 b 389 -69 381 -19 389 -43 b 365 -139 389 -96 381 -119 b 389 -208 381 -158 389 -182 b 278 -319 389 -271 340 -319 b 208 -296 251 -319 228 -311 b 139 -319 189 -311 165 -319 b 28 -208 76 -319 28 -271 b 139 -97 28 -146 76 -97 b 171 -101 150 -97 161 -99 b 167 -69 168 -92 167 -81 b 171 -37 167 -58 168 -47 b 139 -42 161 -40 150 -42 b 28 69 76 -42 28 7 b 139 181 28 132 76 181 b 208 157 165 181 189 172 b 278 181 228 172 251 181 b 310 176 289 181 300 179 b 306 208 307 186 306 197 b 310 240 306 219 307 231 b 278 236 300 238 289 236 b 167 347 215 236 167 285 b 171 379 167 358 168 369 b 139 375 161 376 150 375 b 28 486 76 375 28 424 b 139 597 28 549 76 597 b 171 593 150 597 161 596 b 167 625 168 603 167 614 b 278 736 167 688 215 736 b 347 713 304 736 328 728 b 417 736 367 728 390 736 b 528 625 479 736 528 688 b 417 514 528 563 479 514 b 347 538 390 514 367 522 b 278 514 328 522 304 514 b 246 518 267 514 256 515 b 250 486 249 508 250 497 b 246 454 250 475 249 464 b 278 458 256 457 267 458 b 389 347 340 458 389 410 b 385 315 389 336 388 325 b 417 319 394 318 406 319 "},"Ș":{"ha":556,"x_min":0,"x_max":0,"o":"m 417 319 b 528 208 479 319 528 271 b 417 97 528 146 479 97 b 385 101 406 97 394 99 b 389 69 388 92 389 81 b 278 -42 389 7 340 -42 b 208 -18 251 -42 228 -33 b 139 -42 189 -33 165 -42 b 28 69 76 -42 28 7 b 139 181 28 132 76 181 b 208 157 165 181 189 172 b 278 181 228 172 251 181 b 310 176 289 181 300 179 b 306 208 307 186 306 197 b 310 240 306 219 307 231 b 278 236 300 238 289 236 b 167 347 215 236 167 285 b 171 379 167 358 168 369 b 139 375 161 376 150 375 b 28 486 76 375 28 424 b 139 597 28 549 76 597 b 171 593 150 597 161 596 b 167 625 168 603 167 614 b 278 736 167 688 215 736 b 347 713 304 736 328 728 b 417 736 367 728 390 736 b 528 625 479 736 528 688 b 417 514 528 563 479 514 b 347 538 390 514 367 522 b 278 514 328 522 304 514 b 246 518 267 514 256 515 b 250 486 249 508 250 497 b 246 454 250 475 249 464 b 278 458 256 457 267 458 b 389 347 340 458 389 410 b 385 315 389 336 388 325 b 417 319 394 318 406 319 m 278 -97 b 389 -208 340 -97 389 -146 b 365 -278 389 -235 381 -258 b 389 -347 381 -297 389 -321 b 278 -458 389 -410 340 -458 b 246 -454 267 -458 256 -457 b 250 -486 249 -464 250 -475 b 139 -597 250 -549 201 -597 b 28 -486 76 -597 28 -549 b 139 -375 28 -424 76 -375 b 171 -379 150 -375 161 -376 b 167 -347 168 -369 167 -358 b 171 -315 167 -336 168 -325 b 139 -319 161 -318 150 -319 b 28 -208 76 -319 28 -271 b 139 -97 28 -146 76 -97 b 208 -121 165 -97 189 -106 b 278 -97 228 -106 251 -97 "},"ẞ":{"ha":694,"x_min":0,"x_max":0,"o":"m 667 486 b 556 375 667 424 618 375 b 524 379 544 375 533 376 b 528 347 526 369 528 358 b 524 315 528 336 526 325 b 556 319 533 318 544 319 b 667 208 618 319 667 271 b 556 97 667 146 618 97 b 524 101 544 97 533 99 b 528 69 526 92 528 81 b 417 -42 528 7 479 -42 b 306 69 354 -42 306 7 b 417 181 306 132 354 181 b 449 176 428 181 439 179 b 444 208 446 186 444 197 b 449 240 444 219 446 231 b 417 236 439 238 428 236 b 306 347 354 236 306 285 b 417 458 306 410 354 458 b 449 454 428 458 439 457 b 444 486 446 464 444 475 b 449 518 444 497 446 508 b 417 514 439 515 428 514 b 347 538 390 514 367 522 b 278 514 328 522 304 514 b 246 518 267 514 256 515 b 250 486 249 508 250 497 b 226 417 250 460 242 436 b 250 347 242 397 250 374 b 226 278 250 321 242 297 b 250 208 242 258 250 235 b 226 139 250 182 242 158 b 250 69 242 119 250 96 b 139 -42 250 7 201 -42 b 28 69 76 -42 28 7 b 51 139 28 96 36 119 b 28 208 36 158 28 182 b 51 278 28 235 36 258 b 28 347 36 297 28 321 b 51 417 28 374 36 397 b 28 486 36 436 28 460 b 139 597 28 549 76 597 b 171 593 150 597 161 596 b 167 625 168 603 167 614 b 278 736 167 688 215 736 b 347 713 304 736 328 728 b 417 736 367 728 390 736 b 486 713 443 736 467 728 b 556 736 506 728 529 736 b 667 625 618 736 667 688 b 643 556 667 599 658 575 b 667 486 658 536 667 513 "},"T":{"ha":556,"x_min":0,"x_max":0,"o":"m 417 736 b 528 625 479 736 528 688 b 417 514 528 563 479 514 b 385 518 406 514 394 515 b 389 486 388 508 389 497 b 365 417 389 460 381 436 b 389 347 381 397 389 374 b 365 278 389 321 381 297 b 389 208 381 258 389 235 b 365 139 389 182 381 158 b 389 69 381 119 389 96 b 278 -42 389 7 340 -42 b 167 69 215 -42 167 7 b 190 139 167 96 175 119 b 167 208 175 158 167 182 b 190 278 167 235 175 258 b 167 347 175 297 167 321 b 190 417 167 374 175 397 b 167 486 175 436 167 460 b 171 518 167 497 168 508 b 139 514 161 515 150 514 b 28 625 76 514 28 563 b 139 736 28 688 76 736 b 208 713 165 736 189 728 b 278 736 228 728 251 736 b 347 713 304 736 328 728 b 417 736 367 728 390 736 "},"Ŧ":{"ha":556,"x_min":0,"x_max":0,"o":"m 417 458 b 528 347 479 458 528 410 b 417 236 528 285 479 236 b 385 240 406 236 394 238 b 389 208 388 231 389 219 b 365 139 389 182 381 158 b 389 69 381 119 389 96 b 278 -42 389 7 340 -42 b 167 69 215 -42 167 7 b 190 139 167 96 175 119 b 167 208 175 158 167 182 b 171 240 167 219 168 231 b 139 236 161 238 150 236 b 28 347 76 236 28 285 b 139 458 28 410 76 458 b 171 454 150 458 161 457 b 167 486 168 464 167 475 b 171 518 167 497 168 508 b 139 514 161 515 150 514 b 28 625 76 514 28 563 b 139 736 28 688 76 736 b 208 713 165 736 189 728 b 278 736 228 728 251 736 b 347 713 304 736 328 728 b 417 736 367 728 390 736 b 528 625 479 736 528 688 b 417 514 528 563 479 514 b 385 518 406 514 394 515 b 389 486 388 508 389 497 b 385 454 389 475 388 464 b 417 458 394 457 406 458 "},"Ť":{"ha":556,"x_min":0,"x_max":0,"o":"m 139 931 b 28 1042 76 931 28 979 b 139 1153 28 1104 76 1153 b 250 1042 201 1153 250 1104 b 246 1010 250 1031 249 1019 b 278 1014 256 1013 267 1014 b 310 1010 289 1014 300 1013 b 306 1042 307 1019 306 1031 b 417 1153 306 1104 354 1153 b 528 1042 479 1153 528 1104 b 417 931 528 979 479 931 b 385 935 406 931 394 932 b 389 903 388 925 389 914 b 278 792 389 840 340 792 b 167 903 215 792 167 840 b 171 935 167 914 168 925 b 139 931 161 932 150 931 m 417 736 b 528 625 479 736 528 688 b 417 514 528 563 479 514 b 385 518 406 514 394 515 b 389 486 388 508 389 497 b 365 417 389 460 381 436 b 389 347 381 397 389 374 b 365 278 389 321 381 297 b 389 208 381 258 389 235 b 365 139 389 182 381 158 b 389 69 381 119 389 96 b 278 -42 389 7 340 -42 b 167 69 215 -42 167 7 b 190 139 167 96 175 119 b 167 208 175 158 167 182 b 190 278 167 235 175 258 b 167 347 175 297 167 321 b 190 417 167 374 175 397 b 167 486 175 436 167 460 b 171 518 167 497 168 508 b 139 514 161 515 150 514 b 28 625 76 514 28 563 b 139 736 28 688 76 736 b 208 713 165 736 189 728 b 278 736 228 728 251 736 b 347 713 304 736 328 728 b 417 736 367 728 390 736 "},"Ţ":{"ha":556,"x_min":0,"x_max":0,"o":"m 417 42 b 528 -69 479 42 528 -7 b 504 -139 528 -96 519 -119 b 528 -208 519 -158 528 -182 b 417 -319 528 -271 479 -319 b 347 -296 390 -319 367 -311 b 278 -319 328 -311 304 -319 b 167 -208 215 -319 167 -271 b 278 -97 167 -146 215 -97 b 310 -101 289 -97 300 -99 b 306 -69 307 -92 306 -81 b 310 -37 306 -58 307 -47 b 278 -42 300 -40 289 -42 b 167 69 215 -42 167 7 b 190 139 167 96 175 119 b 167 208 175 158 167 182 b 190 278 167 235 175 258 b 167 347 175 297 167 321 b 190 417 167 374 175 397 b 167 486 175 436 167 460 b 171 518 167 497 168 508 b 139 514 161 515 150 514 b 28 625 76 514 28 563 b 139 736 28 688 76 736 b 208 713 165 736 189 728 b 278 736 228 728 251 736 b 347 713 304 736 328 728 b 417 736 367 728 390 736 b 528 625 479 736 528 688 b 417 514 528 563 479 514 b 385 518 406 514 394 515 b 389 486 388 508 389 497 b 365 417 389 460 381 436 b 389 347 381 397 389 374 b 365 278 389 321 381 297 b 389 208 381 258 389 235 b 365 139 389 182 381 158 b 389 69 381 119 389 96 b 385 38 389 58 388 47 b 417 42 394 40 406 42 "},"Ț":{"ha":556,"x_min":0,"x_max":0,"o":"m 417 736 b 528 625 479 736 528 688 b 417 514 528 563 479 514 b 385 518 406 514 394 515 b 389 486 388 508 389 497 b 365 417 389 460 381 436 b 389 347 381 397 389 374 b 365 278 389 321 381 297 b 389 208 381 258 389 235 b 365 139 389 182 381 158 b 389 69 381 119 389 96 b 278 -42 389 7 340 -42 b 167 69 215 -42 167 7 b 190 139 167 96 175 119 b 167 208 175 158 167 182 b 190 278 167 235 175 258 b 167 347 175 297 167 321 b 190 417 167 374 175 397 b 167 486 175 436 167 460 b 171 518 167 497 168 508 b 139 514 161 515 150 514 b 28 625 76 514 28 563 b 139 736 28 688 76 736 b 208 713 165 736 189 728 b 278 736 228 728 251 736 b 347 713 304 736 328 728 b 417 736 367 728 390 736 m 278 -97 b 389 -208 340 -97 389 -146 b 365 -278 389 -235 381 -258 b 389 -347 381 -297 389 -321 b 278 -458 389 -410 340 -458 b 246 -454 267 -458 256 -457 b 250 -486 249 -464 250 -475 b 139 -597 250 -549 201 -597 b 28 -486 76 -597 28 -549 b 139 -375 28 -424 76 -375 b 171 -379 150 -375 161 -376 b 167 -347 168 -369 167 -358 b 171 -315 167 -336 168 -325 b 139 -319 161 -318 150 -319 b 28 -208 76 -319 28 -271 b 139 -97 28 -146 76 -97 b 208 -121 165 -97 189 -106 b 278 -97 228 -106 251 -97 "},"U":{"ha":556,"x_min":0,"x_max":0,"o":"m 504 556 b 528 486 519 536 528 513 b 504 417 528 460 519 436 b 528 347 519 397 528 374 b 504 278 528 321 519 297 b 528 208 519 258 528 235 b 504 139 528 182 519 158 b 528 69 519 119 528 96 b 417 -42 528 7 479 -42 b 347 -18 390 -42 367 -33 b 278 -42 328 -33 304 -42 b 167 69 215 -42 167 7 b 171 101 167 81 168 92 b 139 97 161 99 150 97 b 28 208 76 97 28 146 b 51 278 28 235 36 258 b 28 347 36 297 28 321 b 51 417 28 374 36 397 b 28 486 36 436 28 460 b 51 556 28 513 36 536 b 28 625 36 575 28 599 b 139 736 28 688 76 736 b 250 625 201 736 250 688 b 226 556 250 599 242 575 b 250 486 242 536 250 513 b 226 417 250 460 242 436 b 250 347 242 397 250 374 b 226 278 250 321 242 297 b 250 208 242 258 250 235 b 246 176 250 197 249 186 b 278 181 256 179 267 181 b 310 176 289 181 300 179 b 306 208 307 186 306 197 b 329 278 306 235 314 258 b 306 347 314 297 306 321 b 329 417 306 374 314 397 b 306 486 314 436 306 460 b 329 556 306 513 314 536 b 306 625 314 575 306 599 b 417 736 306 688 354 736 b 528 625 479 736 528 688 b 504 556 528 599 519 575 "},"Ú":{"ha":556,"x_min":0,"x_max":0,"o":"m 278 792 b 167 903 215 792 167 840 b 278 1014 167 965 215 1014 b 310 1010 289 1014 300 1013 b 306 1042 307 1019 306 1031 b 417 1153 306 1104 354 1153 b 528 1042 479 1153 528 1104 b 417 931 528 979 479 931 b 385 935 406 931 394 932 b 389 903 388 925 389 914 b 278 792 389 840 340 792 m 417 736 b 528 625 479 736 528 688 b 504 556 528 599 519 575 b 528 486 519 536 528 513 b 504 417 528 460 519 436 b 528 347 519 397 528 374 b 504 278 528 321 519 297 b 528 208 519 258 528 235 b 504 139 528 182 519 158 b 528 69 519 119 528 96 b 417 -42 528 7 479 -42 b 347 -18 390 -42 367 -33 b 278 -42 328 -33 304 -42 b 167 69 215 -42 167 7 b 171 101 167 81 168 92 b 139 97 161 99 150 97 b 28 208 76 97 28 146 b 51 278 28 235 36 258 b 28 347 36 297 28 321 b 51 417 28 374 36 397 b 28 486 36 436 28 460 b 51 556 28 513 36 536 b 28 625 36 575 28 599 b 139 736 28 688 76 736 b 250 625 201 736 250 688 b 226 556 250 599 242 575 b 250 486 242 536 250 513 b 226 417 250 460 242 436 b 250 347 242 397 250 374 b 226 278 250 321 242 297 b 250 208 242 258 250 235 b 246 176 250 197 249 186 b 278 181 256 179 267 181 b 310 176 289 181 300 179 b 306 208 307 186 306 197 b 329 278 306 235 314 258 b 306 347 314 297 306 321 b 329 417 306 374 314 397 b 306 486 314 436 306 460 b 329 556 306 513 314 536 b 306 625 314 575 306 599 b 417 736 306 688 354 736 "},"Û":{"ha":556,"x_min":0,"x_max":0,"o":"m 139 792 b 28 903 76 792 28 840 b 139 1014 28 965 76 1014 b 171 1010 150 1014 161 1013 b 167 1042 168 1019 167 1031 b 278 1153 167 1104 215 1153 b 389 1042 340 1153 389 1104 b 385 1010 389 1031 388 1019 b 417 1014 394 1013 406 1014 b 528 903 479 1014 528 965 b 417 792 528 840 479 792 b 306 903 354 792 306 840 b 310 935 306 914 307 925 b 278 931 300 932 289 931 b 246 935 267 931 256 932 b 250 903 249 925 250 914 b 139 792 250 840 201 792 m 417 736 b 528 625 479 736 528 688 b 504 556 528 599 519 575 b 528 486 519 536 528 513 b 504 417 528 460 519 436 b 528 347 519 397 528 374 b 504 278 528 321 519 297 b 528 208 519 258 528 235 b 504 139 528 182 519 158 b 528 69 519 119 528 96 b 417 -42 528 7 479 -42 b 347 -18 390 -42 367 -33 b 278 -42 328 -33 304 -42 b 167 69 215 -42 167 7 b 171 101 167 81 168 92 b 139 97 161 99 150 97 b 28 208 76 97 28 146 b 51 278 28 235 36 258 b 28 347 36 297 28 321 b 51 417 28 374 36 397 b 28 486 36 436 28 460 b 51 556 28 513 36 536 b 28 625 36 575 28 599 b 139 736 28 688 76 736 b 250 625 201 736 250 688 b 226 556 250 599 242 575 b 250 486 242 536 250 513 b 226 417 250 460 242 436 b 250 347 242 397 250 374 b 226 278 250 321 242 297 b 250 208 242 258 250 235 b 246 176 250 197 249 186 b 278 181 256 179 267 181 b 310 176 289 181 300 179 b 306 208 307 186 306 197 b 329 278 306 235 314 258 b 306 347 314 297 306 321 b 329 417 306 374 314 397 b 306 486 314 436 306 460 b 329 556 306 513 314 536 b 306 625 314 575 306 599 b 417 736 306 688 354 736 "},"Ü":{"ha":556,"x_min":0,"x_max":0,"o":"m 139 792 b 28 903 76 792 28 840 b 139 1014 28 965 76 1014 b 250 903 201 1014 250 965 b 139 792 250 840 201 792 m 417 792 b 306 903 354 792 306 840 b 417 1014 306 965 354 1014 b 528 903 479 1014 528 965 b 417 792 528 840 479 792 m 417 736 b 528 625 479 736 528 688 b 504 556 528 599 519 575 b 528 486 519 536 528 513 b 504 417 528 460 519 436 b 528 347 519 397 528 374 b 504 278 528 321 519 297 b 528 208 519 258 528 235 b 504 139 528 182 519 158 b 528 69 519 119 528 96 b 417 -42 528 7 479 -42 b 347 -18 390 -42 367 -33 b 278 -42 328 -33 304 -42 b 167 69 215 -42 167 7 b 171 101 167 81 168 92 b 139 97 161 99 150 97 b 28 208 76 97 28 146 b 51 278 28 235 36 258 b 28 347 36 297 28 321 b 51 417 28 374 36 397 b 28 486 36 436 28 460 b 51 556 28 513 36 536 b 28 625 36 575 28 599 b 139 736 28 688 76 736 b 250 625 201 736 250 688 b 226 556 250 599 242 575 b 250 486 242 536 250 513 b 226 417 250 460 242 436 b 250 347 242 397 250 374 b 226 278 250 321 242 297 b 250 208 242 258 250 235 b 246 176 250 197 249 186 b 278 181 256 179 267 181 b 310 176 289 181 300 179 b 306 208 307 186 306 197 b 329 278 306 235 314 258 b 306 347 314 297 306 321 b 329 417 306 374 314 397 b 306 486 314 436 306 460 b 329 556 306 513 314 536 b 306 625 314 575 306 599 b 417 736 306 688 354 736 "},"Ù":{"ha":556,"x_min":0,"x_max":0,"o":"m 139 931 b 28 1042 76 931 28 979 b 139 1153 28 1104 76 1153 b 250 1042 201 1153 250 1104 b 246 1010 250 1031 249 1019 b 278 1014 256 1013 267 1014 b 389 903 340 1014 389 965 b 278 792 389 840 340 792 b 167 903 215 792 167 840 b 171 935 167 914 168 925 b 139 931 161 932 150 931 m 504 556 b 528 486 519 536 528 513 b 504 417 528 460 519 436 b 528 347 519 397 528 374 b 504 278 528 321 519 297 b 528 208 519 258 528 235 b 504 139 528 182 519 158 b 528 69 519 119 528 96 b 417 -42 528 7 479 -42 b 347 -18 390 -42 367 -33 b 278 -42 328 -33 304 -42 b 167 69 215 -42 167 7 b 171 101 167 81 168 92 b 139 97 161 99 150 97 b 28 208 76 97 28 146 b 51 278 28 235 36 258 b 28 347 36 297 28 321 b 51 417 28 374 36 397 b 28 486 36 436 28 460 b 51 556 28 513 36 536 b 28 625 36 575 28 599 b 139 736 28 688 76 736 b 250 625 201 736 250 688 b 226 556 250 599 242 575 b 250 486 242 536 250 513 b 226 417 250 460 242 436 b 250 347 242 397 250 374 b 226 278 250 321 242 297 b 250 208 242 258 250 235 b 246 176 250 197 249 186 b 278 181 256 179 267 181 b 310 176 289 181 300 179 b 306 208 307 186 306 197 b 329 278 306 235 314 258 b 306 347 314 297 306 321 b 329 417 306 374 314 397 b 306 486 314 436 306 460 b 329 556 306 513 314 536 b 306 625 314 575 306 599 b 417 736 306 688 354 736 b 528 625 479 736 528 688 b 504 556 528 599 519 575 "},"Ű":{"ha":556,"x_min":0,"x_max":0,"o":"m 556 1153 b 667 1042 618 1153 667 1104 b 556 931 667 979 618 931 b 524 935 544 931 533 932 b 528 903 526 925 528 914 b 417 792 528 840 479 792 b 306 903 354 792 306 840 b 310 935 306 914 307 925 b 278 931 300 932 289 931 b 246 935 267 931 256 932 b 250 903 249 925 250 914 b 139 792 250 840 201 792 b 28 903 76 792 28 840 b 139 1014 28 965 76 1014 b 171 1010 150 1014 161 1013 b 167 1042 168 1019 167 1031 b 278 1153 167 1104 215 1153 b 389 1042 340 1153 389 1104 b 385 1010 389 1031 388 1019 b 417 1014 394 1013 406 1014 b 449 1010 428 1014 439 1013 b 444 1042 446 1019 444 1031 b 556 1153 444 1104 493 1153 m 417 736 b 528 625 479 736 528 688 b 504 556 528 599 519 575 b 528 486 519 536 528 513 b 504 417 528 460 519 436 b 528 347 519 397 528 374 b 504 278 528 321 519 297 b 528 208 519 258 528 235 b 504 139 528 182 519 158 b 528 69 519 119 528 96 b 417 -42 528 7 479 -42 b 347 -18 390 -42 367 -33 b 278 -42 328 -33 304 -42 b 167 69 215 -42 167 7 b 171 101 167 81 168 92 b 139 97 161 99 150 97 b 28 208 76 97 28 146 b 51 278 28 235 36 258 b 28 347 36 297 28 321 b 51 417 28 374 36 397 b 28 486 36 436 28 460 b 51 556 28 513 36 536 b 28 625 36 575 28 599 b 139 736 28 688 76 736 b 250 625 201 736 250 688 b 226 556 250 599 242 575 b 250 486 242 536 250 513 b 226 417 250 460 242 436 b 250 347 242 397 250 374 b 226 278 250 321 242 297 b 250 208 242 258 250 235 b 246 176 250 197 249 186 b 278 181 256 179 267 181 b 310 176 289 181 300 179 b 306 208 307 186 306 197 b 329 278 306 235 314 258 b 306 347 314 297 306 321 b 329 417 306 374 314 397 b 306 486 314 436 306 460 b 329 556 306 513 314 536 b 306 625 314 575 306 599 b 417 736 306 688 354 736 "},"Ū":{"ha":556,"x_min":0,"x_max":0,"o":"m 139 792 b 28 903 76 792 28 840 b 139 1014 28 965 76 1014 b 208 990 165 1014 189 1006 b 278 1014 228 1006 251 1014 b 347 990 304 1014 328 1006 b 417 1014 367 1006 390 1014 b 528 903 479 1014 528 965 b 417 792 528 840 479 792 b 347 815 390 792 367 800 b 278 792 328 800 304 792 b 208 815 251 792 228 800 b 139 792 189 800 165 792 m 417 736 b 528 625 479 736 528 688 b 504 556 528 599 519 575 b 528 486 519 536 528 513 b 504 417 528 460 519 436 b 528 347 519 397 528 374 b 504 278 528 321 519 297 b 528 208 519 258 528 235 b 504 139 528 182 519 158 b 528 69 519 119 528 96 b 417 -42 528 7 479 -42 b 347 -18 390 -42 367 -33 b 278 -42 328 -33 304 -42 b 167 69 215 -42 167 7 b 171 101 167 81 168 92 b 139 97 161 99 150 97 b 28 208 76 97 28 146 b 51 278 28 235 36 258 b 28 347 36 297 28 321 b 51 417 28 374 36 397 b 28 486 36 436 28 460 b 51 556 28 513 36 536 b 28 625 36 575 28 599 b 139 736 28 688 76 736 b 250 625 201 736 250 688 b 226 556 250 599 242 575 b 250 486 242 536 250 513 b 226 417 250 460 242 436 b 250 347 242 397 250 374 b 226 278 250 321 242 297 b 250 208 242 258 250 235 b 246 176 250 197 249 186 b 278 181 256 179 267 181 b 310 176 289 181 300 179 b 306 208 307 186 306 197 b 329 278 306 235 314 258 b 306 347 314 297 306 321 b 329 417 306 374 314 397 b 306 486 314 436 306 460 b 329 556 306 513 314 536 b 306 625 314 575 306 599 b 417 736 306 688 354 736 "},"Ų":{"ha":556,"x_min":0,"x_max":0,"o":"m 504 556 b 528 486 519 536 528 513 b 504 417 528 460 519 436 b 528 347 519 397 528 374 b 504 278 528 321 519 297 b 528 208 519 258 528 235 b 504 139 528 182 519 158 b 528 69 519 119 528 96 b 417 -42 528 7 479 -42 b 385 -37 406 -42 394 -40 b 389 -69 388 -47 389 -58 b 385 -101 389 -81 388 -92 b 417 -97 394 -99 406 -97 b 528 -208 479 -97 528 -146 b 417 -319 528 -271 479 -319 b 347 -296 390 -319 367 -311 b 278 -319 328 -311 304 -319 b 167 -208 215 -319 167 -271 b 190 -139 167 -182 175 -158 b 167 -69 175 -119 167 -96 b 190 0 167 -43 175 -19 b 167 69 175 19 167 43 b 171 101 167 81 168 92 b 139 97 161 99 150 97 b 28 208 76 97 28 146 b 51 278 28 235 36 258 b 28 347 36 297 28 321 b 51 417 28 374 36 397 b 28 486 36 436 28 460 b 51 556 28 513 36 536 b 28 625 36 575 28 599 b 139 736 28 688 76 736 b 250 625 201 736 250 688 b 226 556 250 599 242 575 b 250 486 242 536 250 513 b 226 417 250 460 242 436 b 250 347 242 397 250 374 b 226 278 250 321 242 297 b 250 208 242 258 250 235 b 246 176 250 197 249 186 b 278 181 256 179 267 181 b 310 176 289 181 300 179 b 306 208 307 186 306 197 b 329 278 306 235 314 258 b 306 347 314 297 306 321 b 329 417 306 374 314 397 b 306 486 314 436 306 460 b 329 556 306 513 314 536 b 306 625 314 575 306 599 b 417 736 306 688 354 736 b 528 625 479 736 528 688 b 504 556 528 599 519 575 "},"Ů":{"ha":556,"x_min":0,"x_max":0,"o":"m 417 736 b 528 625 479 736 528 688 b 504 556 528 599 519 575 b 528 486 519 536 528 513 b 504 417 528 460 519 436 b 528 347 519 397 528 374 b 504 278 528 321 519 297 b 528 208 519 258 528 235 b 504 139 528 182 519 158 b 528 69 519 119 528 96 b 417 -42 528 7 479 -42 b 347 -18 390 -42 367 -33 b 278 -42 328 -33 304 -42 b 167 69 215 -42 167 7 b 171 101 167 81 168 92 b 139 97 161 99 150 97 b 28 208 76 97 28 146 b 51 278 28 235 36 258 b 28 347 36 297 28 321 b 51 417 28 374 36 397 b 28 486 36 436 28 460 b 51 556 28 513 36 536 b 28 625 36 575 28 599 b 139 736 28 688 76 736 b 171 732 150 736 161 735 b 167 764 168 742 167 753 b 171 796 167 775 168 786 b 139 792 161 793 150 792 b 28 903 76 792 28 840 b 139 1014 28 965 76 1014 b 171 1010 150 1014 161 1013 b 167 1042 168 1019 167 1031 b 278 1153 167 1104 215 1153 b 389 1042 340 1153 389 1104 b 385 1010 389 1031 388 1019 b 417 1014 394 1013 406 1014 b 528 903 479 1014 528 965 b 417 792 528 840 479 792 b 385 796 406 792 394 793 b 389 764 388 786 389 775 b 385 732 389 753 388 742 b 417 736 394 735 406 736 m 310 935 b 278 931 300 932 289 931 b 246 935 267 931 256 932 b 250 903 249 925 250 914 b 246 871 250 892 249 881 b 278 875 256 874 267 875 b 310 871 289 875 300 874 b 306 903 307 881 306 892 b 310 935 306 914 307 925 m 246 176 b 278 181 256 179 267 181 b 310 176 289 181 300 179 b 306 208 307 186 306 197 b 329 278 306 235 314 258 b 306 347 314 297 306 321 b 329 417 306 374 314 397 b 306 486 314 436 306 460 b 329 556 306 513 314 536 b 306 625 314 575 306 599 b 310 657 306 636 307 647 b 278 653 300 654 289 653 b 246 657 267 653 256 654 b 250 625 249 647 250 636 b 226 556 250 599 242 575 b 250 486 242 536 250 513 b 226 417 250 460 242 436 b 250 347 242 397 250 374 b 226 278 250 321 242 297 b 250 208 242 258 250 235 b 246 176 250 197 249 186 "},"V":{"ha":556,"x_min":0,"x_max":0,"o":"m 504 556 b 528 486 519 536 528 513 b 504 417 528 460 519 436 b 528 347 519 397 528 374 b 504 278 528 321 519 297 b 528 208 519 258 528 235 b 417 97 528 146 479 97 b 385 101 406 97 394 99 b 389 69 388 92 389 81 b 278 -42 389 7 340 -42 b 167 69 215 -42 167 7 b 171 101 167 81 168 92 b 139 97 161 99 150 97 b 28 208 76 97 28 146 b 51 278 28 235 36 258 b 28 347 36 297 28 321 b 51 417 28 374 36 397 b 28 486 36 436 28 460 b 51 556 28 513 36 536 b 28 625 36 575 28 599 b 139 736 28 688 76 736 b 250 625 201 736 250 688 b 226 556 250 599 242 575 b 250 486 242 536 250 513 b 226 417 250 460 242 436 b 250 347 242 397 250 374 b 226 278 250 321 242 297 b 250 208 242 258 250 235 b 246 176 250 197 249 186 b 278 181 256 179 267 181 b 310 176 289 181 300 179 b 306 208 307 186 306 197 b 329 278 306 235 314 258 b 306 347 314 297 306 321 b 329 417 306 374 314 397 b 306 486 314 436 306 460 b 329 556 306 513 314 536 b 306 625 314 575 306 599 b 417 736 306 688 354 736 b 528 625 479 736 528 688 b 504 556 528 599 519 575 "},"W":{"ha":833,"x_min":0,"x_max":0,"o":"m 782 556 b 806 486 797 536 806 513 b 782 417 806 460 797 436 b 806 347 797 397 806 374 b 782 278 806 321 797 297 b 806 208 797 258 806 235 b 694 97 806 146 757 97 b 663 101 683 97 672 99 b 667 69 665 92 667 81 b 556 -42 667 7 618 -42 b 444 69 493 -42 444 7 b 449 101 444 81 446 92 b 417 97 439 99 428 97 b 385 101 406 97 394 99 b 389 69 388 92 389 81 b 278 -42 389 7 340 -42 b 167 69 215 -42 167 7 b 171 101 167 81 168 92 b 139 97 161 99 150 97 b 28 208 76 97 28 146 b 51 278 28 235 36 258 b 28 347 36 297 28 321 b 51 417 28 374 36 397 b 28 486 36 436 28 460 b 51 556 28 513 36 536 b 28 625 36 575 28 599 b 139 736 28 688 76 736 b 250 625 201 736 250 688 b 226 556 250 599 242 575 b 250 486 242 536 250 513 b 226 417 250 460 242 436 b 250 347 242 397 250 374 b 226 278 250 321 242 297 b 250 208 242 258 250 235 b 246 176 250 197 249 186 b 278 181 256 179 267 181 b 310 176 289 181 300 179 b 306 208 307 186 306 197 b 329 278 306 235 314 258 b 306 347 314 297 306 321 b 329 417 306 374 314 397 b 306 486 314 436 306 460 b 329 556 306 513 314 536 b 306 625 314 575 306 599 b 417 736 306 688 354 736 b 528 625 479 736 528 688 b 504 556 528 599 519 575 b 528 486 519 536 528 513 b 504 417 528 460 519 436 b 528 347 519 397 528 374 b 504 278 528 321 519 297 b 528 208 519 258 528 235 b 524 176 528 197 526 186 b 556 181 533 179 544 181 b 588 176 567 181 578 179 b 583 208 585 186 583 197 b 607 278 583 235 592 258 b 583 347 592 297 583 321 b 607 417 583 374 592 397 b 583 486 592 436 583 460 b 607 556 583 513 592 536 b 583 625 592 575 583 599 b 694 736 583 688 632 736 b 806 625 757 736 806 688 b 782 556 806 599 797 575 "},"Ẃ":{"ha":833,"x_min":0,"x_max":0,"o":"m 417 792 b 306 903 354 792 306 840 b 417 1014 306 965 354 1014 b 449 1010 428 1014 439 1013 b 444 1042 446 1019 444 1031 b 556 1153 444 1104 493 1153 b 667 1042 618 1153 667 1104 b 556 931 667 979 618 931 b 524 935 544 931 533 932 b 528 903 526 925 528 914 b 417 792 528 840 479 792 m 782 556 b 806 486 797 536 806 513 b 782 417 806 460 797 436 b 806 347 797 397 806 374 b 782 278 806 321 797 297 b 806 208 797 258 806 235 b 694 97 806 146 757 97 b 663 101 683 97 672 99 b 667 69 665 92 667 81 b 556 -42 667 7 618 -42 b 444 69 493 -42 444 7 b 449 101 444 81 446 92 b 417 97 439 99 428 97 b 385 101 406 97 394 99 b 389 69 388 92 389 81 b 278 -42 389 7 340 -42 b 167 69 215 -42 167 7 b 171 101 167 81 168 92 b 139 97 161 99 150 97 b 28 208 76 97 28 146 b 51 278 28 235 36 258 b 28 347 36 297 28 321 b 51 417 28 374 36 397 b 28 486 36 436 28 460 b 51 556 28 513 36 536 b 28 625 36 575 28 599 b 139 736 28 688 76 736 b 250 625 201 736 250 688 b 226 556 250 599 242 575 b 250 486 242 536 250 513 b 226 417 250 460 242 436 b 250 347 242 397 250 374 b 226 278 250 321 242 297 b 250 208 242 258 250 235 b 246 176 250 197 249 186 b 278 181 256 179 267 181 b 310 176 289 181 300 179 b 306 208 307 186 306 197 b 329 278 306 235 314 258 b 306 347 314 297 306 321 b 329 417 306 374 314 397 b 306 486 314 436 306 460 b 329 556 306 513 314 536 b 306 625 314 575 306 599 b 417 736 306 688 354 736 b 528 625 479 736 528 688 b 504 556 528 599 519 575 b 528 486 519 536 528 513 b 504 417 528 460 519 436 b 528 347 519 397 528 374 b 504 278 528 321 519 297 b 528 208 519 258 528 235 b 524 176 528 197 526 186 b 556 181 533 179 544 181 b 588 176 567 181 578 179 b 583 208 585 186 583 197 b 607 278 583 235 592 258 b 583 347 592 297 583 321 b 607 417 583 374 592 397 b 583 486 592 436 583 460 b 607 556 583 513 592 536 b 583 625 592 575 583 599 b 694 736 583 688 632 736 b 806 625 757 736 806 688 b 782 556 806 599 797 575 "},"Ŵ":{"ha":833,"x_min":0,"x_max":0,"o":"m 278 792 b 167 903 215 792 167 840 b 278 1014 167 965 215 1014 b 310 1010 289 1014 300 1013 b 306 1042 307 1019 306 1031 b 417 1153 306 1104 354 1153 b 528 1042 479 1153 528 1104 b 524 1010 528 1031 526 1019 b 556 1014 533 1013 544 1014 b 667 903 618 1014 667 965 b 556 792 667 840 618 792 b 444 903 493 792 444 840 b 449 935 444 914 446 925 b 417 931 439 932 428 931 b 385 935 406 931 394 932 b 389 903 388 925 389 914 b 278 792 389 840 340 792 m 782 556 b 806 486 797 536 806 513 b 782 417 806 460 797 436 b 806 347 797 397 806 374 b 782 278 806 321 797 297 b 806 208 797 258 806 235 b 694 97 806 146 757 97 b 663 101 683 97 672 99 b 667 69 665 92 667 81 b 556 -42 667 7 618 -42 b 444 69 493 -42 444 7 b 449 101 444 81 446 92 b 417 97 439 99 428 97 b 385 101 406 97 394 99 b 389 69 388 92 389 81 b 278 -42 389 7 340 -42 b 167 69 215 -42 167 7 b 171 101 167 81 168 92 b 139 97 161 99 150 97 b 28 208 76 97 28 146 b 51 278 28 235 36 258 b 28 347 36 297 28 321 b 51 417 28 374 36 397 b 28 486 36 436 28 460 b 51 556 28 513 36 536 b 28 625 36 575 28 599 b 139 736 28 688 76 736 b 250 625 201 736 250 688 b 226 556 250 599 242 575 b 250 486 242 536 250 513 b 226 417 250 460 242 436 b 250 347 242 397 250 374 b 226 278 250 321 242 297 b 250 208 242 258 250 235 b 246 176 250 197 249 186 b 278 181 256 179 267 181 b 310 176 289 181 300 179 b 306 208 307 186 306 197 b 329 278 306 235 314 258 b 306 347 314 297 306 321 b 329 417 306 374 314 397 b 306 486 314 436 306 460 b 329 556 306 513 314 536 b 306 625 314 575 306 599 b 417 736 306 688 354 736 b 528 625 479 736 528 688 b 504 556 528 599 519 575 b 528 486 519 536 528 513 b 504 417 528 460 519 436 b 528 347 519 397 528 374 b 504 278 528 321 519 297 b 528 208 519 258 528 235 b 524 176 528 197 526 186 b 556 181 533 179 544 181 b 588 176 567 181 578 179 b 583 208 585 186 583 197 b 607 278 583 235 592 258 b 583 347 592 297 583 321 b 607 417 583 374 592 397 b 583 486 592 436 583 460 b 607 556 583 513 592 536 b 583 625 592 575 583 599 b 694 736 583 688 632 736 b 806 625 757 736 806 688 b 782 556 806 599 797 575 "},"Ẅ":{"ha":833,"x_min":0,"x_max":0,"o":"m 278 792 b 167 903 215 792 167 840 b 278 1014 167 965 215 1014 b 389 903 340 1014 389 965 b 278 792 389 840 340 792 m 556 792 b 444 903 493 792 444 840 b 556 1014 444 965 493 1014 b 667 903 618 1014 667 965 b 556 792 667 840 618 792 m 782 556 b 806 486 797 536 806 513 b 782 417 806 460 797 436 b 806 347 797 397 806 374 b 782 278 806 321 797 297 b 806 208 797 258 806 235 b 694 97 806 146 757 97 b 663 101 683 97 672 99 b 667 69 665 92 667 81 b 556 -42 667 7 618 -42 b 444 69 493 -42 444 7 b 449 101 444 81 446 92 b 417 97 439 99 428 97 b 385 101 406 97 394 99 b 389 69 388 92 389 81 b 278 -42 389 7 340 -42 b 167 69 215 -42 167 7 b 171 101 167 81 168 92 b 139 97 161 99 150 97 b 28 208 76 97 28 146 b 51 278 28 235 36 258 b 28 347 36 297 28 321 b 51 417 28 374 36 397 b 28 486 36 436 28 460 b 51 556 28 513 36 536 b 28 625 36 575 28 599 b 139 736 28 688 76 736 b 250 625 201 736 250 688 b 226 556 250 599 242 575 b 250 486 242 536 250 513 b 226 417 250 460 242 436 b 250 347 242 397 250 374 b 226 278 250 321 242 297 b 250 208 242 258 250 235 b 246 176 250 197 249 186 b 278 181 256 179 267 181 b 310 176 289 181 300 179 b 306 208 307 186 306 197 b 329 278 306 235 314 258 b 306 347 314 297 306 321 b 329 417 306 374 314 397 b 306 486 314 436 306 460 b 329 556 306 513 314 536 b 306 625 314 575 306 599 b 417 736 306 688 354 736 b 528 625 479 736 528 688 b 504 556 528 599 519 575 b 528 486 519 536 528 513 b 504 417 528 460 519 436 b 528 347 519 397 528 374 b 504 278 528 321 519 297 b 528 208 519 258 528 235 b 524 176 528 197 526 186 b 556 181 533 179 544 181 b 588 176 567 181 578 179 b 583 208 585 186 583 197 b 607 278 583 235 592 258 b 583 347 592 297 583 321 b 607 417 583 374 592 397 b 583 486 592 436 583 460 b 607 556 583 513 592 536 b 583 625 592 575 583 599 b 694 736 583 688 632 736 b 806 625 757 736 806 688 b 782 556 806 599 797 575 "},"Ẁ":{"ha":833,"x_min":0,"x_max":0,"o":"m 278 931 b 167 1042 215 931 167 979 b 278 1153 167 1104 215 1153 b 389 1042 340 1153 389 1104 b 385 1010 389 1031 388 1019 b 417 1014 394 1013 406 1014 b 528 903 479 1014 528 965 b 417 792 528 840 479 792 b 306 903 354 792 306 840 b 310 935 306 914 307 925 b 278 931 300 932 289 931 m 782 556 b 806 486 797 536 806 513 b 782 417 806 460 797 436 b 806 347 797 397 806 374 b 782 278 806 321 797 297 b 806 208 797 258 806 235 b 694 97 806 146 757 97 b 663 101 683 97 672 99 b 667 69 665 92 667 81 b 556 -42 667 7 618 -42 b 444 69 493 -42 444 7 b 449 101 444 81 446 92 b 417 97 439 99 428 97 b 385 101 406 97 394 99 b 389 69 388 92 389 81 b 278 -42 389 7 340 -42 b 167 69 215 -42 167 7 b 171 101 167 81 168 92 b 139 97 161 99 150 97 b 28 208 76 97 28 146 b 51 278 28 235 36 258 b 28 347 36 297 28 321 b 51 417 28 374 36 397 b 28 486 36 436 28 460 b 51 556 28 513 36 536 b 28 625 36 575 28 599 b 139 736 28 688 76 736 b 250 625 201 736 250 688 b 226 556 250 599 242 575 b 250 486 242 536 250 513 b 226 417 250 460 242 436 b 250 347 242 397 250 374 b 226 278 250 321 242 297 b 250 208 242 258 250 235 b 246 176 250 197 249 186 b 278 181 256 179 267 181 b 310 176 289 181 300 179 b 306 208 307 186 306 197 b 329 278 306 235 314 258 b 306 347 314 297 306 321 b 329 417 306 374 314 397 b 306 486 314 436 306 460 b 329 556 306 513 314 536 b 306 625 314 575 306 599 b 417 736 306 688 354 736 b 528 625 479 736 528 688 b 504 556 528 599 519 575 b 528 486 519 536 528 513 b 504 417 528 460 519 436 b 528 347 519 397 528 374 b 504 278 528 321 519 297 b 528 208 519 258 528 235 b 524 176 528 197 526 186 b 556 181 533 179 544 181 b 588 176 567 181 578 179 b 583 208 585 186 583 197 b 607 278 583 235 592 258 b 583 347 592 297 583 321 b 607 417 583 374 592 397 b 583 486 592 436 583 460 b 607 556 583 513 592 536 b 583 625 592 575 583 599 b 694 736 583 688 632 736 b 806 625 757 736 806 688 b 782 556 806 599 797 575 "},"X":{"ha":556,"x_min":0,"x_max":0,"o":"m 528 486 b 417 375 528 424 479 375 b 385 379 406 375 394 376 b 389 347 388 369 389 358 b 385 315 389 336 388 325 b 417 319 394 318 406 319 b 528 208 479 319 528 271 b 504 139 528 182 519 158 b 528 69 519 119 528 96 b 417 -42 528 7 479 -42 b 306 69 354 -42 306 7 b 329 139 306 96 314 119 b 306 208 314 158 306 182 b 310 240 306 219 307 231 b 278 236 300 238 289 236 b 246 240 267 236 256 238 b 250 208 249 231 250 219 b 226 139 250 182 242 158 b 250 69 242 119 250 96 b 139 -42 250 7 201 -42 b 28 69 76 -42 28 7 b 51 139 28 96 36 119 b 28 208 36 158 28 182 b 139 319 28 271 76 319 b 171 315 150 319 161 318 b 167 347 168 325 167 336 b 171 379 167 358 168 369 b 139 375 161 376 150 375 b 28 486 76 375 28 424 b 51 556 28 513 36 536 b 28 625 36 575 28 599 b 139 736 28 688 76 736 b 250 625 201 736 250 688 b 226 556 250 599 242 575 b 250 486 242 536 250 513 b 246 454 250 475 249 464 b 278 458 256 457 267 458 b 310 454 289 458 300 457 b 306 486 307 464 306 475 b 329 556 306 513 314 536 b 306 625 314 575 306 599 b 417 736 306 688 354 736 b 528 625 479 736 528 688 b 504 556 528 599 519 575 b 528 486 519 536 528 513 "},"Y":{"ha":556,"x_min":0,"x_max":0,"o":"m 528 625 b 504 556 528 599 519 575 b 528 486 519 536 528 513 b 417 375 528 424 479 375 b 385 379 406 375 394 376 b 389 347 388 369 389 358 b 365 278 389 321 381 297 b 389 208 381 258 389 235 b 365 139 389 182 381 158 b 389 69 381 119 389 96 b 278 -42 389 7 340 -42 b 167 69 215 -42 167 7 b 190 139 167 96 175 119 b 167 208 175 158 167 182 b 190 278 167 235 175 258 b 167 347 175 297 167 321 b 171 379 167 358 168 369 b 139 375 161 376 150 375 b 28 486 76 375 28 424 b 51 556 28 513 36 536 b 28 625 36 575 28 599 b 139 736 28 688 76 736 b 250 625 201 736 250 688 b 226 556 250 599 242 575 b 250 486 242 536 250 513 b 246 454 250 475 249 464 b 278 458 256 457 267 458 b 310 454 289 458 300 457 b 306 486 307 464 306 475 b 329 556 306 513 314 536 b 306 625 314 575 306 599 b 417 736 306 688 354 736 b 528 625 479 736 528 688 "},"Ý":{"ha":556,"x_min":0,"x_max":0,"o":"m 278 792 b 167 903 215 792 167 840 b 278 1014 167 965 215 1014 b 310 1010 289 1014 300 1013 b 306 1042 307 1019 306 1031 b 417 1153 306 1104 354 1153 b 528 1042 479 1153 528 1104 b 417 931 528 979 479 931 b 385 935 406 931 394 932 b 389 903 388 925 389 914 b 278 792 389 840 340 792 m 417 736 b 528 625 479 736 528 688 b 504 556 528 599 519 575 b 528 486 519 536 528 513 b 417 375 528 424 479 375 b 385 379 406 375 394 376 b 389 347 388 369 389 358 b 365 278 389 321 381 297 b 389 208 381 258 389 235 b 365 139 389 182 381 158 b 389 69 381 119 389 96 b 278 -42 389 7 340 -42 b 167 69 215 -42 167 7 b 190 139 167 96 175 119 b 167 208 175 158 167 182 b 190 278 167 235 175 258 b 167 347 175 297 167 321 b 171 379 167 358 168 369 b 139 375 161 376 150 375 b 28 486 76 375 28 424 b 51 556 28 513 36 536 b 28 625 36 575 28 599 b 139 736 28 688 76 736 b 250 625 201 736 250 688 b 226 556 250 599 242 575 b 250 486 242 536 250 513 b 246 454 250 475 249 464 b 278 458 256 457 267 458 b 310 454 289 458 300 457 b 306 486 307 464 306 475 b 329 556 306 513 314 536 b 306 625 314 575 306 599 b 417 736 306 688 354 736 "},"Ŷ":{"ha":556,"x_min":0,"x_max":0,"o":"m 139 792 b 28 903 76 792 28 840 b 139 1014 28 965 76 1014 b 171 1010 150 1014 161 1013 b 167 1042 168 1019 167 1031 b 278 1153 167 1104 215 1153 b 389 1042 340 1153 389 1104 b 385 1010 389 1031 388 1019 b 417 1014 394 1013 406 1014 b 528 903 479 1014 528 965 b 417 792 528 840 479 792 b 306 903 354 792 306 840 b 310 935 306 914 307 925 b 278 931 300 932 289 931 b 246 935 267 931 256 932 b 250 903 249 925 250 914 b 139 792 250 840 201 792 m 417 736 b 528 625 479 736 528 688 b 504 556 528 599 519 575 b 528 486 519 536 528 513 b 417 375 528 424 479 375 b 385 379 406 375 394 376 b 389 347 388 369 389 358 b 365 278 389 321 381 297 b 389 208 381 258 389 235 b 365 139 389 182 381 158 b 389 69 381 119 389 96 b 278 -42 389 7 340 -42 b 167 69 215 -42 167 7 b 190 139 167 96 175 119 b 167 208 175 158 167 182 b 190 278 167 235 175 258 b 167 347 175 297 167 321 b 171 379 167 358 168 369 b 139 375 161 376 150 375 b 28 486 76 375 28 424 b 51 556 28 513 36 536 b 28 625 36 575 28 599 b 139 736 28 688 76 736 b 250 625 201 736 250 688 b 226 556 250 599 242 575 b 250 486 242 536 250 513 b 246 454 250 475 249 464 b 278 458 256 457 267 458 b 310 454 289 458 300 457 b 306 486 307 464 306 475 b 329 556 306 513 314 536 b 306 625 314 575 306 599 b 417 736 306 688 354 736 "},"Ÿ":{"ha":556,"x_min":0,"x_max":0,"o":"m 139 792 b 28 903 76 792 28 840 b 139 1014 28 965 76 1014 b 250 903 201 1014 250 965 b 139 792 250 840 201 792 m 417 792 b 306 903 354 792 306 840 b 417 1014 306 965 354 1014 b 528 903 479 1014 528 965 b 417 792 528 840 479 792 m 417 736 b 528 625 479 736 528 688 b 504 556 528 599 519 575 b 528 486 519 536 528 513 b 417 375 528 424 479 375 b 385 379 406 375 394 376 b 389 347 388 369 389 358 b 365 278 389 321 381 297 b 389 208 381 258 389 235 b 365 139 389 182 381 158 b 389 69 381 119 389 96 b 278 -42 389 7 340 -42 b 167 69 215 -42 167 7 b 190 139 167 96 175 119 b 167 208 175 158 167 182 b 190 278 167 235 175 258 b 167 347 175 297 167 321 b 171 379 167 358 168 369 b 139 375 161 376 150 375 b 28 486 76 375 28 424 b 51 556 28 513 36 536 b 28 625 36 575 28 599 b 139 736 28 688 76 736 b 250 625 201 736 250 688 b 226 556 250 599 242 575 b 250 486 242 536 250 513 b 246 454 250 475 249 464 b 278 458 256 457 267 458 b 310 454 289 458 300 457 b 306 486 307 464 306 475 b 329 556 306 513 314 536 b 306 625 314 575 306 599 b 417 736 306 688 354 736 "},"Ỳ":{"ha":556,"x_min":0,"x_max":0,"o":"m 139 931 b 28 1042 76 931 28 979 b 139 1153 28 1104 76 1153 b 250 1042 201 1153 250 1104 b 246 1010 250 1031 249 1019 b 278 1014 256 1013 267 1014 b 389 903 340 1014 389 965 b 278 792 389 840 340 792 b 167 903 215 792 167 840 b 171 935 167 914 168 925 b 139 931 161 932 150 931 m 528 625 b 504 556 528 599 519 575 b 528 486 519 536 528 513 b 417 375 528 424 479 375 b 385 379 406 375 394 376 b 389 347 388 369 389 358 b 365 278 389 321 381 297 b 389 208 381 258 389 235 b 365 139 389 182 381 158 b 389 69 381 119 389 96 b 278 -42 389 7 340 -42 b 167 69 215 -42 167 7 b 190 139 167 96 175 119 b 167 208 175 158 167 182 b 190 278 167 235 175 258 b 167 347 175 297 167 321 b 171 379 167 358 168 369 b 139 375 161 376 150 375 b 28 486 76 375 28 424 b 51 556 28 513 36 536 b 28 625 36 575 28 599 b 139 736 28 688 76 736 b 250 625 201 736 250 688 b 226 556 250 599 242 575 b 250 486 242 536 250 513 b 246 454 250 475 249 464 b 278 458 256 457 267 458 b 310 454 289 458 300 457 b 306 486 307 464 306 475 b 329 556 306 513 314 536 b 306 625 314 575 306 599 b 417 736 306 688 354 736 b 528 625 479 736 528 688 "},"Z":{"ha":556,"x_min":0,"x_max":0,"o":"m 528 486 b 417 375 528 424 479 375 b 385 379 406 375 394 376 b 389 347 388 369 389 358 b 278 236 389 285 340 236 b 246 240 267 236 256 238 b 250 208 249 231 250 219 b 246 176 250 197 249 186 b 278 181 256 179 267 181 b 347 157 304 181 328 172 b 417 181 367 172 390 181 b 528 69 479 181 528 132 b 417 -42 528 7 479 -42 b 347 -18 390 -42 367 -33 b 278 -42 328 -33 304 -42 b 208 -18 251 -42 228 -33 b 139 -42 189 -33 165 -42 b 28 69 76 -42 28 7 b 51 139 28 96 36 119 b 28 208 36 158 28 182 b 139 319 28 271 76 319 b 171 315 150 319 161 318 b 167 347 168 325 167 336 b 278 458 167 410 215 458 b 310 454 289 458 300 457 b 306 486 307 464 306 475 b 310 518 306 497 307 508 b 278 514 300 515 289 514 b 208 538 251 514 228 522 b 139 514 189 522 165 514 b 28 625 76 514 28 563 b 139 736 28 688 76 736 b 208 713 165 736 189 728 b 278 736 228 728 251 736 b 347 713 304 736 328 728 b 417 736 367 728 390 736 b 528 625 479 736 528 688 b 504 556 528 599 519 575 b 528 486 519 536 528 513 "},"Ź":{"ha":556,"x_min":0,"x_max":0,"o":"m 278 792 b 167 903 215 792 167 840 b 278 1014 167 965 215 1014 b 310 1010 289 1014 300 1013 b 306 1042 307 1019 306 1031 b 417 1153 306 1104 354 1153 b 528 1042 479 1153 528 1104 b 417 931 528 979 479 931 b 385 935 406 931 394 932 b 389 903 388 925 389 914 b 278 792 389 840 340 792 m 417 736 b 528 625 479 736 528 688 b 504 556 528 599 519 575 b 528 486 519 536 528 513 b 417 375 528 424 479 375 b 385 379 406 375 394 376 b 389 347 388 369 389 358 b 278 236 389 285 340 236 b 246 240 267 236 256 238 b 250 208 249 231 250 219 b 246 176 250 197 249 186 b 278 181 256 179 267 181 b 347 157 304 181 328 172 b 417 181 367 172 390 181 b 528 69 479 181 528 132 b 417 -42 528 7 479 -42 b 347 -18 390 -42 367 -33 b 278 -42 328 -33 304 -42 b 208 -18 251 -42 228 -33 b 139 -42 189 -33 165 -42 b 28 69 76 -42 28 7 b 51 139 28 96 36 119 b 28 208 36 158 28 182 b 139 319 28 271 76 319 b 171 315 150 319 161 318 b 167 347 168 325 167 336 b 278 458 167 410 215 458 b 310 454 289 458 300 457 b 306 486 307 464 306 475 b 310 518 306 497 307 508 b 278 514 300 515 289 514 b 208 538 251 514 228 522 b 139 514 189 522 165 514 b 28 625 76 514 28 563 b 139 736 28 688 76 736 b 208 713 165 736 189 728 b 278 736 228 728 251 736 b 347 713 304 736 328 728 b 417 736 367 728 390 736 "},"Ž":{"ha":556,"x_min":0,"x_max":0,"o":"m 139 931 b 28 1042 76 931 28 979 b 139 1153 28 1104 76 1153 b 250 1042 201 1153 250 1104 b 246 1010 250 1031 249 1019 b 278 1014 256 1013 267 1014 b 310 1010 289 1014 300 1013 b 306 1042 307 1019 306 1031 b 417 1153 306 1104 354 1153 b 528 1042 479 1153 528 1104 b 417 931 528 979 479 931 b 385 935 406 931 394 932 b 389 903 388 925 389 914 b 278 792 389 840 340 792 b 167 903 215 792 167 840 b 171 935 167 914 168 925 b 139 931 161 932 150 931 m 417 736 b 528 625 479 736 528 688 b 504 556 528 599 519 575 b 528 486 519 536 528 513 b 417 375 528 424 479 375 b 385 379 406 375 394 376 b 389 347 388 369 389 358 b 278 236 389 285 340 236 b 246 240 267 236 256 238 b 250 208 249 231 250 219 b 246 176 250 197 249 186 b 278 181 256 179 267 181 b 347 157 304 181 328 172 b 417 181 367 172 390 181 b 528 69 479 181 528 132 b 417 -42 528 7 479 -42 b 347 -18 390 -42 367 -33 b 278 -42 328 -33 304 -42 b 208 -18 251 -42 228 -33 b 139 -42 189 -33 165 -42 b 28 69 76 -42 28 7 b 51 139 28 96 36 119 b 28 208 36 158 28 182 b 139 319 28 271 76 319 b 171 315 150 319 161 318 b 167 347 168 325 167 336 b 278 458 167 410 215 458 b 310 454 289 458 300 457 b 306 486 307 464 306 475 b 310 518 306 497 307 508 b 278 514 300 515 289 514 b 208 538 251 514 228 522 b 139 514 189 522 165 514 b 28 625 76 514 28 563 b 139 736 28 688 76 736 b 208 713 165 736 189 728 b 278 736 228 728 251 736 b 347 713 304 736 328 728 b 417 736 367 728 390 736 "},"Ż":{"ha":556,"x_min":0,"x_max":0,"o":"m 278 792 b 167 903 215 792 167 840 b 278 1014 167 965 215 1014 b 389 903 340 1014 389 965 b 278 792 389 840 340 792 m 528 486 b 417 375 528 424 479 375 b 385 379 406 375 394 376 b 389 347 388 369 389 358 b 278 236 389 285 340 236 b 246 240 267 236 256 238 b 250 208 249 231 250 219 b 246 176 250 197 249 186 b 278 181 256 179 267 181 b 347 157 304 181 328 172 b 417 181 367 172 390 181 b 528 69 479 181 528 132 b 417 -42 528 7 479 -42 b 347 -18 390 -42 367 -33 b 278 -42 328 -33 304 -42 b 208 -18 251 -42 228 -33 b 139 -42 189 -33 165 -42 b 28 69 76 -42 28 7 b 51 139 28 96 36 119 b 28 208 36 158 28 182 b 139 319 28 271 76 319 b 171 315 150 319 161 318 b 167 347 168 325 167 336 b 278 458 167 410 215 458 b 310 454 289 458 300 457 b 306 486 307 464 306 475 b 310 518 306 497 307 508 b 278 514 300 515 289 514 b 208 538 251 514 228 522 b 139 514 189 522 165 514 b 28 625 76 514 28 563 b 139 736 28 688 76 736 b 208 713 165 736 189 728 b 278 736 228 728 251 736 b 347 713 304 736 328 728 b 417 736 367 728 390 736 b 528 625 479 736 528 688 b 504 556 528 599 519 575 b 528 486 519 536 528 513 "},"a":{"ha":556,"x_min":0,"x_max":0,"o":"m 504 278 b 528 208 519 258 528 235 b 504 139 528 182 519 158 b 528 69 519 119 528 96 b 417 -42 528 7 479 -42 b 306 69 354 -42 306 7 b 310 101 306 81 307 92 b 278 97 300 99 289 97 b 246 101 267 97 256 99 b 250 69 249 92 250 81 b 139 -42 250 7 201 -42 b 28 69 76 -42 28 7 b 51 139 28 96 36 119 b 28 208 36 158 28 182 b 139 319 28 271 76 319 b 208 296 165 319 189 311 b 278 319 228 311 251 319 b 310 315 289 319 300 318 b 306 347 307 325 306 336 b 310 379 306 358 307 369 b 278 375 300 376 289 375 b 208 399 251 375 228 383 b 139 375 189 383 165 375 b 28 486 76 375 28 424 b 139 597 28 549 76 597 b 208 574 165 597 189 589 b 278 597 228 589 251 597 b 389 486 340 597 389 549 b 385 454 389 475 388 464 b 417 458 394 457 406 458 b 528 347 479 458 528 410 b 504 278 528 321 519 297 "},"á":{"ha":556,"x_min":0,"x_max":0,"o":"m 278 653 b 167 764 215 653 167 701 b 278 875 167 826 215 875 b 310 871 289 875 300 874 b 306 903 307 881 306 892 b 417 1014 306 965 354 1014 b 528 903 479 1014 528 965 b 417 792 528 840 479 792 b 385 796 406 792 394 793 b 389 764 388 786 389 775 b 278 653 389 701 340 653 m 417 458 b 528 347 479 458 528 410 b 504 278 528 321 519 297 b 528 208 519 258 528 235 b 504 139 528 182 519 158 b 528 69 519 119 528 96 b 417 -42 528 7 479 -42 b 306 69 354 -42 306 7 b 310 101 306 81 307 92 b 278 97 300 99 289 97 b 246 101 267 97 256 99 b 250 69 249 92 250 81 b 139 -42 250 7 201 -42 b 28 69 76 -42 28 7 b 51 139 28 96 36 119 b 28 208 36 158 28 182 b 139 319 28 271 76 319 b 208 296 165 319 189 311 b 278 319 228 311 251 319 b 310 315 289 319 300 318 b 306 347 307 325 306 336 b 310 379 306 358 307 369 b 278 375 300 376 289 375 b 208 399 251 375 228 383 b 139 375 189 383 165 375 b 28 486 76 375 28 424 b 139 597 28 549 76 597 b 208 574 165 597 189 589 b 278 597 228 589 251 597 b 389 486 340 597 389 549 b 385 454 389 475 388 464 b 417 458 394 457 406 458 "},"ă":{"ha":556,"x_min":0,"x_max":0,"o":"m 528 903 b 504 833 528 876 519 853 b 528 764 519 814 528 790 b 417 653 528 701 479 653 b 347 676 390 653 367 661 b 278 653 328 661 304 653 b 208 676 251 653 228 661 b 139 653 189 661 165 653 b 28 764 76 653 28 701 b 51 833 28 790 36 814 b 28 903 36 853 28 876 b 139 1014 28 965 76 1014 b 250 903 201 1014 250 965 b 246 871 250 892 249 881 b 278 875 256 874 267 875 b 310 871 289 875 300 874 b 306 903 307 881 306 892 b 417 1014 306 965 354 1014 b 528 903 479 1014 528 965 m 417 458 b 528 347 479 458 528 410 b 504 278 528 321 519 297 b 528 208 519 258 528 235 b 504 139 528 182 519 158 b 528 69 519 119 528 96 b 417 -42 528 7 479 -42 b 306 69 354 -42 306 7 b 310 101 306 81 307 92 b 278 97 300 99 289 97 b 246 101 267 97 256 99 b 250 69 249 92 250 81 b 139 -42 250 7 201 -42 b 28 69 76 -42 28 7 b 51 139 28 96 36 119 b 28 208 36 158 28 182 b 139 319 28 271 76 319 b 208 296 165 319 189 311 b 278 319 228 311 251 319 b 310 315 289 319 300 318 b 306 347 307 325 306 336 b 310 379 306 358 307 369 b 278 375 300 376 289 375 b 208 399 251 375 228 383 b 139 375 189 383 165 375 b 28 486 76 375 28 424 b 139 597 28 549 76 597 b 208 574 165 597 189 589 b 278 597 228 589 251 597 b 389 486 340 597 389 549 b 385 454 389 475 388 464 b 417 458 394 457 406 458 "},"â":{"ha":556,"x_min":0,"x_max":0,"o":"m 139 653 b 28 764 76 653 28 701 b 139 875 28 826 76 875 b 171 871 150 875 161 874 b 167 903 168 881 167 892 b 278 1014 167 965 215 1014 b 389 903 340 1014 389 965 b 385 871 389 892 388 881 b 417 875 394 874 406 875 b 528 764 479 875 528 826 b 417 653 528 701 479 653 b 306 764 354 653 306 701 b 310 796 306 775 307 786 b 278 792 300 793 289 792 b 246 796 267 792 256 793 b 250 764 249 786 250 775 b 139 653 250 701 201 653 m 417 458 b 528 347 479 458 528 410 b 504 278 528 321 519 297 b 528 208 519 258 528 235 b 504 139 528 182 519 158 b 528 69 519 119 528 96 b 417 -42 528 7 479 -42 b 306 69 354 -42 306 7 b 310 101 306 81 307 92 b 278 97 300 99 289 97 b 246 101 267 97 256 99 b 250 69 249 92 250 81 b 139 -42 250 7 201 -42 b 28 69 76 -42 28 7 b 51 139 28 96 36 119 b 28 208 36 158 28 182 b 139 319 28 271 76 319 b 208 296 165 319 189 311 b 278 319 228 311 251 319 b 310 315 289 319 300 318 b 306 347 307 325 306 336 b 310 379 306 358 307 369 b 278 375 300 376 289 375 b 208 399 251 375 228 383 b 139 375 189 383 165 375 b 28 486 76 375 28 424 b 139 597 28 549 76 597 b 208 574 165 597 189 589 b 278 597 228 589 251 597 b 389 486 340 597 389 549 b 385 454 389 475 388 464 b 417 458 394 457 406 458 "},"ä":{"ha":556,"x_min":0,"x_max":0,"o":"m 139 653 b 28 764 76 653 28 701 b 139 875 28 826 76 875 b 250 764 201 875 250 826 b 139 653 250 701 201 653 m 417 653 b 306 764 354 653 306 701 b 417 875 306 826 354 875 b 528 764 479 875 528 826 b 417 653 528 701 479 653 m 417 458 b 528 347 479 458 528 410 b 504 278 528 321 519 297 b 528 208 519 258 528 235 b 504 139 528 182 519 158 b 528 69 519 119 528 96 b 417 -42 528 7 479 -42 b 306 69 354 -42 306 7 b 310 101 306 81 307 92 b 278 97 300 99 289 97 b 246 101 267 97 256 99 b 250 69 249 92 250 81 b 139 -42 250 7 201 -42 b 28 69 76 -42 28 7 b 51 139 28 96 36 119 b 28 208 36 158 28 182 b 139 319 28 271 76 319 b 208 296 165 319 189 311 b 278 319 228 311 251 319 b 310 315 289 319 300 318 b 306 347 307 325 306 336 b 310 379 306 358 307 369 b 278 375 300 376 289 375 b 208 399 251 375 228 383 b 139 375 189 383 165 375 b 28 486 76 375 28 424 b 139 597 28 549 76 597 b 208 574 165 597 189 589 b 278 597 228 589 251 597 b 389 486 340 597 389 549 b 385 454 389 475 388 464 b 417 458 394 457 406 458 "},"à":{"ha":556,"x_min":0,"x_max":0,"o":"m 139 792 b 28 903 76 792 28 840 b 139 1014 28 965 76 1014 b 250 903 201 1014 250 965 b 246 871 250 892 249 881 b 278 875 256 874 267 875 b 389 764 340 875 389 826 b 278 653 389 701 340 653 b 167 764 215 653 167 701 b 171 796 167 775 168 786 b 139 792 161 793 150 792 m 504 278 b 528 208 519 258 528 235 b 504 139 528 182 519 158 b 528 69 519 119 528 96 b 417 -42 528 7 479 -42 b 306 69 354 -42 306 7 b 310 101 306 81 307 92 b 278 97 300 99 289 97 b 246 101 267 97 256 99 b 250 69 249 92 250 81 b 139 -42 250 7 201 -42 b 28 69 76 -42 28 7 b 51 139 28 96 36 119 b 28 208 36 158 28 182 b 139 319 28 271 76 319 b 208 296 165 319 189 311 b 278 319 228 311 251 319 b 310 315 289 319 300 318 b 306 347 307 325 306 336 b 310 379 306 358 307 369 b 278 375 300 376 289 375 b 208 399 251 375 228 383 b 139 375 189 383 165 375 b 28 486 76 375 28 424 b 139 597 28 549 76 597 b 208 574 165 597 189 589 b 278 597 228 589 251 597 b 389 486 340 597 389 549 b 385 454 389 475 388 464 b 417 458 394 457 406 458 b 528 347 479 458 528 410 b 504 278 528 321 519 297 "},"ā":{"ha":556,"x_min":0,"x_max":0,"o":"m 139 653 b 28 764 76 653 28 701 b 139 875 28 826 76 875 b 208 851 165 875 189 867 b 278 875 228 867 251 875 b 347 851 304 875 328 867 b 417 875 367 867 390 875 b 528 764 479 875 528 826 b 417 653 528 701 479 653 b 347 676 390 653 367 661 b 278 653 328 661 304 653 b 208 676 251 653 228 661 b 139 653 189 661 165 653 m 417 458 b 528 347 479 458 528 410 b 504 278 528 321 519 297 b 528 208 519 258 528 235 b 504 139 528 182 519 158 b 528 69 519 119 528 96 b 417 -42 528 7 479 -42 b 306 69 354 -42 306 7 b 310 101 306 81 307 92 b 278 97 300 99 289 97 b 246 101 267 97 256 99 b 250 69 249 92 250 81 b 139 -42 250 7 201 -42 b 28 69 76 -42 28 7 b 51 139 28 96 36 119 b 28 208 36 158 28 182 b 139 319 28 271 76 319 b 208 296 165 319 189 311 b 278 319 228 311 251 319 b 310 315 289 319 300 318 b 306 347 307 325 306 336 b 310 379 306 358 307 369 b 278 375 300 376 289 375 b 208 399 251 375 228 383 b 139 375 189 383 165 375 b 28 486 76 375 28 424 b 139 597 28 549 76 597 b 208 574 165 597 189 589 b 278 597 228 589 251 597 b 389 486 340 597 389 549 b 385 454 389 475 388 464 b 417 458 394 457 406 458 "},"ą":{"ha":556,"x_min":0,"x_max":0,"o":"m 504 278 b 528 208 519 258 528 235 b 504 139 528 182 519 158 b 528 69 519 119 528 96 b 417 -42 528 7 479 -42 b 385 -37 406 -42 394 -40 b 389 -69 388 -47 389 -58 b 385 -101 389 -81 388 -92 b 417 -97 394 -99 406 -97 b 528 -208 479 -97 528 -146 b 417 -319 528 -271 479 -319 b 347 -296 390 -319 367 -311 b 278 -319 328 -311 304 -319 b 167 -208 215 -319 167 -271 b 190 -139 167 -182 175 -158 b 167 -69 175 -119 167 -96 b 171 -37 167 -58 168 -47 b 139 -42 161 -40 150 -42 b 28 69 76 -42 28 7 b 51 139 28 96 36 119 b 28 208 36 158 28 182 b 139 319 28 271 76 319 b 208 296 165 319 189 311 b 278 319 228 311 251 319 b 310 315 289 319 300 318 b 306 347 307 325 306 336 b 310 379 306 358 307 369 b 278 375 300 376 289 375 b 208 399 251 375 228 383 b 139 375 189 383 165 375 b 28 486 76 375 28 424 b 139 597 28 549 76 597 b 208 574 165 597 189 589 b 278 597 228 589 251 597 b 389 486 340 597 389 549 b 385 454 389 475 388 464 b 417 458 394 457 406 458 b 528 347 479 458 528 410 b 504 278 528 321 519 297 m 310 101 b 278 97 300 99 289 97 b 246 101 267 97 256 99 b 250 69 249 92 250 81 b 246 38 250 58 249 47 b 278 42 256 40 267 42 b 310 38 289 42 300 40 b 306 69 307 47 306 58 b 310 101 306 81 307 92 "},"å":{"ha":556,"x_min":0,"x_max":0,"o":"m 417 458 b 528 347 479 458 528 410 b 504 278 528 321 519 297 b 528 208 519 258 528 235 b 504 139 528 182 519 158 b 528 69 519 119 528 96 b 417 -42 528 7 479 -42 b 306 69 354 -42 306 7 b 310 101 306 81 307 92 b 278 97 300 99 289 97 b 246 101 267 97 256 99 b 250 69 249 92 250 81 b 139 -42 250 7 201 -42 b 28 69 76 -42 28 7 b 51 139 28 96 36 119 b 28 208 36 158 28 182 b 139 319 28 271 76 319 b 208 296 165 319 189 311 b 278 319 228 311 251 319 b 310 315 289 319 300 318 b 306 347 307 325 306 336 b 310 379 306 358 307 369 b 278 375 300 376 289 375 b 208 399 251 375 228 383 b 139 375 189 383 165 375 b 28 486 76 375 28 424 b 139 597 28 549 76 597 b 171 593 150 597 161 596 b 167 625 168 603 167 614 b 171 657 167 636 168 647 b 139 653 161 654 150 653 b 28 764 76 653 28 701 b 139 875 28 826 76 875 b 171 871 150 875 161 874 b 167 903 168 881 167 892 b 278 1014 167 965 215 1014 b 389 903 340 1014 389 965 b 385 871 389 892 388 881 b 417 875 394 874 406 875 b 528 764 479 875 528 826 b 417 653 528 701 479 653 b 385 657 406 653 394 654 b 389 625 388 647 389 636 b 365 556 389 599 381 575 b 389 486 381 536 389 513 b 385 454 389 475 388 464 b 417 458 394 457 406 458 m 310 796 b 278 792 300 793 289 792 b 246 796 267 792 256 793 b 250 764 249 786 250 775 b 246 732 250 753 249 742 b 278 736 256 735 267 736 b 310 732 289 736 300 735 b 306 764 307 742 306 753 b 310 796 306 775 307 786 "},"ã":{"ha":556,"x_min":0,"x_max":0,"o":"m 556 1014 b 667 903 618 1014 667 965 b 556 792 667 840 618 792 b 524 796 544 792 533 793 b 528 764 526 786 528 775 b 417 653 528 701 479 653 b 306 764 354 653 306 701 b 310 796 306 775 307 786 b 278 792 300 793 289 792 b 246 796 267 792 256 793 b 250 764 249 786 250 775 b 139 653 250 701 201 653 b 28 764 76 653 28 701 b 139 875 28 826 76 875 b 171 871 150 875 161 874 b 167 903 168 881 167 892 b 278 1014 167 965 215 1014 b 389 903 340 1014 389 965 b 385 871 389 892 388 881 b 417 875 394 874 406 875 b 449 871 428 875 439 874 b 444 903 446 881 444 892 b 556 1014 444 965 493 1014 m 417 458 b 528 347 479 458 528 410 b 504 278 528 321 519 297 b 528 208 519 258 528 235 b 504 139 528 182 519 158 b 528 69 519 119 528 96 b 417 -42 528 7 479 -42 b 306 69 354 -42 306 7 b 310 101 306 81 307 92 b 278 97 300 99 289 97 b 246 101 267 97 256 99 b 250 69 249 92 250 81 b 139 -42 250 7 201 -42 b 28 69 76 -42 28 7 b 51 139 28 96 36 119 b 28 208 36 158 28 182 b 139 319 28 271 76 319 b 208 296 165 319 189 311 b 278 319 228 311 251 319 b 310 315 289 319 300 318 b 306 347 307 325 306 336 b 310 379 306 358 307 369 b 278 375 300 376 289 375 b 208 399 251 375 228 383 b 139 375 189 383 165 375 b 28 486 76 375 28 424 b 139 597 28 549 76 597 b 208 574 165 597 189 589 b 278 597 228 589 251 597 b 389 486 340 597 389 549 b 385 454 389 475 388 464 b 417 458 394 457 406 458 "},"æ":{"ha":833,"x_min":0,"x_max":0,"o":"m 694 181 b 806 69 757 181 806 132 b 694 -42 806 7 757 -42 b 625 -18 668 -42 644 -33 b 556 -42 606 -33 582 -42 b 486 -18 529 -42 506 -33 b 417 -42 467 -33 443 -42 b 306 69 354 -42 306 7 b 310 101 306 81 307 92 b 278 97 300 99 289 97 b 246 101 267 97 256 99 b 250 69 249 92 250 81 b 139 -42 250 7 201 -42 b 28 69 76 -42 28 7 b 51 139 28 96 36 119 b 28 208 36 158 28 182 b 139 319 28 271 76 319 b 208 296 165 319 189 311 b 278 319 228 311 251 319 b 310 315 289 319 300 318 b 306 347 307 325 306 336 b 310 379 306 358 307 369 b 278 375 300 376 289 375 b 208 399 251 375 228 383 b 139 375 189 383 165 375 b 28 486 76 375 28 424 b 139 597 28 549 76 597 b 208 574 165 597 189 589 b 278 597 228 589 251 597 b 389 486 340 597 389 549 b 385 454 389 475 388 464 b 417 458 394 457 406 458 b 449 454 428 458 439 457 b 444 486 446 464 444 475 b 556 597 444 549 493 597 b 667 486 618 597 667 549 b 663 454 667 475 665 464 b 694 458 672 457 683 458 b 806 347 757 458 806 410 b 694 236 806 285 757 236 b 625 260 668 236 644 244 b 556 236 606 244 582 236 b 524 240 544 236 533 238 b 528 208 526 231 528 219 b 524 176 528 197 526 186 b 556 181 533 179 544 181 b 625 157 582 181 606 172 b 694 181 644 172 668 181 "},"b":{"ha":556,"x_min":0,"x_max":0,"o":"m 528 347 b 504 278 528 321 519 297 b 528 208 519 258 528 235 b 417 97 528 146 479 97 b 385 101 406 97 394 99 b 389 69 388 92 389 81 b 278 -42 389 7 340 -42 b 208 -18 251 -42 228 -33 b 139 -42 189 -33 165 -42 b 28 69 76 -42 28 7 b 51 139 28 96 36 119 b 28 208 36 158 28 182 b 51 278 28 235 36 258 b 28 347 36 297 28 321 b 51 417 28 374 36 397 b 28 486 36 436 28 460 b 51 556 28 513 36 536 b 28 625 36 575 28 599 b 139 736 28 688 76 736 b 250 625 201 736 250 688 b 246 593 250 614 249 603 b 278 597 256 596 267 597 b 389 486 340 597 389 549 b 385 454 389 475 388 464 b 417 458 394 457 406 458 b 528 347 479 458 528 410 m 246 176 b 278 181 256 179 267 181 b 310 176 289 181 300 179 b 306 208 307 186 306 197 b 329 278 306 235 314 258 b 306 347 314 297 306 321 b 310 379 306 358 307 369 b 278 375 300 376 289 375 b 246 379 267 375 256 376 b 250 347 249 369 250 358 b 226 278 250 321 242 297 b 250 208 242 258 250 235 b 246 176 250 197 249 186 "},"c":{"ha":556,"x_min":0,"x_max":0,"o":"m 417 181 b 528 69 479 181 528 132 b 417 -42 528 7 479 -42 b 347 -18 390 -42 367 -33 b 278 -42 328 -33 304 -42 b 167 69 215 -42 167 7 b 171 101 167 81 168 92 b 139 97 161 99 150 97 b 28 208 76 97 28 146 b 51 278 28 235 36 258 b 28 347 36 297 28 321 b 139 458 28 410 76 458 b 171 454 150 458 161 457 b 167 486 168 464 167 475 b 278 597 167 549 215 597 b 389 486 340 597 389 549 b 385 454 389 475 388 464 b 417 458 394 457 406 458 b 528 347 479 458 528 410 b 417 236 528 285 479 236 b 306 347 354 236 306 285 b 310 379 306 358 307 369 b 278 375 300 376 289 375 b 246 379 267 375 256 376 b 250 347 249 369 250 358 b 226 278 250 321 242 297 b 250 208 242 258 250 235 b 246 176 250 197 249 186 b 278 181 256 179 267 181 b 347 157 304 181 328 172 b 417 181 367 172 390 181 "},"ć":{"ha":556,"x_min":0,"x_max":0,"o":"m 278 653 b 167 764 215 653 167 701 b 278 875 167 826 215 875 b 310 871 289 875 300 874 b 306 903 307 881 306 892 b 417 1014 306 965 354 1014 b 528 903 479 1014 528 965 b 417 792 528 840 479 792 b 385 796 406 792 394 793 b 389 764 388 786 389 775 b 278 653 389 701 340 653 m 417 236 b 306 347 354 236 306 285 b 310 379 306 358 307 369 b 278 375 300 376 289 375 b 246 379 267 375 256 376 b 250 347 249 369 250 358 b 226 278 250 321 242 297 b 250 208 242 258 250 235 b 246 176 250 197 249 186 b 278 181 256 179 267 181 b 347 157 304 181 328 172 b 417 181 367 172 390 181 b 528 69 479 181 528 132 b 417 -42 528 7 479 -42 b 347 -18 390 -42 367 -33 b 278 -42 328 -33 304 -42 b 167 69 215 -42 167 7 b 171 101 167 81 168 92 b 139 97 161 99 150 97 b 28 208 76 97 28 146 b 51 278 28 235 36 258 b 28 347 36 297 28 321 b 139 458 28 410 76 458 b 171 454 150 458 161 457 b 167 486 168 464 167 475 b 278 597 167 549 215 597 b 389 486 340 597 389 549 b 385 454 389 475 388 464 b 417 458 394 457 406 458 b 528 347 479 458 528 410 b 417 236 528 285 479 236 "},"č":{"ha":556,"x_min":0,"x_max":0,"o":"m 139 792 b 28 903 76 792 28 840 b 139 1014 28 965 76 1014 b 250 903 201 1014 250 965 b 246 871 250 892 249 881 b 278 875 256 874 267 875 b 310 871 289 875 300 874 b 306 903 307 881 306 892 b 417 1014 306 965 354 1014 b 528 903 479 1014 528 965 b 417 792 528 840 479 792 b 385 796 406 792 394 793 b 389 764 388 786 389 775 b 278 653 389 701 340 653 b 167 764 215 653 167 701 b 171 796 167 775 168 786 b 139 792 161 793 150 792 m 417 236 b 306 347 354 236 306 285 b 310 379 306 358 307 369 b 278 375 300 376 289 375 b 246 379 267 375 256 376 b 250 347 249 369 250 358 b 226 278 250 321 242 297 b 250 208 242 258 250 235 b 246 176 250 197 249 186 b 278 181 256 179 267 181 b 347 157 304 181 328 172 b 417 181 367 172 390 181 b 528 69 479 181 528 132 b 417 -42 528 7 479 -42 b 347 -18 390 -42 367 -33 b 278 -42 328 -33 304 -42 b 167 69 215 -42 167 7 b 171 101 167 81 168 92 b 139 97 161 99 150 97 b 28 208 76 97 28 146 b 51 278 28 235 36 258 b 28 347 36 297 28 321 b 139 458 28 410 76 458 b 171 454 150 458 161 457 b 167 486 168 464 167 475 b 278 597 167 549 215 597 b 389 486 340 597 389 549 b 385 454 389 475 388 464 b 417 458 394 457 406 458 b 528 347 479 458 528 410 b 417 236 528 285 479 236 "},"ç":{"ha":556,"x_min":0,"x_max":0,"o":"m 417 181 b 528 69 479 181 528 132 b 417 -42 528 7 479 -42 b 385 -37 406 -42 394 -40 b 389 -69 388 -47 389 -58 b 365 -139 389 -96 381 -119 b 389 -208 381 -158 389 -182 b 278 -319 389 -271 340 -319 b 208 -296 251 -319 228 -311 b 139 -319 189 -311 165 -319 b 28 -208 76 -319 28 -271 b 139 -97 28 -146 76 -97 b 171 -101 150 -97 161 -99 b 167 -69 168 -92 167 -81 b 190 0 167 -43 175 -19 b 167 69 175 19 167 43 b 171 101 167 81 168 92 b 139 97 161 99 150 97 b 28 208 76 97 28 146 b 51 278 28 235 36 258 b 28 347 36 297 28 321 b 139 458 28 410 76 458 b 171 454 150 458 161 457 b 167 486 168 464 167 475 b 278 597 167 549 215 597 b 389 486 340 597 389 549 b 385 454 389 475 388 464 b 417 458 394 457 406 458 b 528 347 479 458 528 410 b 417 236 528 285 479 236 b 306 347 354 236 306 285 b 310 379 306 358 307 369 b 278 375 300 376 289 375 b 246 379 267 375 256 376 b 250 347 249 369 250 358 b 226 278 250 321 242 297 b 250 208 242 258 250 235 b 246 176 250 197 249 186 b 278 181 256 179 267 181 b 347 157 304 181 328 172 b 417 181 367 172 390 181 "},"ċ":{"ha":556,"x_min":0,"x_max":0,"o":"m 278 653 b 167 764 215 653 167 701 b 278 875 167 826 215 875 b 389 764 340 875 389 826 b 278 653 389 701 340 653 m 417 181 b 528 69 479 181 528 132 b 417 -42 528 7 479 -42 b 347 -18 390 -42 367 -33 b 278 -42 328 -33 304 -42 b 167 69 215 -42 167 7 b 171 101 167 81 168 92 b 139 97 161 99 150 97 b 28 208 76 97 28 146 b 51 278 28 235 36 258 b 28 347 36 297 28 321 b 139 458 28 410 76 458 b 171 454 150 458 161 457 b 167 486 168 464 167 475 b 278 597 167 549 215 597 b 389 486 340 597 389 549 b 385 454 389 475 388 464 b 417 458 394 457 406 458 b 528 347 479 458 528 410 b 417 236 528 285 479 236 b 306 347 354 236 306 285 b 310 379 306 358 307 369 b 278 375 300 376 289 375 b 246 379 267 375 256 376 b 250 347 249 369 250 358 b 226 278 250 321 242 297 b 250 208 242 258 250 235 b 246 176 250 197 249 186 b 278 181 256 179 267 181 b 347 157 304 181 328 172 b 417 181 367 172 390 181 "},"d":{"ha":556,"x_min":0,"x_max":0,"o":"m 504 556 b 528 486 519 536 528 513 b 504 417 528 460 519 436 b 528 347 519 397 528 374 b 504 278 528 321 519 297 b 528 208 519 258 528 235 b 504 139 528 182 519 158 b 528 69 519 119 528 96 b 417 -42 528 7 479 -42 b 347 -18 390 -42 367 -33 b 278 -42 328 -33 304 -42 b 167 69 215 -42 167 7 b 171 101 167 81 168 92 b 139 97 161 99 150 97 b 28 208 76 97 28 146 b 51 278 28 235 36 258 b 28 347 36 297 28 321 b 139 458 28 410 76 458 b 171 454 150 458 161 457 b 167 486 168 464 167 475 b 278 597 167 549 215 597 b 310 593 289 597 300 596 b 306 625 307 603 306 614 b 417 736 306 688 354 736 b 528 625 479 736 528 688 b 504 556 528 599 519 575 m 246 176 b 278 181 256 179 267 181 b 310 176 289 181 300 179 b 306 208 307 186 306 197 b 329 278 306 235 314 258 b 306 347 314 297 306 321 b 310 379 306 358 307 369 b 278 375 300 376 289 375 b 246 379 267 375 256 376 b 250 347 249 369 250 358 b 226 278 250 321 242 297 b 250 208 242 258 250 235 b 246 176 250 197 249 186 "},"ð":{"ha":556,"x_min":0,"x_max":0,"o":"m 417 736 b 528 625 479 736 528 688 b 504 556 528 599 519 575 b 528 486 519 536 528 513 b 504 417 528 460 519 436 b 528 347 519 397 528 374 b 504 278 528 321 519 297 b 528 208 519 258 528 235 b 504 139 528 182 519 158 b 528 69 519 119 528 96 b 417 -42 528 7 479 -42 b 347 -18 390 -42 367 -33 b 278 -42 328 -33 304 -42 b 167 69 215 -42 167 7 b 171 101 167 81 168 92 b 139 97 161 99 150 97 b 28 208 76 97 28 146 b 139 319 28 271 76 319 b 171 315 150 319 161 318 b 167 347 168 325 167 336 b 278 458 167 410 215 458 b 310 454 289 458 300 457 b 306 486 307 464 306 475 b 329 556 306 513 314 536 b 306 625 314 575 306 599 b 310 657 306 636 307 647 b 278 653 300 654 289 653 b 246 657 267 653 256 654 b 250 625 249 647 250 636 b 139 514 250 563 201 514 b 28 625 76 514 28 563 b 139 736 28 688 76 736 b 171 732 150 736 161 735 b 167 764 168 742 167 753 b 171 796 167 775 168 786 b 139 792 161 793 150 792 b 28 903 76 792 28 840 b 139 1014 28 965 76 1014 b 250 903 201 1014 250 965 b 246 871 250 892 249 881 b 278 875 256 874 267 875 b 310 871 289 875 300 874 b 306 903 307 881 306 892 b 417 1014 306 965 354 1014 b 528 903 479 1014 528 965 b 417 792 528 840 479 792 b 385 796 406 792 394 793 b 389 764 388 786 389 775 b 385 732 389 753 388 742 b 417 736 394 735 406 736 m 246 176 b 278 181 256 179 267 181 b 310 176 289 181 300 179 b 306 208 307 186 306 197 b 310 240 306 219 307 231 b 278 236 300 238 289 236 b 246 240 267 236 256 238 b 250 208 249 231 250 219 b 246 176 250 197 249 186 "},"ď":{"ha":972,"x_min":0,"x_max":0,"o":"m 417 736 b 528 625 479 736 528 688 b 504 556 528 599 519 575 b 528 486 519 536 528 513 b 504 417 528 460 519 436 b 528 347 519 397 528 374 b 504 278 528 321 519 297 b 528 208 519 258 528 235 b 504 139 528 182 519 158 b 528 69 519 119 528 96 b 417 -42 528 7 479 -42 b 347 -18 390 -42 367 -33 b 278 -42 328 -33 304 -42 b 167 69 215 -42 167 7 b 171 101 167 81 168 92 b 139 97 161 99 150 97 b 28 208 76 97 28 146 b 51 278 28 235 36 258 b 28 347 36 297 28 321 b 139 458 28 410 76 458 b 171 454 150 458 161 457 b 167 486 168 464 167 475 b 278 597 167 549 215 597 b 310 593 289 597 300 596 b 306 625 307 603 306 614 b 417 736 306 688 354 736 m 944 625 b 921 556 944 599 936 575 b 944 486 936 536 944 513 b 833 375 944 424 896 375 b 801 379 822 375 811 376 b 806 347 804 369 806 358 b 694 236 806 285 757 236 b 583 347 632 236 583 285 b 694 458 583 410 632 458 b 726 454 706 458 717 457 b 722 486 724 464 722 475 b 726 518 722 497 724 508 b 694 514 717 515 706 514 b 583 625 632 514 583 563 b 694 736 583 688 632 736 b 764 713 721 736 744 728 b 833 736 783 728 807 736 b 944 625 896 736 944 688 m 246 176 b 278 181 256 179 267 181 b 310 176 289 181 300 179 b 306 208 307 186 306 197 b 329 278 306 235 314 258 b 306 347 314 297 306 321 b 310 379 306 358 307 369 b 278 375 300 376 289 375 b 246 379 267 375 256 376 b 250 347 249 369 250 358 b 226 278 250 321 242 297 b 250 208 242 258 250 235 b 246 176 250 197 249 186 "},"đ":{"ha":694,"x_min":0,"x_max":0,"o":"m 556 597 b 667 486 618 597 667 549 b 556 375 667 424 618 375 b 524 379 544 375 533 376 b 528 347 526 369 528 358 b 504 278 528 321 519 297 b 528 208 519 258 528 235 b 504 139 528 182 519 158 b 528 69 519 119 528 96 b 417 -42 528 7 479 -42 b 347 -18 390 -42 367 -33 b 278 -42 328 -33 304 -42 b 167 69 215 -42 167 7 b 171 101 167 81 168 92 b 139 97 161 99 150 97 b 28 208 76 97 28 146 b 139 319 28 271 76 319 b 171 315 150 319 161 318 b 167 347 168 325 167 336 b 278 458 167 410 215 458 b 310 454 289 458 300 457 b 306 486 307 464 306 475 b 310 518 306 497 307 508 b 278 514 300 515 289 514 b 167 625 215 514 167 563 b 278 736 167 688 215 736 b 347 713 304 736 328 728 b 417 736 367 728 390 736 b 528 625 479 736 528 688 b 524 593 528 614 526 603 b 556 597 533 596 544 597 m 246 176 b 278 181 256 179 267 181 b 310 176 289 181 300 179 b 306 208 307 186 306 197 b 310 240 306 219 307 231 b 278 236 300 238 289 236 b 246 240 267 236 256 238 b 250 208 249 231 250 219 b 246 176 250 197 249 186 "},"e":{"ha":556,"x_min":0,"x_max":0,"o":"m 417 181 b 528 69 479 181 528 132 b 417 -42 528 7 479 -42 b 347 -18 390 -42 367 -33 b 278 -42 328 -33 304 -42 b 167 69 215 -42 167 7 b 171 101 167 81 168 92 b 139 97 161 99 150 97 b 28 208 76 97 28 146 b 51 278 28 235 36 258 b 28 347 36 297 28 321 b 139 458 28 410 76 458 b 171 454 150 458 161 457 b 167 486 168 464 167 475 b 278 597 167 549 215 597 b 389 486 340 597 389 549 b 385 454 389 475 388 464 b 417 458 394 457 406 458 b 528 347 479 458 528 410 b 417 236 528 285 479 236 b 347 260 390 236 367 244 b 278 236 328 244 304 236 b 246 240 267 236 256 238 b 250 208 249 231 250 219 b 246 176 250 197 249 186 b 278 181 256 179 267 181 b 347 157 304 181 328 172 b 417 181 367 172 390 181 "},"é":{"ha":556,"x_min":0,"x_max":0,"o":"m 278 653 b 167 764 215 653 167 701 b 278 875 167 826 215 875 b 310 871 289 875 300 874 b 306 903 307 881 306 892 b 417 1014 306 965 354 1014 b 528 903 479 1014 528 965 b 417 792 528 840 479 792 b 385 796 406 792 394 793 b 389 764 388 786 389 775 b 278 653 389 701 340 653 m 347 260 b 278 236 328 244 304 236 b 246 240 267 236 256 238 b 250 208 249 231 250 219 b 246 176 250 197 249 186 b 278 181 256 179 267 181 b 347 157 304 181 328 172 b 417 181 367 172 390 181 b 528 69 479 181 528 132 b 417 -42 528 7 479 -42 b 347 -18 390 -42 367 -33 b 278 -42 328 -33 304 -42 b 167 69 215 -42 167 7 b 171 101 167 81 168 92 b 139 97 161 99 150 97 b 28 208 76 97 28 146 b 51 278 28 235 36 258 b 28 347 36 297 28 321 b 139 458 28 410 76 458 b 171 454 150 458 161 457 b 167 486 168 464 167 475 b 278 597 167 549 215 597 b 389 486 340 597 389 549 b 385 454 389 475 388 464 b 417 458 394 457 406 458 b 528 347 479 458 528 410 b 417 236 528 285 479 236 b 347 260 390 236 367 244 "},"ě":{"ha":556,"x_min":0,"x_max":0,"o":"m 139 792 b 28 903 76 792 28 840 b 139 1014 28 965 76 1014 b 250 903 201 1014 250 965 b 246 871 250 892 249 881 b 278 875 256 874 267 875 b 310 871 289 875 300 874 b 306 903 307 881 306 892 b 417 1014 306 965 354 1014 b 528 903 479 1014 528 965 b 417 792 528 840 479 792 b 385 796 406 792 394 793 b 389 764 388 786 389 775 b 278 653 389 701 340 653 b 167 764 215 653 167 701 b 171 796 167 775 168 786 b 139 792 161 793 150 792 m 347 260 b 278 236 328 244 304 236 b 246 240 267 236 256 238 b 250 208 249 231 250 219 b 246 176 250 197 249 186 b 278 181 256 179 267 181 b 347 157 304 181 328 172 b 417 181 367 172 390 181 b 528 69 479 181 528 132 b 417 -42 528 7 479 -42 b 347 -18 390 -42 367 -33 b 278 -42 328 -33 304 -42 b 167 69 215 -42 167 7 b 171 101 167 81 168 92 b 139 97 161 99 150 97 b 28 208 76 97 28 146 b 51 278 28 235 36 258 b 28 347 36 297 28 321 b 139 458 28 410 76 458 b 171 454 150 458 161 457 b 167 486 168 464 167 475 b 278 597 167 549 215 597 b 389 486 340 597 389 549 b 385 454 389 475 388 464 b 417 458 394 457 406 458 b 528 347 479 458 528 410 b 417 236 528 285 479 236 b 347 260 390 236 367 244 "},"ê":{"ha":556,"x_min":0,"x_max":0,"o":"m 139 653 b 28 764 76 653 28 701 b 139 875 28 826 76 875 b 171 871 150 875 161 874 b 167 903 168 881 167 892 b 278 1014 167 965 215 1014 b 389 903 340 1014 389 965 b 385 871 389 892 388 881 b 417 875 394 874 406 875 b 528 764 479 875 528 826 b 417 653 528 701 479 653 b 306 764 354 653 306 701 b 310 796 306 775 307 786 b 278 792 300 793 289 792 b 246 796 267 792 256 793 b 250 764 249 786 250 775 b 139 653 250 701 201 653 m 347 260 b 278 236 328 244 304 236 b 246 240 267 236 256 238 b 250 208 249 231 250 219 b 246 176 250 197 249 186 b 278 181 256 179 267 181 b 347 157 304 181 328 172 b 417 181 367 172 390 181 b 528 69 479 181 528 132 b 417 -42 528 7 479 -42 b 347 -18 390 -42 367 -33 b 278 -42 328 -33 304 -42 b 167 69 215 -42 167 7 b 171 101 167 81 168 92 b 139 97 161 99 150 97 b 28 208 76 97 28 146 b 51 278 28 235 36 258 b 28 347 36 297 28 321 b 139 458 28 410 76 458 b 171 454 150 458 161 457 b 167 486 168 464 167 475 b 278 597 167 549 215 597 b 389 486 340 597 389 549 b 385 454 389 475 388 464 b 417 458 394 457 406 458 b 528 347 479 458 528 410 b 417 236 528 285 479 236 b 347 260 390 236 367 244 "},"ë":{"ha":556,"x_min":0,"x_max":0,"o":"m 139 653 b 28 764 76 653 28 701 b 139 875 28 826 76 875 b 250 764 201 875 250 826 b 139 653 250 701 201 653 m 417 653 b 306 764 354 653 306 701 b 417 875 306 826 354 875 b 528 764 479 875 528 826 b 417 653 528 701 479 653 m 347 260 b 278 236 328 244 304 236 b 246 240 267 236 256 238 b 250 208 249 231 250 219 b 246 176 250 197 249 186 b 278 181 256 179 267 181 b 347 157 304 181 328 172 b 417 181 367 172 390 181 b 528 69 479 181 528 132 b 417 -42 528 7 479 -42 b 347 -18 390 -42 367 -33 b 278 -42 328 -33 304 -42 b 167 69 215 -42 167 7 b 171 101 167 81 168 92 b 139 97 161 99 150 97 b 28 208 76 97 28 146 b 51 278 28 235 36 258 b 28 347 36 297 28 321 b 139 458 28 410 76 458 b 171 454 150 458 161 457 b 167 486 168 464 167 475 b 278 597 167 549 215 597 b 389 486 340 597 389 549 b 385 454 389 475 388 464 b 417 458 394 457 406 458 b 528 347 479 458 528 410 b 417 236 528 285 479 236 b 347 260 390 236 367 244 "},"ė":{"ha":556,"x_min":0,"x_max":0,"o":"m 278 653 b 167 764 215 653 167 701 b 278 875 167 826 215 875 b 389 764 340 875 389 826 b 278 653 389 701 340 653 m 417 181 b 528 69 479 181 528 132 b 417 -42 528 7 479 -42 b 347 -18 390 -42 367 -33 b 278 -42 328 -33 304 -42 b 167 69 215 -42 167 7 b 171 101 167 81 168 92 b 139 97 161 99 150 97 b 28 208 76 97 28 146 b 51 278 28 235 36 258 b 28 347 36 297 28 321 b 139 458 28 410 76 458 b 171 454 150 458 161 457 b 167 486 168 464 167 475 b 278 597 167 549 215 597 b 389 486 340 597 389 549 b 385 454 389 475 388 464 b 417 458 394 457 406 458 b 528 347 479 458 528 410 b 417 236 528 285 479 236 b 347 260 390 236 367 244 b 278 236 328 244 304 236 b 246 240 267 236 256 238 b 250 208 249 231 250 219 b 246 176 250 197 249 186 b 278 181 256 179 267 181 b 347 157 304 181 328 172 b 417 181 367 172 390 181 "},"è":{"ha":556,"x_min":0,"x_max":0,"o":"m 139 792 b 28 903 76 792 28 840 b 139 1014 28 965 76 1014 b 250 903 201 1014 250 965 b 246 871 250 892 249 881 b 278 875 256 874 267 875 b 389 764 340 875 389 826 b 278 653 389 701 340 653 b 167 764 215 653 167 701 b 171 796 167 775 168 786 b 139 792 161 793 150 792 m 417 181 b 528 69 479 181 528 132 b 417 -42 528 7 479 -42 b 347 -18 390 -42 367 -33 b 278 -42 328 -33 304 -42 b 167 69 215 -42 167 7 b 171 101 167 81 168 92 b 139 97 161 99 150 97 b 28 208 76 97 28 146 b 51 278 28 235 36 258 b 28 347 36 297 28 321 b 139 458 28 410 76 458 b 171 454 150 458 161 457 b 167 486 168 464 167 475 b 278 597 167 549 215 597 b 389 486 340 597 389 549 b 385 454 389 475 388 464 b 417 458 394 457 406 458 b 528 347 479 458 528 410 b 417 236 528 285 479 236 b 347 260 390 236 367 244 b 278 236 328 244 304 236 b 246 240 267 236 256 238 b 250 208 249 231 250 219 b 246 176 250 197 249 186 b 278 181 256 179 267 181 b 347 157 304 181 328 172 b 417 181 367 172 390 181 "},"ē":{"ha":556,"x_min":0,"x_max":0,"o":"m 139 653 b 28 764 76 653 28 701 b 139 875 28 826 76 875 b 208 851 165 875 189 867 b 278 875 228 867 251 875 b 347 851 304 875 328 867 b 417 875 367 867 390 875 b 528 764 479 875 528 826 b 417 653 528 701 479 653 b 347 676 390 653 367 661 b 278 653 328 661 304 653 b 208 676 251 653 228 661 b 139 653 189 661 165 653 m 347 260 b 278 236 328 244 304 236 b 246 240 267 236 256 238 b 250 208 249 231 250 219 b 246 176 250 197 249 186 b 278 181 256 179 267 181 b 347 157 304 181 328 172 b 417 181 367 172 390 181 b 528 69 479 181 528 132 b 417 -42 528 7 479 -42 b 347 -18 390 -42 367 -33 b 278 -42 328 -33 304 -42 b 167 69 215 -42 167 7 b 171 101 167 81 168 92 b 139 97 161 99 150 97 b 28 208 76 97 28 146 b 51 278 28 235 36 258 b 28 347 36 297 28 321 b 139 458 28 410 76 458 b 171 454 150 458 161 457 b 167 486 168 464 167 475 b 278 597 167 549 215 597 b 389 486 340 597 389 549 b 385 454 389 475 388 464 b 417 458 394 457 406 458 b 528 347 479 458 528 410 b 417 236 528 285 479 236 b 347 260 390 236 367 244 "},"ę":{"ha":556,"x_min":0,"x_max":0,"o":"m 528 69 b 417 -42 528 7 479 -42 b 385 -37 406 -42 394 -40 b 389 -69 388 -47 389 -58 b 385 -101 389 -81 388 -92 b 417 -97 394 -99 406 -97 b 528 -208 479 -97 528 -146 b 417 -319 528 -271 479 -319 b 347 -296 390 -319 367 -311 b 278 -319 328 -311 304 -319 b 167 -208 215 -319 167 -271 b 190 -139 167 -182 175 -158 b 167 -69 175 -119 167 -96 b 190 0 167 -43 175 -19 b 167 69 175 19 167 43 b 171 101 167 81 168 92 b 139 97 161 99 150 97 b 28 208 76 97 28 146 b 51 278 28 235 36 258 b 28 347 36 297 28 321 b 139 458 28 410 76 458 b 171 454 150 458 161 457 b 167 486 168 464 167 475 b 278 597 167 549 215 597 b 389 486 340 597 389 549 b 385 454 389 475 388 464 b 417 458 394 457 406 458 b 528 347 479 458 528 410 b 417 236 528 285 479 236 b 347 260 390 236 367 244 b 278 236 328 244 304 236 b 246 240 267 236 256 238 b 250 208 249 231 250 219 b 246 176 250 197 249 186 b 278 181 256 179 267 181 b 347 157 304 181 328 172 b 417 181 367 172 390 181 b 528 69 479 181 528 132 "},"f":{"ha":417,"x_min":0,"x_max":0,"o":"m 278 458 b 389 347 340 458 389 410 b 278 236 389 285 340 236 b 246 240 267 236 256 238 b 250 208 249 231 250 219 b 226 139 250 182 242 158 b 250 69 242 119 250 96 b 139 -42 250 7 201 -42 b 28 69 76 -42 28 7 b 51 139 28 96 36 119 b 28 208 36 158 28 182 b 51 278 28 235 36 258 b 28 347 36 297 28 321 b 51 417 28 374 36 397 b 28 486 36 436 28 460 b 139 597 28 549 76 597 b 171 593 150 597 161 596 b 167 625 168 603 167 614 b 278 736 167 688 215 736 b 389 625 340 736 389 688 b 278 514 389 563 340 514 b 246 518 267 514 256 515 b 250 486 249 508 250 497 b 246 454 250 475 249 464 b 278 458 256 457 267 458 "},"g":{"ha":556,"x_min":0,"x_max":0,"o":"m 528 347 b 504 278 528 321 519 297 b 528 208 519 258 528 235 b 417 97 528 146 479 97 b 385 101 406 97 394 99 b 389 69 388 92 389 81 b 278 -42 389 7 340 -42 b 208 -18 251 -42 228 -33 b 139 -42 189 -33 165 -42 b 28 69 76 -42 28 7 b 139 181 28 132 76 181 b 208 157 165 181 189 172 b 278 181 228 172 251 181 b 310 176 289 181 300 179 b 306 208 307 186 306 197 b 310 240 306 219 307 231 b 278 236 300 238 289 236 b 208 260 251 236 228 244 b 139 236 189 244 165 236 b 28 347 76 236 28 285 b 51 417 28 374 36 397 b 28 486 36 436 28 460 b 139 597 28 549 76 597 b 208 574 165 597 189 589 b 278 597 228 589 251 597 b 389 486 340 597 389 549 b 385 454 389 475 388 464 b 417 458 394 457 406 458 b 528 347 479 458 528 410 "},"ğ":{"ha":556,"x_min":0,"x_max":0,"o":"m 528 903 b 504 833 528 876 519 853 b 528 764 519 814 528 790 b 417 653 528 701 479 653 b 347 676 390 653 367 661 b 278 653 328 661 304 653 b 208 676 251 653 228 661 b 139 653 189 661 165 653 b 28 764 76 653 28 701 b 51 833 28 790 36 814 b 28 903 36 853 28 876 b 139 1014 28 965 76 1014 b 250 903 201 1014 250 965 b 246 871 250 892 249 881 b 278 875 256 874 267 875 b 310 871 289 875 300 874 b 306 903 307 881 306 892 b 417 1014 306 965 354 1014 b 528 903 479 1014 528 965 m 417 458 b 528 347 479 458 528 410 b 504 278 528 321 519 297 b 528 208 519 258 528 235 b 417 97 528 146 479 97 b 385 101 406 97 394 99 b 389 69 388 92 389 81 b 278 -42 389 7 340 -42 b 208 -18 251 -42 228 -33 b 139 -42 189 -33 165 -42 b 28 69 76 -42 28 7 b 139 181 28 132 76 181 b 208 157 165 181 189 172 b 278 181 228 172 251 181 b 310 176 289 181 300 179 b 306 208 307 186 306 197 b 310 240 306 219 307 231 b 278 236 300 238 289 236 b 208 260 251 236 228 244 b 139 236 189 244 165 236 b 28 347 76 236 28 285 b 51 417 28 374 36 397 b 28 486 36 436 28 460 b 139 597 28 549 76 597 b 208 574 165 597 189 589 b 278 597 228 589 251 597 b 389 486 340 597 389 549 b 385 454 389 475 388 464 b 417 458 394 457 406 458 "},"ģ":{"ha":556,"x_min":0,"x_max":0,"o":"m 417 875 b 528 764 479 875 528 826 b 417 653 528 701 479 653 b 347 676 390 653 367 661 b 278 653 328 661 304 653 b 167 764 215 653 167 701 b 190 833 167 790 175 814 b 167 903 175 853 167 876 b 278 1014 167 965 215 1014 b 310 1010 289 1014 300 1013 b 306 1042 307 1019 306 1031 b 417 1153 306 1104 354 1153 b 528 1042 479 1153 528 1104 b 417 931 528 979 479 931 b 385 935 406 931 394 932 b 389 903 388 925 389 914 b 385 871 389 892 388 881 b 417 875 394 874 406 875 m 417 458 b 528 347 479 458 528 410 b 504 278 528 321 519 297 b 528 208 519 258 528 235 b 417 97 528 146 479 97 b 385 101 406 97 394 99 b 389 69 388 92 389 81 b 278 -42 389 7 340 -42 b 208 -18 251 -42 228 -33 b 139 -42 189 -33 165 -42 b 28 69 76 -42 28 7 b 139 181 28 132 76 181 b 208 157 165 181 189 172 b 278 181 228 172 251 181 b 310 176 289 181 300 179 b 306 208 307 186 306 197 b 310 240 306 219 307 231 b 278 236 300 238 289 236 b 208 260 251 236 228 244 b 139 236 189 244 165 236 b 28 347 76 236 28 285 b 51 417 28 374 36 397 b 28 486 36 436 28 460 b 139 597 28 549 76 597 b 208 574 165 597 189 589 b 278 597 228 589 251 597 b 389 486 340 597 389 549 b 385 454 389 475 388 464 b 417 458 394 457 406 458 "},"ġ":{"ha":556,"x_min":0,"x_max":0,"o":"m 278 653 b 167 764 215 653 167 701 b 278 875 167 826 215 875 b 389 764 340 875 389 826 b 278 653 389 701 340 653 m 528 347 b 504 278 528 321 519 297 b 528 208 519 258 528 235 b 417 97 528 146 479 97 b 385 101 406 97 394 99 b 389 69 388 92 389 81 b 278 -42 389 7 340 -42 b 208 -18 251 -42 228 -33 b 139 -42 189 -33 165 -42 b 28 69 76 -42 28 7 b 139 181 28 132 76 181 b 208 157 165 181 189 172 b 278 181 228 172 251 181 b 310 176 289 181 300 179 b 306 208 307 186 306 197 b 310 240 306 219 307 231 b 278 236 300 238 289 236 b 208 260 251 236 228 244 b 139 236 189 244 165 236 b 28 347 76 236 28 285 b 51 417 28 374 36 397 b 28 486 36 436 28 460 b 139 597 28 549 76 597 b 208 574 165 597 189 589 b 278 597 228 589 251 597 b 389 486 340 597 389 549 b 385 454 389 475 388 464 b 417 458 394 457 406 458 b 528 347 479 458 528 410 "},"h":{"ha":556,"x_min":0,"x_max":0,"o":"m 504 278 b 528 208 519 258 528 235 b 504 139 528 182 519 158 b 528 69 519 119 528 96 b 417 -42 528 7 479 -42 b 306 69 354 -42 306 7 b 329 139 306 96 314 119 b 306 208 314 158 306 182 b 329 278 306 235 314 258 b 306 347 314 297 306 321 b 310 379 306 358 307 369 b 278 375 300 376 289 375 b 246 379 267 375 256 376 b 250 347 249 369 250 358 b 226 278 250 321 242 297 b 250 208 242 258 250 235 b 226 139 250 182 242 158 b 250 69 242 119 250 96 b 139 -42 250 7 201 -42 b 28 69 76 -42 28 7 b 51 139 28 96 36 119 b 28 208 36 158 28 182 b 51 278 28 235 36 258 b 28 347 36 297 28 321 b 51 417 28 374 36 397 b 28 486 36 436 28 460 b 51 556 28 513 36 536 b 28 625 36 575 28 599 b 139 736 28 688 76 736 b 250 625 201 736 250 688 b 246 593 250 614 249 603 b 278 597 256 596 267 597 b 389 486 340 597 389 549 b 385 454 389 475 388 464 b 417 458 394 457 406 458 b 528 347 479 458 528 410 b 504 278 528 321 519 297 "},"ħ":{"ha":694,"x_min":0,"x_max":0,"o":"m 667 208 b 643 139 667 182 658 158 b 667 69 658 119 667 96 b 556 -42 667 7 618 -42 b 444 69 493 -42 444 7 b 468 139 444 96 453 119 b 444 208 453 158 444 182 b 449 240 444 219 446 231 b 417 236 439 238 428 236 b 385 240 406 236 394 238 b 389 208 388 231 389 219 b 365 139 389 182 381 158 b 389 69 381 119 389 96 b 278 -42 389 7 340 -42 b 167 69 215 -42 167 7 b 190 139 167 96 175 119 b 167 208 175 158 167 182 b 190 278 167 235 175 258 b 167 347 175 297 167 321 b 171 379 167 358 168 369 b 139 375 161 376 150 375 b 28 486 76 375 28 424 b 139 597 28 549 76 597 b 171 593 150 597 161 596 b 167 625 168 603 167 614 b 278 736 167 688 215 736 b 347 713 304 736 328 728 b 417 736 367 728 390 736 b 528 625 479 736 528 688 b 417 514 528 563 479 514 b 385 518 406 514 394 515 b 389 486 388 508 389 497 b 385 454 389 475 388 464 b 417 458 394 457 406 458 b 528 347 479 458 528 410 b 524 315 528 336 526 325 b 556 319 533 318 544 319 b 667 208 618 319 667 271 "},"i":{"ha":278,"x_min":0,"x_max":0,"o":"m 139 514 b 28 625 76 514 28 563 b 139 736 28 688 76 736 b 250 625 201 736 250 688 b 139 514 250 563 201 514 m 139 458 b 250 347 201 458 250 410 b 226 278 250 321 242 297 b 250 208 242 258 250 235 b 226 139 250 182 242 158 b 250 69 242 119 250 96 b 139 -42 250 7 201 -42 b 28 69 76 -42 28 7 b 51 139 28 96 36 119 b 28 208 36 158 28 182 b 51 278 28 235 36 258 b 28 347 36 297 28 321 b 139 458 28 410 76 458 "},"ı":{"ha":278,"x_min":0,"x_max":0,"o":"m 226 417 b 250 347 242 397 250 374 b 226 278 250 321 242 297 b 250 208 242 258 250 235 b 226 139 250 182 242 158 b 250 69 242 119 250 96 b 139 -42 250 7 201 -42 b 28 69 76 -42 28 7 b 51 139 28 96 36 119 b 28 208 36 158 28 182 b 51 278 28 235 36 258 b 28 347 36 297 28 321 b 51 417 28 374 36 397 b 28 486 36 436 28 460 b 139 597 28 549 76 597 b 250 486 201 597 250 549 b 226 417 250 460 242 436 "},"í":{"ha":278,"x_min":0,"x_max":0,"o":"m 278 1014 b 389 903 340 1014 389 965 b 278 792 389 840 340 792 b 246 796 267 792 256 793 b 250 764 249 786 250 775 b 139 653 250 701 201 653 b 28 764 76 653 28 701 b 139 875 28 826 76 875 b 171 871 150 875 161 874 b 167 903 168 881 167 892 b 278 1014 167 965 215 1014 m 139 597 b 250 486 201 597 250 549 b 226 417 250 460 242 436 b 250 347 242 397 250 374 b 226 278 250 321 242 297 b 250 208 242 258 250 235 b 226 139 250 182 242 158 b 250 69 242 119 250 96 b 139 -42 250 7 201 -42 b 28 69 76 -42 28 7 b 51 139 28 96 36 119 b 28 208 36 158 28 182 b 51 278 28 235 36 258 b 28 347 36 297 28 321 b 51 417 28 374 36 397 b 28 486 36 436 28 460 b 139 597 28 549 76 597 "},"î":{"ha":278,"x_min":0,"x_max":0,"o":"m 278 875 b 389 764 340 875 389 826 b 278 653 389 701 340 653 b 167 764 215 653 167 701 b 171 796 167 775 168 786 b 139 792 161 793 150 792 b 107 796 128 792 117 793 b 111 764 110 786 111 775 b 0 653 111 701 63 653 b -111 764 -62 653 -111 701 b 0 875 -111 826 -62 875 b 32 871 11 875 22 874 b 28 903 29 881 28 892 b 139 1014 28 965 76 1014 b 250 903 201 1014 250 965 b 246 871 250 892 249 881 b 278 875 256 874 267 875 m 139 597 b 250 486 201 597 250 549 b 226 417 250 460 242 436 b 250 347 242 397 250 374 b 226 278 250 321 242 297 b 250 208 242 258 250 235 b 226 139 250 182 242 158 b 250 69 242 119 250 96 b 139 -42 250 7 201 -42 b 28 69 76 -42 28 7 b 51 139 28 96 36 119 b 28 208 36 158 28 182 b 51 278 28 235 36 258 b 28 347 36 297 28 321 b 51 417 28 374 36 397 b 28 486 36 436 28 460 b 139 597 28 549 76 597 "},"ï":{"ha":278,"x_min":0,"x_max":0,"o":"m 111 764 b 0 653 111 701 63 653 b -111 764 -62 653 -111 701 b 0 875 -111 826 -62 875 b 111 764 63 875 111 826 m 278 875 b 389 764 340 875 389 826 b 278 653 389 701 340 653 b 167 764 215 653 167 701 b 278 875 167 826 215 875 m 139 597 b 250 486 201 597 250 549 b 226 417 250 460 242 436 b 250 347 242 397 250 374 b 226 278 250 321 242 297 b 250 208 242 258 250 235 b 226 139 250 182 242 158 b 250 69 242 119 250 96 b 139 -42 250 7 201 -42 b 28 69 76 -42 28 7 b 51 139 28 96 36 119 b 28 208 36 158 28 182 b 51 278 28 235 36 258 b 28 347 36 297 28 321 b 51 417 28 374 36 397 b 28 486 36 436 28 460 b 139 597 28 549 76 597 "},"ì":{"ha":278,"x_min":0,"x_max":0,"o":"m 28 764 b 32 796 28 775 29 786 b 0 792 22 793 11 792 b -111 903 -62 792 -111 840 b 0 1014 -111 965 -62 1014 b 111 903 63 1014 111 965 b 107 871 111 892 110 881 b 139 875 117 874 128 875 b 250 764 201 875 250 826 b 139 653 250 701 201 653 b 28 764 76 653 28 701 m 139 597 b 250 486 201 597 250 549 b 226 417 250 460 242 436 b 250 347 242 397 250 374 b 226 278 250 321 242 297 b 250 208 242 258 250 235 b 226 139 250 182 242 158 b 250 69 242 119 250 96 b 139 -42 250 7 201 -42 b 28 69 76 -42 28 7 b 51 139 28 96 36 119 b 28 208 36 158 28 182 b 51 278 28 235 36 258 b 28 347 36 297 28 321 b 51 417 28 374 36 397 b 28 486 36 436 28 460 b 139 597 28 549 76 597 "},"ī":{"ha":278,"x_min":0,"x_max":0,"o":"m 278 875 b 389 764 340 875 389 826 b 278 653 389 701 340 653 b 208 676 251 653 228 661 b 139 653 189 661 165 653 b 69 676 113 653 89 661 b 0 653 50 661 26 653 b -111 764 -62 653 -111 701 b 0 875 -111 826 -62 875 b 69 851 26 875 50 867 b 139 875 89 867 113 875 b 208 851 165 875 189 867 b 278 875 228 867 251 875 m 139 597 b 250 486 201 597 250 549 b 226 417 250 460 242 436 b 250 347 242 397 250 374 b 226 278 250 321 242 297 b 250 208 242 258 250 235 b 226 139 250 182 242 158 b 250 69 242 119 250 96 b 139 -42 250 7 201 -42 b 28 69 76 -42 28 7 b 51 139 28 96 36 119 b 28 208 36 158 28 182 b 51 278 28 235 36 258 b 28 347 36 297 28 321 b 51 417 28 374 36 397 b 28 486 36 436 28 460 b 139 597 28 549 76 597 "},"į":{"ha":278,"x_min":0,"x_max":0,"o":"m 139 653 b 28 764 76 653 28 701 b 139 875 28 826 76 875 b 250 764 201 875 250 826 b 139 653 250 701 201 653 m 139 597 b 250 486 201 597 250 549 b 226 417 250 460 242 436 b 250 347 242 397 250 374 b 226 278 250 321 242 297 b 250 208 242 258 250 235 b 226 139 250 182 242 158 b 250 69 242 119 250 96 b 139 -42 250 7 201 -42 b 107 -37 128 -42 117 -40 b 111 -69 110 -47 111 -58 b 107 -101 111 -81 110 -92 b 139 -97 117 -99 128 -97 b 250 -208 201 -97 250 -146 b 139 -319 250 -271 201 -319 b 69 -296 113 -319 89 -311 b 0 -319 50 -311 26 -319 b -111 -208 -62 -319 -111 -271 b -87 -139 -111 -182 -103 -158 b -111 -69 -103 -119 -111 -96 b 0 42 -111 -7 -62 42 b 32 38 11 42 22 40 b 28 69 29 47 28 58 b 51 139 28 96 36 119 b 28 208 36 158 28 182 b 51 278 28 235 36 258 b 28 347 36 297 28 321 b 51 417 28 374 36 397 b 28 486 36 436 28 460 b 139 597 28 549 76 597 "},"j":{"ha":556,"x_min":0,"x_max":0,"o":"m 504 417 b 528 347 519 397 528 374 b 504 278 528 321 519 297 b 528 208 519 258 528 235 b 417 97 528 146 479 97 b 385 101 406 97 394 99 b 389 69 388 92 389 81 b 278 -42 389 7 340 -42 b 167 69 215 -42 167 7 b 171 101 167 81 168 92 b 139 97 161 99 150 97 b 28 208 76 97 28 146 b 139 319 28 271 76 319 b 250 208 201 319 250 271 b 246 176 250 197 249 186 b 278 181 256 179 267 181 b 310 176 289 181 300 179 b 306 208 307 186 306 197 b 329 278 306 235 314 258 b 306 347 314 297 306 321 b 310 379 306 358 307 369 b 278 375 300 376 289 375 b 167 486 215 375 167 424 b 278 597 167 549 215 597 b 347 574 304 597 328 589 b 417 597 367 589 390 597 b 528 486 479 597 528 549 b 504 417 528 460 519 436 "},"k":{"ha":556,"x_min":0,"x_max":0,"o":"m 417 181 b 528 69 479 181 528 132 b 417 -42 528 7 479 -42 b 306 69 354 -42 306 7 b 310 101 306 81 307 92 b 278 97 300 99 289 97 b 246 101 267 97 256 99 b 250 69 249 92 250 81 b 139 -42 250 7 201 -42 b 28 69 76 -42 28 7 b 51 139 28 96 36 119 b 28 208 36 158 28 182 b 51 278 28 235 36 258 b 28 347 36 297 28 321 b 51 417 28 374 36 397 b 28 486 36 436 28 460 b 51 556 28 513 36 536 b 28 625 36 575 28 599 b 139 736 28 688 76 736 b 250 625 201 736 250 688 b 226 556 250 599 242 575 b 250 486 242 536 250 513 b 246 454 250 475 249 464 b 278 458 256 457 267 458 b 310 454 289 458 300 457 b 306 486 307 464 306 475 b 417 597 306 549 354 597 b 528 486 479 597 528 549 b 417 375 528 424 479 375 b 385 379 406 375 394 376 b 389 347 388 369 389 358 b 365 278 389 321 381 297 b 389 208 381 258 389 235 b 385 176 389 197 388 186 b 417 181 394 179 406 181 "},"ķ":{"ha":556,"x_min":0,"x_max":0,"o":"m 417 181 b 528 69 479 181 528 132 b 417 -42 528 7 479 -42 b 306 69 354 -42 306 7 b 310 101 306 81 307 92 b 278 97 300 99 289 97 b 246 101 267 97 256 99 b 250 69 249 92 250 81 b 139 -42 250 7 201 -42 b 28 69 76 -42 28 7 b 51 139 28 96 36 119 b 28 208 36 158 28 182 b 51 278 28 235 36 258 b 28 347 36 297 28 321 b 51 417 28 374 36 397 b 28 486 36 436 28 460 b 51 556 28 513 36 536 b 28 625 36 575 28 599 b 139 736 28 688 76 736 b 250 625 201 736 250 688 b 226 556 250 599 242 575 b 250 486 242 536 250 513 b 246 454 250 475 249 464 b 278 458 256 457 267 458 b 310 454 289 458 300 457 b 306 486 307 464 306 475 b 417 597 306 549 354 597 b 528 486 479 597 528 549 b 417 375 528 424 479 375 b 385 379 406 375 394 376 b 389 347 388 369 389 358 b 365 278 389 321 381 297 b 389 208 381 258 389 235 b 385 176 389 197 388 186 b 417 181 394 179 406 181 m 278 -97 b 389 -208 340 -97 389 -146 b 365 -278 389 -235 381 -258 b 389 -347 381 -297 389 -321 b 278 -458 389 -410 340 -458 b 246 -454 267 -458 256 -457 b 250 -486 249 -464 250 -475 b 139 -597 250 -549 201 -597 b 28 -486 76 -597 28 -549 b 139 -375 28 -424 76 -375 b 171 -379 150 -375 161 -376 b 167 -347 168 -369 167 -358 b 171 -315 167 -336 168 -325 b 139 -319 161 -318 150 -319 b 28 -208 76 -319 28 -271 b 139 -97 28 -146 76 -97 b 208 -121 165 -97 189 -106 b 278 -97 228 -106 251 -97 "},"l":{"ha":278,"x_min":0,"x_max":0,"o":"m 226 556 b 250 486 242 536 250 513 b 226 417 250 460 242 436 b 250 347 242 397 250 374 b 226 278 250 321 242 297 b 250 208 242 258 250 235 b 226 139 250 182 242 158 b 250 69 242 119 250 96 b 139 -42 250 7 201 -42 b 28 69 76 -42 28 7 b 51 139 28 96 36 119 b 28 208 36 158 28 182 b 51 278 28 235 36 258 b 28 347 36 297 28 321 b 51 417 28 374 36 397 b 28 486 36 436 28 460 b 51 556 28 513 36 536 b 28 625 36 575 28 599 b 139 736 28 688 76 736 b 250 625 201 736 250 688 b 226 556 250 599 242 575 "},"ĺ":{"ha":278,"x_min":0,"x_max":0,"o":"m 278 1153 b 389 1042 340 1153 389 1104 b 278 931 389 979 340 931 b 246 935 267 931 256 932 b 250 903 249 925 250 914 b 139 792 250 840 201 792 b 28 903 76 792 28 840 b 139 1014 28 965 76 1014 b 171 1010 150 1014 161 1013 b 167 1042 168 1019 167 1031 b 278 1153 167 1104 215 1153 m 139 736 b 250 625 201 736 250 688 b 226 556 250 599 242 575 b 250 486 242 536 250 513 b 226 417 250 460 242 436 b 250 347 242 397 250 374 b 226 278 250 321 242 297 b 250 208 242 258 250 235 b 226 139 250 182 242 158 b 250 69 242 119 250 96 b 139 -42 250 7 201 -42 b 28 69 76 -42 28 7 b 51 139 28 96 36 119 b 28 208 36 158 28 182 b 51 278 28 235 36 258 b 28 347 36 297 28 321 b 51 417 28 374 36 397 b 28 486 36 436 28 460 b 51 556 28 513 36 536 b 28 625 36 575 28 599 b 139 736 28 688 76 736 "},"ľ":{"ha":694,"x_min":0,"x_max":0,"o":"m 139 736 b 250 625 201 736 250 688 b 226 556 250 599 242 575 b 250 486 242 536 250 513 b 226 417 250 460 242 436 b 250 347 242 397 250 374 b 226 278 250 321 242 297 b 250 208 242 258 250 235 b 226 139 250 182 242 158 b 250 69 242 119 250 96 b 139 -42 250 7 201 -42 b 28 69 76 -42 28 7 b 51 139 28 96 36 119 b 28 208 36 158 28 182 b 51 278 28 235 36 258 b 28 347 36 297 28 321 b 51 417 28 374 36 397 b 28 486 36 436 28 460 b 51 556 28 513 36 536 b 28 625 36 575 28 599 b 139 736 28 688 76 736 m 667 625 b 643 556 667 599 658 575 b 667 486 658 536 667 513 b 556 375 667 424 618 375 b 524 379 544 375 533 376 b 528 347 526 369 528 358 b 417 236 528 285 479 236 b 306 347 354 236 306 285 b 417 458 306 410 354 458 b 449 454 428 458 439 457 b 444 486 446 464 444 475 b 449 518 444 497 446 508 b 417 514 439 515 428 514 b 306 625 354 514 306 563 b 417 736 306 688 354 736 b 486 713 443 736 467 728 b 556 736 506 728 529 736 b 667 625 618 736 667 688 "}}}
